%TF.GenerationSoftware,KiCad,Pcbnew,(5.1.9)-1*%
%TF.CreationDate,2021-06-03T20:52:14+02:00*%
%TF.ProjectId,Neopad,4e656f70-6164-42e6-9b69-6361645f7063,rev?*%
%TF.SameCoordinates,Original*%
%TF.FileFunction,Soldermask,Bot*%
%TF.FilePolarity,Negative*%
%FSLAX46Y46*%
G04 Gerber Fmt 4.6, Leading zero omitted, Abs format (unit mm)*
G04 Created by KiCad (PCBNEW (5.1.9)-1) date 2021-06-03 20:52:14*
%MOMM*%
%LPD*%
G01*
G04 APERTURE LIST*
%ADD10C,0.010000*%
%ADD11C,0.500000*%
%ADD12O,1.400000X1.400000*%
%ADD13C,1.400000*%
%ADD14R,1.752600X1.752600*%
%ADD15C,1.752600*%
%ADD16C,2.000000*%
%ADD17C,0.100000*%
%ADD18C,3.300000*%
%ADD19R,2.000000X3.200000*%
%ADD20R,2.000000X2.000000*%
%ADD21R,1.800000X1.800000*%
%ADD22C,1.800000*%
%ADD23C,2.250000*%
%ADD24C,3.987800*%
%ADD25C,1.750000*%
G04 APERTURE END LIST*
D10*
%TO.C,G\u002A\u002A\u002A*%
G36*
X86632457Y-111859227D02*
G01*
X86662543Y-111860389D01*
X86691440Y-111862392D01*
X86717286Y-111865177D01*
X86731664Y-111867392D01*
X86794996Y-111881889D01*
X86855575Y-111902092D01*
X86913297Y-111927950D01*
X86968056Y-111959408D01*
X87019749Y-111996413D01*
X87068270Y-112038910D01*
X87071005Y-112041562D01*
X87110670Y-112080238D01*
X87148879Y-112043115D01*
X87192780Y-112003491D01*
X87237332Y-111969537D01*
X87283600Y-111940589D01*
X87332650Y-111915981D01*
X87385545Y-111895047D01*
X87386149Y-111894836D01*
X87439038Y-111878590D01*
X87490875Y-111867385D01*
X87543372Y-111860967D01*
X87598239Y-111859079D01*
X87622062Y-111859563D01*
X87674611Y-111862975D01*
X87723087Y-111869620D01*
X87769092Y-111879879D01*
X87814228Y-111894134D01*
X87860095Y-111912768D01*
X87876062Y-111920132D01*
X87932622Y-111950360D01*
X87985236Y-111985429D01*
X88033679Y-112025034D01*
X88077726Y-112068870D01*
X88117153Y-112116633D01*
X88151734Y-112168018D01*
X88181245Y-112222720D01*
X88205460Y-112280435D01*
X88224155Y-112340858D01*
X88237106Y-112403684D01*
X88238178Y-112410786D01*
X88240492Y-112432688D01*
X88241921Y-112459396D01*
X88242493Y-112489429D01*
X88242239Y-112521308D01*
X88241190Y-112553555D01*
X88239374Y-112584691D01*
X88236822Y-112613236D01*
X88233590Y-112637550D01*
X88218397Y-112711959D01*
X88197417Y-112784350D01*
X88170439Y-112855392D01*
X88150490Y-112899296D01*
X88119196Y-112959861D01*
X88084971Y-113017788D01*
X88047192Y-113073945D01*
X88005236Y-113129196D01*
X87958479Y-113184410D01*
X87906299Y-113240451D01*
X87901677Y-113245195D01*
X87868729Y-113278323D01*
X87835773Y-113310223D01*
X87802304Y-113341302D01*
X87767817Y-113371963D01*
X87731806Y-113402613D01*
X87693767Y-113433657D01*
X87653194Y-113465500D01*
X87609582Y-113498546D01*
X87562426Y-113533202D01*
X87511220Y-113569872D01*
X87455459Y-113608962D01*
X87402987Y-113645159D01*
X87361525Y-113673624D01*
X87324909Y-113698865D01*
X87292708Y-113721191D01*
X87264492Y-113740911D01*
X87239830Y-113758335D01*
X87218291Y-113773771D01*
X87199446Y-113787530D01*
X87182864Y-113799919D01*
X87168114Y-113811249D01*
X87154765Y-113821828D01*
X87142388Y-113831965D01*
X87139462Y-113834411D01*
X87129712Y-113842573D01*
X87121401Y-113849499D01*
X87116113Y-113853870D01*
X87115650Y-113854247D01*
X87112957Y-113855195D01*
X87108866Y-113854054D01*
X87102579Y-113850332D01*
X87093299Y-113843537D01*
X87080227Y-113833179D01*
X87076374Y-113830057D01*
X87057457Y-113814958D01*
X87036944Y-113799136D01*
X87014271Y-113782187D01*
X86988877Y-113763705D01*
X86960201Y-113743284D01*
X86927679Y-113720518D01*
X86890752Y-113695002D01*
X86863237Y-113676146D01*
X86826928Y-113651304D01*
X86795196Y-113629526D01*
X86767352Y-113610325D01*
X86742706Y-113593215D01*
X86720571Y-113577709D01*
X86700257Y-113563323D01*
X86681075Y-113549569D01*
X86662337Y-113535962D01*
X86643353Y-113522016D01*
X86623435Y-113507244D01*
X86615587Y-113501394D01*
X86532050Y-113436903D01*
X86454756Y-113372715D01*
X86383610Y-113308702D01*
X86318521Y-113244735D01*
X86259396Y-113180686D01*
X86206141Y-113116426D01*
X86158664Y-113051827D01*
X86116871Y-112986758D01*
X86080669Y-112921093D01*
X86049967Y-112854702D01*
X86024670Y-112787457D01*
X86004685Y-112719228D01*
X85989921Y-112649887D01*
X85986814Y-112630941D01*
X85983713Y-112606279D01*
X85981211Y-112577467D01*
X85979385Y-112546420D01*
X85978314Y-112515050D01*
X85978077Y-112485272D01*
X85978752Y-112459000D01*
X85979363Y-112448975D01*
X85987120Y-112386651D01*
X86000910Y-112326132D01*
X86020828Y-112267074D01*
X86040600Y-112221962D01*
X86071037Y-112166101D01*
X86106337Y-112114142D01*
X86146187Y-112066304D01*
X86190280Y-112022805D01*
X86238305Y-111983862D01*
X86289951Y-111949692D01*
X86344911Y-111920514D01*
X86402872Y-111896545D01*
X86463527Y-111878003D01*
X86526564Y-111865105D01*
X86553675Y-111861424D01*
X86576162Y-111859683D01*
X86603043Y-111858971D01*
X86632457Y-111859227D01*
G37*
X86632457Y-111859227D02*
X86662543Y-111860389D01*
X86691440Y-111862392D01*
X86717286Y-111865177D01*
X86731664Y-111867392D01*
X86794996Y-111881889D01*
X86855575Y-111902092D01*
X86913297Y-111927950D01*
X86968056Y-111959408D01*
X87019749Y-111996413D01*
X87068270Y-112038910D01*
X87071005Y-112041562D01*
X87110670Y-112080238D01*
X87148879Y-112043115D01*
X87192780Y-112003491D01*
X87237332Y-111969537D01*
X87283600Y-111940589D01*
X87332650Y-111915981D01*
X87385545Y-111895047D01*
X87386149Y-111894836D01*
X87439038Y-111878590D01*
X87490875Y-111867385D01*
X87543372Y-111860967D01*
X87598239Y-111859079D01*
X87622062Y-111859563D01*
X87674611Y-111862975D01*
X87723087Y-111869620D01*
X87769092Y-111879879D01*
X87814228Y-111894134D01*
X87860095Y-111912768D01*
X87876062Y-111920132D01*
X87932622Y-111950360D01*
X87985236Y-111985429D01*
X88033679Y-112025034D01*
X88077726Y-112068870D01*
X88117153Y-112116633D01*
X88151734Y-112168018D01*
X88181245Y-112222720D01*
X88205460Y-112280435D01*
X88224155Y-112340858D01*
X88237106Y-112403684D01*
X88238178Y-112410786D01*
X88240492Y-112432688D01*
X88241921Y-112459396D01*
X88242493Y-112489429D01*
X88242239Y-112521308D01*
X88241190Y-112553555D01*
X88239374Y-112584691D01*
X88236822Y-112613236D01*
X88233590Y-112637550D01*
X88218397Y-112711959D01*
X88197417Y-112784350D01*
X88170439Y-112855392D01*
X88150490Y-112899296D01*
X88119196Y-112959861D01*
X88084971Y-113017788D01*
X88047192Y-113073945D01*
X88005236Y-113129196D01*
X87958479Y-113184410D01*
X87906299Y-113240451D01*
X87901677Y-113245195D01*
X87868729Y-113278323D01*
X87835773Y-113310223D01*
X87802304Y-113341302D01*
X87767817Y-113371963D01*
X87731806Y-113402613D01*
X87693767Y-113433657D01*
X87653194Y-113465500D01*
X87609582Y-113498546D01*
X87562426Y-113533202D01*
X87511220Y-113569872D01*
X87455459Y-113608962D01*
X87402987Y-113645159D01*
X87361525Y-113673624D01*
X87324909Y-113698865D01*
X87292708Y-113721191D01*
X87264492Y-113740911D01*
X87239830Y-113758335D01*
X87218291Y-113773771D01*
X87199446Y-113787530D01*
X87182864Y-113799919D01*
X87168114Y-113811249D01*
X87154765Y-113821828D01*
X87142388Y-113831965D01*
X87139462Y-113834411D01*
X87129712Y-113842573D01*
X87121401Y-113849499D01*
X87116113Y-113853870D01*
X87115650Y-113854247D01*
X87112957Y-113855195D01*
X87108866Y-113854054D01*
X87102579Y-113850332D01*
X87093299Y-113843537D01*
X87080227Y-113833179D01*
X87076374Y-113830057D01*
X87057457Y-113814958D01*
X87036944Y-113799136D01*
X87014271Y-113782187D01*
X86988877Y-113763705D01*
X86960201Y-113743284D01*
X86927679Y-113720518D01*
X86890752Y-113695002D01*
X86863237Y-113676146D01*
X86826928Y-113651304D01*
X86795196Y-113629526D01*
X86767352Y-113610325D01*
X86742706Y-113593215D01*
X86720571Y-113577709D01*
X86700257Y-113563323D01*
X86681075Y-113549569D01*
X86662337Y-113535962D01*
X86643353Y-113522016D01*
X86623435Y-113507244D01*
X86615587Y-113501394D01*
X86532050Y-113436903D01*
X86454756Y-113372715D01*
X86383610Y-113308702D01*
X86318521Y-113244735D01*
X86259396Y-113180686D01*
X86206141Y-113116426D01*
X86158664Y-113051827D01*
X86116871Y-112986758D01*
X86080669Y-112921093D01*
X86049967Y-112854702D01*
X86024670Y-112787457D01*
X86004685Y-112719228D01*
X85989921Y-112649887D01*
X85986814Y-112630941D01*
X85983713Y-112606279D01*
X85981211Y-112577467D01*
X85979385Y-112546420D01*
X85978314Y-112515050D01*
X85978077Y-112485272D01*
X85978752Y-112459000D01*
X85979363Y-112448975D01*
X85987120Y-112386651D01*
X86000910Y-112326132D01*
X86020828Y-112267074D01*
X86040600Y-112221962D01*
X86071037Y-112166101D01*
X86106337Y-112114142D01*
X86146187Y-112066304D01*
X86190280Y-112022805D01*
X86238305Y-111983862D01*
X86289951Y-111949692D01*
X86344911Y-111920514D01*
X86402872Y-111896545D01*
X86463527Y-111878003D01*
X86526564Y-111865105D01*
X86553675Y-111861424D01*
X86576162Y-111859683D01*
X86603043Y-111858971D01*
X86632457Y-111859227D01*
G36*
X88392000Y-119253000D02*
G01*
X93472000Y-119253000D01*
X93472000Y-116713000D01*
X92625333Y-116713000D01*
X92625333Y-118406334D01*
X91778666Y-118406334D01*
X91778666Y-117559667D01*
X90932000Y-117559667D01*
X90932000Y-118406334D01*
X89238666Y-118406334D01*
X89238666Y-116713000D01*
X90085333Y-116713000D01*
X90085333Y-115019667D01*
X90932000Y-115019667D01*
X90932000Y-116713000D01*
X92625333Y-116713000D01*
X93472000Y-116713000D01*
X93472000Y-114173000D01*
X88392000Y-114173000D01*
X88392000Y-119253000D01*
G37*
X88392000Y-119253000D02*
X93472000Y-119253000D01*
X93472000Y-116713000D01*
X92625333Y-116713000D01*
X92625333Y-118406334D01*
X91778666Y-118406334D01*
X91778666Y-117559667D01*
X90932000Y-117559667D01*
X90932000Y-118406334D01*
X89238666Y-118406334D01*
X89238666Y-116713000D01*
X90085333Y-116713000D01*
X90085333Y-115019667D01*
X90932000Y-115019667D01*
X90932000Y-116713000D01*
X92625333Y-116713000D01*
X93472000Y-116713000D01*
X93472000Y-114173000D01*
X88392000Y-114173000D01*
X88392000Y-119253000D01*
%TD*%
D11*
%TO.C,mouse-bite-2.54mm-slot*%
X118999000Y-96032500D03*
X115951000Y-96032500D03*
X118999000Y-93832500D03*
X115951000Y-93832500D03*
X117475000Y-93832500D03*
X117475000Y-96032500D03*
X118237000Y-93832500D03*
X116713000Y-93832500D03*
X116713000Y-96032500D03*
X118237000Y-96032500D03*
X115189000Y-93832500D03*
X115189000Y-96032500D03*
X119761000Y-93832500D03*
X119761000Y-96032500D03*
%TD*%
%TO.C,mouse-bite-2.54mm-slot*%
X66738500Y-96032500D03*
X66738500Y-93832500D03*
X62166500Y-96032500D03*
X62166500Y-93832500D03*
X65214500Y-96032500D03*
X63690500Y-96032500D03*
X63690500Y-93832500D03*
X65214500Y-93832500D03*
X64452500Y-96032500D03*
X64452500Y-93832500D03*
X62928500Y-93832500D03*
X65976500Y-93832500D03*
X62928500Y-96032500D03*
X65976500Y-96032500D03*
%TD*%
D12*
%TO.C,R2*%
X68199000Y-80899000D03*
D13*
X68199000Y-88519000D03*
%TD*%
D12*
%TO.C,R1*%
X64389000Y-80899000D03*
D13*
X64389000Y-88519000D03*
%TD*%
D14*
%TO.C,U1*%
X42926000Y-59055000D03*
D15*
X42926000Y-61595000D03*
X42926000Y-64135000D03*
X42926000Y-66675000D03*
X42926000Y-69215000D03*
X42926000Y-71755000D03*
X42926000Y-74295000D03*
X42926000Y-76835000D03*
X42926000Y-79375000D03*
X42926000Y-81915000D03*
X42926000Y-84455000D03*
X58166000Y-86995000D03*
X58166000Y-84455000D03*
X58166000Y-81915000D03*
X58166000Y-79375000D03*
X58166000Y-76835000D03*
X58166000Y-74295000D03*
X58166000Y-71755000D03*
X58166000Y-69215000D03*
X58166000Y-66675000D03*
X58166000Y-64135000D03*
X58166000Y-61595000D03*
X42926000Y-86995000D03*
X58166000Y-59055000D03*
%TD*%
D16*
%TO.C,SW2*%
X69850000Y-59467750D03*
X69850000Y-63967750D03*
X63350000Y-59467750D03*
X63350000Y-63967750D03*
%TD*%
%TO.C,D8*%
G36*
G01*
X79371469Y-87213719D02*
X79371469Y-87213719D01*
G75*
G02*
X80502839Y-87213719I565685J-565685D01*
G01*
X80502839Y-87213719D01*
G75*
G02*
X80502839Y-88345089I-565685J-565685D01*
G01*
X80502839Y-88345089D01*
G75*
G02*
X79371469Y-88345089I-565685J565685D01*
G01*
X79371469Y-88345089D01*
G75*
G02*
X79371469Y-87213719I565685J565685D01*
G01*
G37*
D17*
G36*
X73417629Y-82391250D02*
G01*
X74549000Y-81259879D01*
X75680371Y-82391250D01*
X74549000Y-83522621D01*
X73417629Y-82391250D01*
G37*
%TD*%
%TO.C,D7*%
G36*
G01*
X79371469Y-82451219D02*
X79371469Y-82451219D01*
G75*
G02*
X80502839Y-82451219I565685J-565685D01*
G01*
X80502839Y-82451219D01*
G75*
G02*
X80502839Y-83582589I-565685J-565685D01*
G01*
X80502839Y-83582589D01*
G75*
G02*
X79371469Y-83582589I-565685J565685D01*
G01*
X79371469Y-83582589D01*
G75*
G02*
X79371469Y-82451219I565685J565685D01*
G01*
G37*
G36*
X73417629Y-77628750D02*
G01*
X74549000Y-76497379D01*
X75680371Y-77628750D01*
X74549000Y-78760121D01*
X73417629Y-77628750D01*
G37*
%TD*%
%TO.C,D6*%
G36*
G01*
X79371469Y-77688719D02*
X79371469Y-77688719D01*
G75*
G02*
X80502839Y-77688719I565685J-565685D01*
G01*
X80502839Y-77688719D01*
G75*
G02*
X80502839Y-78820089I-565685J-565685D01*
G01*
X80502839Y-78820089D01*
G75*
G02*
X79371469Y-78820089I-565685J565685D01*
G01*
X79371469Y-78820089D01*
G75*
G02*
X79371469Y-77688719I565685J565685D01*
G01*
G37*
G36*
X73417629Y-72866250D02*
G01*
X74549000Y-71734879D01*
X75680371Y-72866250D01*
X74549000Y-73997621D01*
X73417629Y-72866250D01*
G37*
%TD*%
%TO.C,D3*%
G36*
G01*
X79371469Y-72926219D02*
X79371469Y-72926219D01*
G75*
G02*
X80502839Y-72926219I565685J-565685D01*
G01*
X80502839Y-72926219D01*
G75*
G02*
X80502839Y-74057589I-565685J-565685D01*
G01*
X80502839Y-74057589D01*
G75*
G02*
X79371469Y-74057589I-565685J565685D01*
G01*
X79371469Y-74057589D01*
G75*
G02*
X79371469Y-72926219I565685J565685D01*
G01*
G37*
G36*
X73417629Y-68103750D02*
G01*
X74549000Y-66972379D01*
X75680371Y-68103750D01*
X74549000Y-69235121D01*
X73417629Y-68103750D01*
G37*
%TD*%
%TO.C,D2*%
G36*
G01*
X79371469Y-68163719D02*
X79371469Y-68163719D01*
G75*
G02*
X80502839Y-68163719I565685J-565685D01*
G01*
X80502839Y-68163719D01*
G75*
G02*
X80502839Y-69295089I-565685J-565685D01*
G01*
X80502839Y-69295089D01*
G75*
G02*
X79371469Y-69295089I-565685J565685D01*
G01*
X79371469Y-69295089D01*
G75*
G02*
X79371469Y-68163719I565685J565685D01*
G01*
G37*
G36*
X73417629Y-63341250D02*
G01*
X74549000Y-62209879D01*
X75680371Y-63341250D01*
X74549000Y-64472621D01*
X73417629Y-63341250D01*
G37*
%TD*%
%TO.C,D1*%
G36*
X73417629Y-58578750D02*
G01*
X74549000Y-57447379D01*
X75680371Y-58578750D01*
X74549000Y-59710121D01*
X73417629Y-58578750D01*
G37*
G36*
G01*
X79371469Y-63401219D02*
X79371469Y-63401219D01*
G75*
G02*
X80502839Y-63401219I565685J-565685D01*
G01*
X80502839Y-63401219D01*
G75*
G02*
X80502839Y-64532589I-565685J-565685D01*
G01*
X80502839Y-64532589D01*
G75*
G02*
X79371469Y-64532589I-565685J565685D01*
G01*
X79371469Y-64532589D01*
G75*
G02*
X79371469Y-63401219I565685J565685D01*
G01*
G37*
%TD*%
D18*
%TO.C,H8*%
X138112500Y-136683750D03*
%TD*%
%TO.C,H7*%
X138112500Y-98583750D03*
%TD*%
%TO.C,H6*%
X43656250Y-136683750D03*
%TD*%
%TO.C,H5*%
X43656250Y-98583750D03*
%TD*%
D16*
%TO.C,SW3*%
X89456250Y-70062500D03*
X94456250Y-70062500D03*
D19*
X86356250Y-63062500D03*
X97556250Y-63062500D03*
D16*
X89456250Y-55562500D03*
X91956250Y-55562500D03*
D20*
X94456250Y-55562500D03*
%TD*%
D16*
%TO.C,SW1*%
X127556250Y-70062500D03*
X132556250Y-70062500D03*
D19*
X124456250Y-63062500D03*
X135656250Y-63062500D03*
D16*
X127556250Y-55562500D03*
X130056250Y-55562500D03*
D20*
X132556250Y-55562500D03*
%TD*%
D21*
%TO.C,D5*%
X64928750Y-74549000D03*
D22*
X67468750Y-74549000D03*
%TD*%
D21*
%TO.C,D4*%
X67468750Y-69786500D03*
D22*
X64928750Y-69786500D03*
%TD*%
D18*
%TO.C,H4*%
X138112500Y-53181250D03*
%TD*%
%TO.C,H3*%
X43656250Y-53181250D03*
%TD*%
%TO.C,H2*%
X138112500Y-91281250D03*
%TD*%
%TO.C,H1*%
X43656250Y-91281250D03*
%TD*%
D23*
%TO.C,MX2*%
X94615000Y-76676250D03*
D24*
X92075000Y-81756250D03*
D23*
X88265000Y-79216250D03*
D25*
X86995000Y-81756250D03*
X97155000Y-81756250D03*
%TD*%
D23*
%TO.C,MX3*%
X113665000Y-76676250D03*
D24*
X111125000Y-81756250D03*
D23*
X107315000Y-79216250D03*
D25*
X106045000Y-81756250D03*
X116205000Y-81756250D03*
%TD*%
D23*
%TO.C,MX4*%
X132715000Y-76676250D03*
D24*
X130175000Y-81756250D03*
D23*
X126365000Y-79216250D03*
D25*
X125095000Y-81756250D03*
X135255000Y-81756250D03*
%TD*%
D23*
%TO.C,MX1*%
X113665000Y-57626250D03*
D24*
X111125000Y-62706250D03*
D23*
X107315000Y-60166250D03*
D25*
X106045000Y-62706250D03*
X116205000Y-62706250D03*
%TD*%
M02*
