%TF.GenerationSoftware,KiCad,Pcbnew,(5.1.9)-1*%
%TF.CreationDate,2021-04-14T21:31:02+02:00*%
%TF.ProjectId,Neopad,4e656f70-6164-42e6-9b69-6361645f7063,rev?*%
%TF.SameCoordinates,Original*%
%TF.FileFunction,Profile,NP*%
%FSLAX46Y46*%
G04 Gerber Fmt 4.6, Leading zero omitted, Abs format (unit mm)*
G04 Created by KiCad (PCBNEW (5.1.9)-1) date 2021-04-14 21:31:02*
%MOMM*%
%LPD*%
G01*
G04 APERTURE LIST*
%TA.AperFunction,Profile*%
%ADD10C,0.050000*%
%TD*%
G04 APERTURE END LIST*
D10*
X134620000Y-94488000D02*
X134905750Y-95250000D01*
X133604000Y-94488000D02*
X133318250Y-95250000D01*
X134905750Y-93662500D02*
X134620000Y-94488000D01*
X133318250Y-93662500D02*
X133604000Y-94488000D01*
X117983000Y-94488000D02*
X118268750Y-95250000D01*
X116967000Y-94488000D02*
X116681250Y-95250000D01*
X116681250Y-93662500D02*
X116967000Y-94488000D01*
X118268750Y-93662500D02*
X117983000Y-94488000D01*
X101219000Y-94488000D02*
X101504750Y-95250000D01*
X100203000Y-94488000D02*
X99917250Y-95250000D01*
X99917250Y-93662500D02*
X100203000Y-94488000D01*
X101504750Y-93662500D02*
X101219000Y-94488000D01*
X81534000Y-94488000D02*
X81819750Y-95250000D01*
X80518000Y-94488000D02*
X80232250Y-95250000D01*
X80232250Y-93662500D02*
X80518000Y-94488000D01*
X81819750Y-93662500D02*
X81534000Y-94488000D01*
X64897000Y-94488000D02*
X65182750Y-95250000D01*
X65182750Y-93662500D02*
X64897000Y-94488000D01*
X63881000Y-94488000D02*
X63595250Y-95250000D01*
X63595250Y-93662500D02*
X63881000Y-94488000D01*
X48133000Y-94488000D02*
X48418750Y-95250000D01*
X48418750Y-93662500D02*
X48133000Y-94488000D01*
X47117000Y-94488000D02*
X46831250Y-95250000D01*
X46831250Y-93662500D02*
X47117000Y-94488000D01*
X99917250Y-93662500D02*
X81819750Y-93662500D01*
X81819750Y-95250000D02*
X99917250Y-95250000D01*
X101504750Y-95250000D02*
X116681250Y-95250000D01*
X116681250Y-93662500D02*
X101504750Y-93662500D01*
X118268750Y-95250000D02*
X133318250Y-95250000D01*
X133318250Y-93662500D02*
X118268750Y-93662500D01*
X80232250Y-93662500D02*
X65182750Y-93662500D01*
X65182750Y-95250000D02*
X80232250Y-95250000D01*
X63595250Y-93662500D02*
X48418750Y-93662500D01*
X48418750Y-95250000D02*
X63595250Y-95250000D01*
X134905750Y-93662500D02*
X138906250Y-93662500D01*
X138906250Y-95250000D02*
X134905750Y-95250000D01*
X46831250Y-95250000D02*
X42862500Y-95250000D01*
X42862500Y-93662500D02*
X46831250Y-93662500D01*
X140493750Y-136525000D02*
X140493750Y-96837500D01*
X138906250Y-95250000D02*
G75*
G02*
X140493750Y-96837500I0J-1587500D01*
G01*
X41275000Y-96837500D02*
G75*
G02*
X42862500Y-95250000I1587500J0D01*
G01*
X140493750Y-136525000D02*
G75*
G02*
X138906250Y-138112500I-1587500J0D01*
G01*
X41275000Y-96837500D02*
X41275000Y-136525000D01*
X138906250Y-138112500D02*
X42862500Y-138112500D01*
X42862500Y-138112500D02*
G75*
G02*
X41275000Y-136525000I0J1587500D01*
G01*
X42862500Y-93662500D02*
G75*
G02*
X41275000Y-92075000I0J1587500D01*
G01*
X41275000Y-52387500D02*
G75*
G02*
X42862500Y-50800000I1587500J0D01*
G01*
X138906250Y-50800000D02*
G75*
G02*
X140493750Y-52387500I0J-1587500D01*
G01*
X140493750Y-92075000D02*
G75*
G02*
X138906250Y-93662500I-1587500J0D01*
G01*
X41275000Y-52387500D02*
X41275000Y-92075000D01*
X138906250Y-50800000D02*
X42862500Y-50800000D01*
X140493750Y-92075000D02*
X140493750Y-52387500D01*
M02*
