%TF.GenerationSoftware,KiCad,Pcbnew,(5.1.9)-1*%
%TF.CreationDate,2021-06-03T20:52:14+02:00*%
%TF.ProjectId,Neopad,4e656f70-6164-42e6-9b69-6361645f7063,rev?*%
%TF.SameCoordinates,Original*%
%TF.FileFunction,Soldermask,Top*%
%TF.FilePolarity,Negative*%
%FSLAX46Y46*%
G04 Gerber Fmt 4.6, Leading zero omitted, Abs format (unit mm)*
G04 Created by KiCad (PCBNEW (5.1.9)-1) date 2021-06-03 20:52:14*
%MOMM*%
%LPD*%
G01*
G04 APERTURE LIST*
%ADD10C,0.500000*%
%ADD11O,1.400000X1.400000*%
%ADD12C,1.400000*%
%ADD13R,1.752600X1.752600*%
%ADD14C,1.752600*%
%ADD15C,2.000000*%
%ADD16C,0.100000*%
%ADD17C,3.300000*%
%ADD18R,2.000000X3.200000*%
%ADD19R,2.000000X2.000000*%
%ADD20R,1.800000X1.800000*%
%ADD21C,1.800000*%
%ADD22C,3.987800*%
%ADD23C,1.750000*%
G04 APERTURE END LIST*
D10*
%TO.C,mouse-bite-2.54mm-slot*%
X118999000Y-96032500D03*
X115951000Y-96032500D03*
X118999000Y-93832500D03*
X115951000Y-93832500D03*
X117475000Y-93832500D03*
X117475000Y-96032500D03*
X118237000Y-93832500D03*
X116713000Y-93832500D03*
X116713000Y-96032500D03*
X118237000Y-96032500D03*
X115189000Y-93832500D03*
X115189000Y-96032500D03*
X119761000Y-93832500D03*
X119761000Y-96032500D03*
%TD*%
%TO.C,mouse-bite-2.54mm-slot*%
X66738500Y-96032500D03*
X66738500Y-93832500D03*
X62166500Y-96032500D03*
X62166500Y-93832500D03*
X65214500Y-96032500D03*
X63690500Y-96032500D03*
X63690500Y-93832500D03*
X65214500Y-93832500D03*
X64452500Y-96032500D03*
X64452500Y-93832500D03*
X62928500Y-93832500D03*
X65976500Y-93832500D03*
X62928500Y-96032500D03*
X65976500Y-96032500D03*
%TD*%
D11*
%TO.C,R2*%
X68199000Y-80899000D03*
D12*
X68199000Y-88519000D03*
%TD*%
D11*
%TO.C,R1*%
X64389000Y-80899000D03*
D12*
X64389000Y-88519000D03*
%TD*%
D13*
%TO.C,U1*%
X42926000Y-59055000D03*
D14*
X42926000Y-61595000D03*
X42926000Y-64135000D03*
X42926000Y-66675000D03*
X42926000Y-69215000D03*
X42926000Y-71755000D03*
X42926000Y-74295000D03*
X42926000Y-76835000D03*
X42926000Y-79375000D03*
X42926000Y-81915000D03*
X42926000Y-84455000D03*
X58166000Y-86995000D03*
X58166000Y-84455000D03*
X58166000Y-81915000D03*
X58166000Y-79375000D03*
X58166000Y-76835000D03*
X58166000Y-74295000D03*
X58166000Y-71755000D03*
X58166000Y-69215000D03*
X58166000Y-66675000D03*
X58166000Y-64135000D03*
X58166000Y-61595000D03*
X42926000Y-86995000D03*
X58166000Y-59055000D03*
%TD*%
D15*
%TO.C,SW2*%
X69850000Y-59467750D03*
X69850000Y-63967750D03*
X63350000Y-59467750D03*
X63350000Y-63967750D03*
%TD*%
%TO.C,D8*%
G36*
G01*
X79371469Y-87213719D02*
X79371469Y-87213719D01*
G75*
G02*
X80502839Y-87213719I565685J-565685D01*
G01*
X80502839Y-87213719D01*
G75*
G02*
X80502839Y-88345089I-565685J-565685D01*
G01*
X80502839Y-88345089D01*
G75*
G02*
X79371469Y-88345089I-565685J565685D01*
G01*
X79371469Y-88345089D01*
G75*
G02*
X79371469Y-87213719I565685J565685D01*
G01*
G37*
D16*
G36*
X73417629Y-82391250D02*
G01*
X74549000Y-81259879D01*
X75680371Y-82391250D01*
X74549000Y-83522621D01*
X73417629Y-82391250D01*
G37*
%TD*%
%TO.C,D7*%
G36*
G01*
X79371469Y-82451219D02*
X79371469Y-82451219D01*
G75*
G02*
X80502839Y-82451219I565685J-565685D01*
G01*
X80502839Y-82451219D01*
G75*
G02*
X80502839Y-83582589I-565685J-565685D01*
G01*
X80502839Y-83582589D01*
G75*
G02*
X79371469Y-83582589I-565685J565685D01*
G01*
X79371469Y-83582589D01*
G75*
G02*
X79371469Y-82451219I565685J565685D01*
G01*
G37*
G36*
X73417629Y-77628750D02*
G01*
X74549000Y-76497379D01*
X75680371Y-77628750D01*
X74549000Y-78760121D01*
X73417629Y-77628750D01*
G37*
%TD*%
%TO.C,D6*%
G36*
G01*
X79371469Y-77688719D02*
X79371469Y-77688719D01*
G75*
G02*
X80502839Y-77688719I565685J-565685D01*
G01*
X80502839Y-77688719D01*
G75*
G02*
X80502839Y-78820089I-565685J-565685D01*
G01*
X80502839Y-78820089D01*
G75*
G02*
X79371469Y-78820089I-565685J565685D01*
G01*
X79371469Y-78820089D01*
G75*
G02*
X79371469Y-77688719I565685J565685D01*
G01*
G37*
G36*
X73417629Y-72866250D02*
G01*
X74549000Y-71734879D01*
X75680371Y-72866250D01*
X74549000Y-73997621D01*
X73417629Y-72866250D01*
G37*
%TD*%
%TO.C,D3*%
G36*
G01*
X79371469Y-72926219D02*
X79371469Y-72926219D01*
G75*
G02*
X80502839Y-72926219I565685J-565685D01*
G01*
X80502839Y-72926219D01*
G75*
G02*
X80502839Y-74057589I-565685J-565685D01*
G01*
X80502839Y-74057589D01*
G75*
G02*
X79371469Y-74057589I-565685J565685D01*
G01*
X79371469Y-74057589D01*
G75*
G02*
X79371469Y-72926219I565685J565685D01*
G01*
G37*
G36*
X73417629Y-68103750D02*
G01*
X74549000Y-66972379D01*
X75680371Y-68103750D01*
X74549000Y-69235121D01*
X73417629Y-68103750D01*
G37*
%TD*%
%TO.C,D2*%
G36*
G01*
X79371469Y-68163719D02*
X79371469Y-68163719D01*
G75*
G02*
X80502839Y-68163719I565685J-565685D01*
G01*
X80502839Y-68163719D01*
G75*
G02*
X80502839Y-69295089I-565685J-565685D01*
G01*
X80502839Y-69295089D01*
G75*
G02*
X79371469Y-69295089I-565685J565685D01*
G01*
X79371469Y-69295089D01*
G75*
G02*
X79371469Y-68163719I565685J565685D01*
G01*
G37*
G36*
X73417629Y-63341250D02*
G01*
X74549000Y-62209879D01*
X75680371Y-63341250D01*
X74549000Y-64472621D01*
X73417629Y-63341250D01*
G37*
%TD*%
%TO.C,D1*%
G36*
X73417629Y-58578750D02*
G01*
X74549000Y-57447379D01*
X75680371Y-58578750D01*
X74549000Y-59710121D01*
X73417629Y-58578750D01*
G37*
G36*
G01*
X79371469Y-63401219D02*
X79371469Y-63401219D01*
G75*
G02*
X80502839Y-63401219I565685J-565685D01*
G01*
X80502839Y-63401219D01*
G75*
G02*
X80502839Y-64532589I-565685J-565685D01*
G01*
X80502839Y-64532589D01*
G75*
G02*
X79371469Y-64532589I-565685J565685D01*
G01*
X79371469Y-64532589D01*
G75*
G02*
X79371469Y-63401219I565685J565685D01*
G01*
G37*
%TD*%
D17*
%TO.C,H8*%
X138112500Y-136683750D03*
%TD*%
%TO.C,H7*%
X138112500Y-98583750D03*
%TD*%
%TO.C,H6*%
X43656250Y-136683750D03*
%TD*%
%TO.C,H5*%
X43656250Y-98583750D03*
%TD*%
D15*
%TO.C,SW3*%
X89456250Y-70062500D03*
X94456250Y-70062500D03*
D18*
X86356250Y-63062500D03*
X97556250Y-63062500D03*
D15*
X89456250Y-55562500D03*
X91956250Y-55562500D03*
D19*
X94456250Y-55562500D03*
%TD*%
D15*
%TO.C,SW1*%
X127556250Y-70062500D03*
X132556250Y-70062500D03*
D18*
X124456250Y-63062500D03*
X135656250Y-63062500D03*
D15*
X127556250Y-55562500D03*
X130056250Y-55562500D03*
D19*
X132556250Y-55562500D03*
%TD*%
D20*
%TO.C,D5*%
X64928750Y-74549000D03*
D21*
X67468750Y-74549000D03*
%TD*%
D20*
%TO.C,D4*%
X67468750Y-69786500D03*
D21*
X64928750Y-69786500D03*
%TD*%
D17*
%TO.C,H4*%
X138112500Y-53181250D03*
%TD*%
%TO.C,H3*%
X43656250Y-53181250D03*
%TD*%
%TO.C,H2*%
X138112500Y-91281250D03*
%TD*%
%TO.C,H1*%
X43656250Y-91281250D03*
%TD*%
D22*
%TO.C,MX2*%
X92075000Y-81756250D03*
D23*
X86995000Y-81756250D03*
X97155000Y-81756250D03*
%TD*%
D22*
%TO.C,MX3*%
X111125000Y-81756250D03*
D23*
X106045000Y-81756250D03*
X116205000Y-81756250D03*
%TD*%
D22*
%TO.C,MX4*%
X130175000Y-81756250D03*
D23*
X125095000Y-81756250D03*
X135255000Y-81756250D03*
%TD*%
D22*
%TO.C,MX1*%
X111125000Y-62706250D03*
D23*
X106045000Y-62706250D03*
X116205000Y-62706250D03*
%TD*%
M02*
