%TF.GenerationSoftware,KiCad,Pcbnew,(5.1.9)-1*%
%TF.CreationDate,2021-06-03T20:52:14+02:00*%
%TF.ProjectId,Neopad,4e656f70-6164-42e6-9b69-6361645f7063,rev?*%
%TF.SameCoordinates,Original*%
%TF.FileFunction,Profile,NP*%
%FSLAX46Y46*%
G04 Gerber Fmt 4.6, Leading zero omitted, Abs format (unit mm)*
G04 Created by KiCad (PCBNEW (5.1.9)-1) date 2021-06-03 20:52:14*
%MOMM*%
%LPD*%
G01*
G04 APERTURE LIST*
%TA.AperFunction,Profile*%
%ADD10C,0.050000*%
%TD*%
G04 APERTURE END LIST*
D10*
X120967500Y-96202500D02*
G75*
G02*
X120967500Y-93662500I0J1270000D01*
G01*
X113982500Y-93662500D02*
G75*
G02*
X113982500Y-96202500I0J-1270000D01*
G01*
X67945000Y-96202500D02*
G75*
G02*
X67945000Y-93662500I0J1270000D01*
G01*
X60960000Y-93662500D02*
G75*
G02*
X60960000Y-96202500I0J-1270000D01*
G01*
X60960000Y-96202500D02*
X42862500Y-96202500D01*
X113982500Y-96202500D02*
X67945000Y-96202500D01*
X138906250Y-96202500D02*
X120967500Y-96202500D01*
X120967500Y-93662500D02*
X138906250Y-93662500D01*
X67945000Y-93662500D02*
X113982500Y-93662500D01*
X42862500Y-93662500D02*
X60960000Y-93662500D01*
X140493750Y-137477500D02*
X140493750Y-97790000D01*
X138906250Y-96202500D02*
G75*
G02*
X140493750Y-97790000I0J-1587500D01*
G01*
X41275000Y-97790000D02*
G75*
G02*
X42862500Y-96202500I1587500J0D01*
G01*
X140493750Y-137477500D02*
G75*
G02*
X138906250Y-139065000I-1587500J0D01*
G01*
X41275000Y-97790000D02*
X41275000Y-137477500D01*
X138906250Y-139065000D02*
X42862500Y-139065000D01*
X42862500Y-139065000D02*
G75*
G02*
X41275000Y-137477500I0J1587500D01*
G01*
X42862500Y-93662500D02*
G75*
G02*
X41275000Y-92075000I0J1587500D01*
G01*
X41275000Y-52387500D02*
G75*
G02*
X42862500Y-50800000I1587500J0D01*
G01*
X138906250Y-50800000D02*
G75*
G02*
X140493750Y-52387500I0J-1587500D01*
G01*
X140493750Y-92075000D02*
G75*
G02*
X138906250Y-93662500I-1587500J0D01*
G01*
X41275000Y-52387500D02*
X41275000Y-92075000D01*
X138906250Y-50800000D02*
X42862500Y-50800000D01*
X140493750Y-92075000D02*
X140493750Y-52387500D01*
M02*
