M48
; DRILL file {KiCad (5.1.9)-1} date 06/03/21 20:52:16
; FORMAT={-:-/ absolute / metric / decimal}
; #@! TF.CreationDate,2021-06-03T20:52:16+02:00
; #@! TF.GenerationSoftware,Kicad,Pcbnew,(5.1.9)-1
; #@! TF.FileFunction,NonPlated,1,2,NPTH
FMAT,2
METRIC
T1C0.500
T2C1.750
T3C3.988
%
G90
G05
T1
X62.166Y-93.832
X62.166Y-96.032
X62.928Y-93.832
X62.928Y-96.032
X63.691Y-93.832
X63.691Y-96.032
X64.453Y-93.832
X64.453Y-96.032
X65.215Y-93.832
X65.215Y-96.032
X65.977Y-93.832
X65.977Y-96.032
X66.739Y-93.832
X66.739Y-96.032
X115.189Y-93.832
X115.189Y-96.032
X115.951Y-93.832
X115.951Y-96.032
X116.713Y-93.832
X116.713Y-96.032
X117.475Y-93.832
X117.475Y-96.032
X118.237Y-93.832
X118.237Y-96.032
X118.999Y-93.832
X118.999Y-96.032
X119.761Y-93.832
X119.761Y-96.032
T2
X86.995Y-81.756
X97.155Y-81.756
X106.045Y-62.706
X106.045Y-81.756
X116.205Y-62.706
X116.205Y-81.756
X125.095Y-81.756
X135.255Y-81.756
T3
X92.075Y-81.756
X111.125Y-62.706
X111.125Y-81.756
X130.175Y-81.756
T0
M30
