%TF.GenerationSoftware,KiCad,Pcbnew,(5.1.9)-1*%
%TF.CreationDate,2021-06-03T20:52:14+02:00*%
%TF.ProjectId,Neopad,4e656f70-6164-42e6-9b69-6361645f7063,rev?*%
%TF.SameCoordinates,Original*%
%TF.FileFunction,Copper,L2,Bot*%
%TF.FilePolarity,Positive*%
%FSLAX46Y46*%
G04 Gerber Fmt 4.6, Leading zero omitted, Abs format (unit mm)*
G04 Created by KiCad (PCBNEW (5.1.9)-1) date 2021-06-03 20:52:14*
%MOMM*%
%LPD*%
G01*
G04 APERTURE LIST*
%TA.AperFunction,ComponentPad*%
%ADD10O,1.400000X1.400000*%
%TD*%
%TA.AperFunction,ComponentPad*%
%ADD11C,1.400000*%
%TD*%
%TA.AperFunction,ComponentPad*%
%ADD12R,1.752600X1.752600*%
%TD*%
%TA.AperFunction,ComponentPad*%
%ADD13C,1.752600*%
%TD*%
%TA.AperFunction,ComponentPad*%
%ADD14C,2.000000*%
%TD*%
%TA.AperFunction,ComponentPad*%
%ADD15C,0.100000*%
%TD*%
%TA.AperFunction,ComponentPad*%
%ADD16C,3.300000*%
%TD*%
%TA.AperFunction,ComponentPad*%
%ADD17R,2.000000X3.200000*%
%TD*%
%TA.AperFunction,ComponentPad*%
%ADD18R,2.000000X2.000000*%
%TD*%
%TA.AperFunction,ComponentPad*%
%ADD19R,1.800000X1.800000*%
%TD*%
%TA.AperFunction,ComponentPad*%
%ADD20C,1.800000*%
%TD*%
%TA.AperFunction,ComponentPad*%
%ADD21C,2.250000*%
%TD*%
%TA.AperFunction,Conductor*%
%ADD22C,0.381000*%
%TD*%
%TA.AperFunction,Conductor*%
%ADD23C,0.254000*%
%TD*%
%TA.AperFunction,Conductor*%
%ADD24C,0.100000*%
%TD*%
%TA.AperFunction,NonConductor*%
%ADD25C,0.254000*%
%TD*%
%TA.AperFunction,NonConductor*%
%ADD26C,0.100000*%
%TD*%
G04 APERTURE END LIST*
D10*
%TO.P,R2,2*%
%TO.N,Net-(D5-Pad2)*%
X68199000Y-80899000D03*
D11*
%TO.P,R2,1*%
%TO.N,LED1*%
X68199000Y-88519000D03*
%TD*%
D10*
%TO.P,R1,2*%
%TO.N,Net-(D4-Pad2)*%
X64389000Y-80899000D03*
D11*
%TO.P,R1,1*%
%TO.N,LED0*%
X64389000Y-88519000D03*
%TD*%
D12*
%TO.P,U1,1*%
%TO.N,Net-(U1-Pad1)*%
X42926000Y-59055000D03*
D13*
%TO.P,U1,2*%
%TO.N,Net-(U1-Pad2)*%
X42926000Y-61595000D03*
%TO.P,U1,3*%
%TO.N,GND*%
X42926000Y-64135000D03*
%TO.P,U1,4*%
X42926000Y-66675000D03*
%TO.P,U1,5*%
%TO.N,ENC1B*%
X42926000Y-69215000D03*
%TO.P,U1,6*%
%TO.N,ENC1A*%
X42926000Y-71755000D03*
%TO.P,U1,7*%
%TO.N,ENC2B*%
X42926000Y-74295000D03*
%TO.P,U1,8*%
%TO.N,ENC2A*%
X42926000Y-76835000D03*
%TO.P,U1,9*%
%TO.N,Net-(U1-Pad9)*%
X42926000Y-79375000D03*
%TO.P,U1,10*%
%TO.N,Net-(U1-Pad10)*%
X42926000Y-81915000D03*
%TO.P,U1,11*%
%TO.N,Net-(U1-Pad11)*%
X42926000Y-84455000D03*
%TO.P,U1,13*%
%TO.N,COL2*%
X58166000Y-86995000D03*
%TO.P,U1,14*%
%TO.N,COL1*%
X58166000Y-84455000D03*
%TO.P,U1,15*%
%TO.N,COL0*%
X58166000Y-81915000D03*
%TO.P,U1,16*%
%TO.N,Net-(U1-Pad16)*%
X58166000Y-79375000D03*
%TO.P,U1,17*%
%TO.N,LED1*%
X58166000Y-76835000D03*
%TO.P,U1,18*%
%TO.N,LED0*%
X58166000Y-74295000D03*
%TO.P,U1,19*%
%TO.N,ROW1*%
X58166000Y-71755000D03*
%TO.P,U1,20*%
%TO.N,ROW0*%
X58166000Y-69215000D03*
%TO.P,U1,21*%
%TO.N,Net-(U1-Pad21)*%
X58166000Y-66675000D03*
%TO.P,U1,22*%
%TO.N,Net-(SW2-Pad3)*%
X58166000Y-64135000D03*
%TO.P,U1,23*%
%TO.N,GND*%
X58166000Y-61595000D03*
%TO.P,U1,12*%
%TO.N,Net-(U1-Pad12)*%
X42926000Y-86995000D03*
%TO.P,U1,24*%
%TO.N,Net-(U1-Pad24)*%
X58166000Y-59055000D03*
%TD*%
D14*
%TO.P,SW2,2*%
%TO.N,GND*%
X69850000Y-59467750D03*
%TO.P,SW2,4*%
%TO.N,Net-(SW2-Pad4)*%
X69850000Y-63967750D03*
%TO.P,SW2,1*%
%TO.N,Net-(SW2-Pad1)*%
X63350000Y-59467750D03*
%TO.P,SW2,3*%
%TO.N,Net-(SW2-Pad3)*%
X63350000Y-63967750D03*
%TD*%
%TO.P,D8,2*%
%TO.N,Net-(D8-Pad2)*%
%TA.AperFunction,ComponentPad*%
G36*
G01*
X79371469Y-87213719D02*
X79371469Y-87213719D01*
G75*
G02*
X80502839Y-87213719I565685J-565685D01*
G01*
X80502839Y-87213719D01*
G75*
G02*
X80502839Y-88345089I-565685J-565685D01*
G01*
X80502839Y-88345089D01*
G75*
G02*
X79371469Y-88345089I-565685J565685D01*
G01*
X79371469Y-88345089D01*
G75*
G02*
X79371469Y-87213719I565685J565685D01*
G01*
G37*
%TD.AperFunction*%
%TA.AperFunction,ComponentPad*%
D15*
%TO.P,D8,1*%
%TO.N,ROW1*%
G36*
X73417629Y-82391250D02*
G01*
X74549000Y-81259879D01*
X75680371Y-82391250D01*
X74549000Y-83522621D01*
X73417629Y-82391250D01*
G37*
%TD.AperFunction*%
%TD*%
%TO.P,D7,2*%
%TO.N,Net-(D7-Pad2)*%
%TA.AperFunction,ComponentPad*%
G36*
G01*
X79371469Y-82451219D02*
X79371469Y-82451219D01*
G75*
G02*
X80502839Y-82451219I565685J-565685D01*
G01*
X80502839Y-82451219D01*
G75*
G02*
X80502839Y-83582589I-565685J-565685D01*
G01*
X80502839Y-83582589D01*
G75*
G02*
X79371469Y-83582589I-565685J565685D01*
G01*
X79371469Y-83582589D01*
G75*
G02*
X79371469Y-82451219I565685J565685D01*
G01*
G37*
%TD.AperFunction*%
%TA.AperFunction,ComponentPad*%
%TO.P,D7,1*%
%TO.N,ROW1*%
G36*
X73417629Y-77628750D02*
G01*
X74549000Y-76497379D01*
X75680371Y-77628750D01*
X74549000Y-78760121D01*
X73417629Y-77628750D01*
G37*
%TD.AperFunction*%
%TD*%
%TO.P,D6,2*%
%TO.N,Net-(D6-Pad2)*%
%TA.AperFunction,ComponentPad*%
G36*
G01*
X79371469Y-77688719D02*
X79371469Y-77688719D01*
G75*
G02*
X80502839Y-77688719I565685J-565685D01*
G01*
X80502839Y-77688719D01*
G75*
G02*
X80502839Y-78820089I-565685J-565685D01*
G01*
X80502839Y-78820089D01*
G75*
G02*
X79371469Y-78820089I-565685J565685D01*
G01*
X79371469Y-78820089D01*
G75*
G02*
X79371469Y-77688719I565685J565685D01*
G01*
G37*
%TD.AperFunction*%
%TA.AperFunction,ComponentPad*%
%TO.P,D6,1*%
%TO.N,ROW1*%
G36*
X73417629Y-72866250D02*
G01*
X74549000Y-71734879D01*
X75680371Y-72866250D01*
X74549000Y-73997621D01*
X73417629Y-72866250D01*
G37*
%TD.AperFunction*%
%TD*%
%TO.P,D3,2*%
%TO.N,Net-(D3-Pad2)*%
%TA.AperFunction,ComponentPad*%
G36*
G01*
X79371469Y-72926219D02*
X79371469Y-72926219D01*
G75*
G02*
X80502839Y-72926219I565685J-565685D01*
G01*
X80502839Y-72926219D01*
G75*
G02*
X80502839Y-74057589I-565685J-565685D01*
G01*
X80502839Y-74057589D01*
G75*
G02*
X79371469Y-74057589I-565685J565685D01*
G01*
X79371469Y-74057589D01*
G75*
G02*
X79371469Y-72926219I565685J565685D01*
G01*
G37*
%TD.AperFunction*%
%TA.AperFunction,ComponentPad*%
%TO.P,D3,1*%
%TO.N,ROW0*%
G36*
X73417629Y-68103750D02*
G01*
X74549000Y-66972379D01*
X75680371Y-68103750D01*
X74549000Y-69235121D01*
X73417629Y-68103750D01*
G37*
%TD.AperFunction*%
%TD*%
%TO.P,D2,2*%
%TO.N,Net-(D2-Pad2)*%
%TA.AperFunction,ComponentPad*%
G36*
G01*
X79371469Y-68163719D02*
X79371469Y-68163719D01*
G75*
G02*
X80502839Y-68163719I565685J-565685D01*
G01*
X80502839Y-68163719D01*
G75*
G02*
X80502839Y-69295089I-565685J-565685D01*
G01*
X80502839Y-69295089D01*
G75*
G02*
X79371469Y-69295089I-565685J565685D01*
G01*
X79371469Y-69295089D01*
G75*
G02*
X79371469Y-68163719I565685J565685D01*
G01*
G37*
%TD.AperFunction*%
%TA.AperFunction,ComponentPad*%
%TO.P,D2,1*%
%TO.N,ROW0*%
G36*
X73417629Y-63341250D02*
G01*
X74549000Y-62209879D01*
X75680371Y-63341250D01*
X74549000Y-64472621D01*
X73417629Y-63341250D01*
G37*
%TD.AperFunction*%
%TD*%
%TA.AperFunction,ComponentPad*%
%TO.P,D1,1*%
%TO.N,ROW0*%
G36*
X73417629Y-58578750D02*
G01*
X74549000Y-57447379D01*
X75680371Y-58578750D01*
X74549000Y-59710121D01*
X73417629Y-58578750D01*
G37*
%TD.AperFunction*%
%TO.P,D1,2*%
%TO.N,Net-(D1-Pad2)*%
%TA.AperFunction,ComponentPad*%
G36*
G01*
X79371469Y-63401219D02*
X79371469Y-63401219D01*
G75*
G02*
X80502839Y-63401219I565685J-565685D01*
G01*
X80502839Y-63401219D01*
G75*
G02*
X80502839Y-64532589I-565685J-565685D01*
G01*
X80502839Y-64532589D01*
G75*
G02*
X79371469Y-64532589I-565685J565685D01*
G01*
X79371469Y-64532589D01*
G75*
G02*
X79371469Y-63401219I565685J565685D01*
G01*
G37*
%TD.AperFunction*%
%TD*%
D16*
%TO.P,H8,1*%
%TO.N,N/C*%
X138112500Y-136683750D03*
%TD*%
%TO.P,H7,1*%
%TO.N,N/C*%
X138112500Y-98583750D03*
%TD*%
%TO.P,H6,1*%
%TO.N,N/C*%
X43656250Y-136683750D03*
%TD*%
%TO.P,H5,1*%
%TO.N,N/C*%
X43656250Y-98583750D03*
%TD*%
D14*
%TO.P,SW3,S2*%
%TO.N,Net-(D1-Pad2)*%
X89456250Y-70062500D03*
%TO.P,SW3,S1*%
%TO.N,COL0*%
X94456250Y-70062500D03*
D17*
%TO.P,SW3,MP*%
%TO.N,N/C*%
X86356250Y-63062500D03*
X97556250Y-63062500D03*
D14*
%TO.P,SW3,B*%
%TO.N,ENC1B*%
X89456250Y-55562500D03*
%TO.P,SW3,C*%
%TO.N,GND*%
X91956250Y-55562500D03*
D18*
%TO.P,SW3,A*%
%TO.N,ENC1A*%
X94456250Y-55562500D03*
%TD*%
D14*
%TO.P,SW1,S2*%
%TO.N,Net-(D3-Pad2)*%
X127556250Y-70062500D03*
%TO.P,SW1,S1*%
%TO.N,COL2*%
X132556250Y-70062500D03*
D17*
%TO.P,SW1,MP*%
%TO.N,N/C*%
X124456250Y-63062500D03*
X135656250Y-63062500D03*
D14*
%TO.P,SW1,B*%
%TO.N,ENC2B*%
X127556250Y-55562500D03*
%TO.P,SW1,C*%
%TO.N,GND*%
X130056250Y-55562500D03*
D18*
%TO.P,SW1,A*%
%TO.N,ENC2A*%
X132556250Y-55562500D03*
%TD*%
D19*
%TO.P,D5,1*%
%TO.N,GND*%
X64928750Y-74549000D03*
D20*
%TO.P,D5,2*%
%TO.N,Net-(D5-Pad2)*%
X67468750Y-74549000D03*
%TD*%
D19*
%TO.P,D4,1*%
%TO.N,GND*%
X67468750Y-69786500D03*
D20*
%TO.P,D4,2*%
%TO.N,Net-(D4-Pad2)*%
X64928750Y-69786500D03*
%TD*%
D16*
%TO.P,H4,1*%
%TO.N,N/C*%
X138112500Y-53181250D03*
%TD*%
%TO.P,H3,1*%
%TO.N,N/C*%
X43656250Y-53181250D03*
%TD*%
%TO.P,H2,1*%
%TO.N,N/C*%
X138112500Y-91281250D03*
%TD*%
%TO.P,H1,1*%
%TO.N,N/C*%
X43656250Y-91281250D03*
%TD*%
D21*
%TO.P,MX2,1*%
%TO.N,COL0*%
X94615000Y-76676250D03*
%TO.P,MX2,2*%
%TO.N,Net-(D6-Pad2)*%
X88265000Y-79216250D03*
%TD*%
%TO.P,MX3,1*%
%TO.N,COL1*%
X113665000Y-76676250D03*
%TO.P,MX3,2*%
%TO.N,Net-(D7-Pad2)*%
X107315000Y-79216250D03*
%TD*%
%TO.P,MX4,1*%
%TO.N,COL2*%
X132715000Y-76676250D03*
%TO.P,MX4,2*%
%TO.N,Net-(D8-Pad2)*%
X126365000Y-79216250D03*
%TD*%
%TO.P,MX1,1*%
%TO.N,COL1*%
X113665000Y-57626250D03*
%TO.P,MX1,2*%
%TO.N,Net-(D2-Pad2)*%
X107315000Y-60166250D03*
%TD*%
D22*
%TO.N,GND*%
X91956250Y-55765402D02*
X91956250Y-55562500D01*
D23*
%TO.N,COL1*%
X113665000Y-57626250D02*
X113665000Y-76676250D01*
X111948057Y-91322510D02*
X113665000Y-89605567D01*
X63458740Y-91322510D02*
X111948057Y-91322510D01*
X58166000Y-84455000D02*
X60229750Y-86518750D01*
X60229750Y-88093520D02*
X63458740Y-91322510D01*
X60229750Y-86518750D02*
X60229750Y-88093520D01*
X113665000Y-78422500D02*
X113665000Y-76676250D01*
X113665000Y-78263750D02*
X113665000Y-78422500D01*
X113665000Y-78422500D02*
X113665000Y-89605567D01*
%TO.N,COL0*%
X94456250Y-76517500D02*
X94615000Y-76676250D01*
X94456250Y-70062500D02*
X94456250Y-76517500D01*
X93345000Y-90868500D02*
X63881000Y-90868500D01*
X94615000Y-89598500D02*
X93345000Y-90868500D01*
X58166000Y-81915000D02*
X61398523Y-85147523D01*
X61398523Y-88386023D02*
X63881000Y-90868500D01*
X61398523Y-85147523D02*
X61398523Y-88386023D01*
X94615000Y-78422500D02*
X94615000Y-89598500D01*
X94615000Y-78422500D02*
X94615000Y-76676250D01*
%TO.N,COL2*%
X133350000Y-76041250D02*
X132715000Y-76676250D01*
X132556250Y-76517500D02*
X132715000Y-76676250D01*
X132556250Y-70062500D02*
X132556250Y-76517500D01*
X132715000Y-78263750D02*
X132715000Y-76676250D01*
X132715000Y-89471500D02*
X132715000Y-78263750D01*
X130409980Y-91776520D02*
X132715000Y-89471500D01*
X62947520Y-91776520D02*
X130409980Y-91776520D01*
X58166000Y-86995000D02*
X62947520Y-91776520D01*
%TO.N,ENC2A*%
X133350000Y-55562500D02*
X133350000Y-55372000D01*
X50927000Y-76835000D02*
X42926000Y-76835000D01*
X55118000Y-72644000D02*
X50927000Y-76835000D01*
X55118000Y-58801000D02*
X55118000Y-72644000D01*
X82296000Y-59309000D02*
X79629000Y-56642000D01*
X101854000Y-59309000D02*
X82296000Y-59309000D01*
X79629000Y-56642000D02*
X57277000Y-56642000D01*
X105537000Y-55626000D02*
X101854000Y-59309000D01*
X115443000Y-55626000D02*
X105537000Y-55626000D01*
X118745000Y-58928000D02*
X115443000Y-55626000D01*
X131540250Y-58928000D02*
X118745000Y-58928000D01*
X132556250Y-57912000D02*
X131540250Y-58928000D01*
X57277000Y-56642000D02*
X55118000Y-58801000D01*
X132556250Y-55562500D02*
X132556250Y-57912000D01*
%TO.N,ENC2B*%
X119189500Y-55562500D02*
X118237000Y-54610000D01*
X118237000Y-54610000D02*
X104394000Y-54610000D01*
X104394000Y-54610000D02*
X100711000Y-58293000D01*
X57088943Y-56187990D02*
X79817056Y-56187990D01*
X54610000Y-58666934D02*
X57088943Y-56187990D01*
X81922066Y-58293000D02*
X100711000Y-58293000D01*
X79817056Y-56187990D02*
X81922066Y-58293000D01*
X42926000Y-74295000D02*
X50927000Y-74295000D01*
X50927000Y-74295000D02*
X54610000Y-70612000D01*
X54610000Y-70612000D02*
X54610000Y-58666934D01*
X119189500Y-55562500D02*
X127556250Y-55562500D01*
%TO.N,ENC1A*%
X94456250Y-55562500D02*
X94456250Y-55340250D01*
X94456250Y-55562500D02*
X94424500Y-55562500D01*
X92614750Y-57404000D02*
X94456250Y-55562500D01*
X80271066Y-55999934D02*
X81675132Y-57404000D01*
X80005113Y-55733980D02*
X80271066Y-55999934D01*
X56900886Y-55733980D02*
X80005113Y-55733980D01*
X54155990Y-58478877D02*
X56900886Y-55733980D01*
X54155990Y-68653010D02*
X54155990Y-58478877D01*
X81675132Y-57404000D02*
X92614750Y-57404000D01*
X51054000Y-71755000D02*
X54155990Y-68653010D01*
X42926000Y-71755000D02*
X51054000Y-71755000D01*
%TO.N,ENC1B*%
X89173720Y-55279970D02*
X89456250Y-55562500D01*
X56712829Y-55279970D02*
X89173720Y-55279970D01*
X53701980Y-58290820D02*
X56712829Y-55279970D01*
X42926000Y-69215000D02*
X50927000Y-69215000D01*
X53701980Y-66440020D02*
X53701980Y-58290820D01*
X50927000Y-69215000D02*
X53701980Y-66440020D01*
%TO.N,Net-(SW2-Pad3)*%
X63182750Y-64135000D02*
X63350000Y-63967750D01*
X58166000Y-64135000D02*
X63182750Y-64135000D01*
%TD*%
%TO.N,GND*%
X136337625Y-51724647D02*
X136087559Y-52098897D01*
X135915311Y-52514740D01*
X135827500Y-52956197D01*
X135827500Y-53406303D01*
X135915311Y-53847760D01*
X136087559Y-54263603D01*
X136337625Y-54637853D01*
X136655897Y-54956125D01*
X137030147Y-55206191D01*
X137445990Y-55378439D01*
X137887447Y-55466250D01*
X138337553Y-55466250D01*
X138779010Y-55378439D01*
X139194853Y-55206191D01*
X139569103Y-54956125D01*
X139573000Y-54952228D01*
X139573000Y-89510272D01*
X139569103Y-89506375D01*
X139194853Y-89256309D01*
X138779010Y-89084061D01*
X138337553Y-88996250D01*
X137887447Y-88996250D01*
X137445990Y-89084061D01*
X137030147Y-89256309D01*
X136655897Y-89506375D01*
X136337625Y-89824647D01*
X136087559Y-90198897D01*
X135915311Y-90614740D01*
X135827500Y-91056197D01*
X135827500Y-91506303D01*
X135915311Y-91947760D01*
X136087559Y-92363603D01*
X136337625Y-92737853D01*
X136341522Y-92741750D01*
X45427228Y-92741750D01*
X45431125Y-92737853D01*
X45681191Y-92363603D01*
X45853439Y-91947760D01*
X45941250Y-91506303D01*
X45941250Y-91056197D01*
X45853439Y-90614740D01*
X45681191Y-90198897D01*
X45431125Y-89824647D01*
X45112853Y-89506375D01*
X44738603Y-89256309D01*
X44322760Y-89084061D01*
X43881303Y-88996250D01*
X43431197Y-88996250D01*
X42989740Y-89084061D01*
X42573897Y-89256309D01*
X42199647Y-89506375D01*
X42195750Y-89510272D01*
X42195750Y-88324688D01*
X42210131Y-88334297D01*
X42485170Y-88448222D01*
X42777150Y-88506300D01*
X43074850Y-88506300D01*
X43366830Y-88448222D01*
X43641869Y-88334297D01*
X43889398Y-88168904D01*
X44099904Y-87958398D01*
X44265297Y-87710869D01*
X44379222Y-87435830D01*
X44437300Y-87143850D01*
X44437300Y-86846150D01*
X44379222Y-86554170D01*
X44265297Y-86279131D01*
X44099904Y-86031602D01*
X43889398Y-85821096D01*
X43745580Y-85725000D01*
X43889398Y-85628904D01*
X44099904Y-85418398D01*
X44265297Y-85170869D01*
X44379222Y-84895830D01*
X44437300Y-84603850D01*
X44437300Y-84306150D01*
X44379222Y-84014170D01*
X44265297Y-83739131D01*
X44099904Y-83491602D01*
X43889398Y-83281096D01*
X43745580Y-83185000D01*
X43889398Y-83088904D01*
X44099904Y-82878398D01*
X44265297Y-82630869D01*
X44379222Y-82355830D01*
X44437300Y-82063850D01*
X44437300Y-81766150D01*
X44379222Y-81474170D01*
X44265297Y-81199131D01*
X44099904Y-80951602D01*
X43889398Y-80741096D01*
X43745580Y-80645000D01*
X43889398Y-80548904D01*
X44099904Y-80338398D01*
X44265297Y-80090869D01*
X44379222Y-79815830D01*
X44437300Y-79523850D01*
X44437300Y-79226150D01*
X44379222Y-78934170D01*
X44265297Y-78659131D01*
X44099904Y-78411602D01*
X43889398Y-78201096D01*
X43745580Y-78105000D01*
X43889398Y-78008904D01*
X44099904Y-77798398D01*
X44234473Y-77597000D01*
X50889577Y-77597000D01*
X50927000Y-77600686D01*
X50964423Y-77597000D01*
X50964426Y-77597000D01*
X51076378Y-77585974D01*
X51220015Y-77542402D01*
X51352392Y-77471645D01*
X51468422Y-77376422D01*
X51492284Y-77347346D01*
X55630352Y-73209279D01*
X55659422Y-73185422D01*
X55754645Y-73069392D01*
X55825402Y-72937015D01*
X55868974Y-72793378D01*
X55880000Y-72681426D01*
X55880000Y-72681424D01*
X55883686Y-72644001D01*
X55880000Y-72606578D01*
X55880000Y-61662491D01*
X56648887Y-61662491D01*
X56691204Y-61957167D01*
X56790198Y-62237927D01*
X56867071Y-62381746D01*
X57118831Y-62462563D01*
X57986395Y-61595000D01*
X58345605Y-61595000D01*
X59213169Y-62462563D01*
X59464929Y-62381746D01*
X59593457Y-62113221D01*
X59667129Y-61824781D01*
X59683113Y-61527509D01*
X59673778Y-61462500D01*
X84718178Y-61462500D01*
X84718178Y-64662500D01*
X84730438Y-64786982D01*
X84766748Y-64906680D01*
X84825713Y-65016994D01*
X84905065Y-65113685D01*
X85001756Y-65193037D01*
X85112070Y-65252002D01*
X85231768Y-65288312D01*
X85356250Y-65300572D01*
X87356250Y-65300572D01*
X87480732Y-65288312D01*
X87600430Y-65252002D01*
X87710744Y-65193037D01*
X87807435Y-65113685D01*
X87886787Y-65016994D01*
X87945752Y-64906680D01*
X87982062Y-64786982D01*
X87994322Y-64662500D01*
X87994322Y-61462500D01*
X95918178Y-61462500D01*
X95918178Y-64662500D01*
X95930438Y-64786982D01*
X95966748Y-64906680D01*
X96025713Y-65016994D01*
X96105065Y-65113685D01*
X96201756Y-65193037D01*
X96312070Y-65252002D01*
X96431768Y-65288312D01*
X96556250Y-65300572D01*
X98556250Y-65300572D01*
X98680732Y-65288312D01*
X98800430Y-65252002D01*
X98910744Y-65193037D01*
X99007435Y-65113685D01*
X99086787Y-65016994D01*
X99145752Y-64906680D01*
X99182062Y-64786982D01*
X99194322Y-64662500D01*
X99194322Y-62557528D01*
X104535000Y-62557528D01*
X104535000Y-62854972D01*
X104593029Y-63146701D01*
X104706856Y-63421503D01*
X104872107Y-63668819D01*
X105082431Y-63879143D01*
X105329747Y-64044394D01*
X105604549Y-64158221D01*
X105896278Y-64216250D01*
X106193722Y-64216250D01*
X106485451Y-64158221D01*
X106760253Y-64044394D01*
X107007569Y-63879143D01*
X107217893Y-63668819D01*
X107383144Y-63421503D01*
X107496971Y-63146701D01*
X107555000Y-62854972D01*
X107555000Y-62557528D01*
X107496971Y-62265799D01*
X107383144Y-61990997D01*
X107339882Y-61926250D01*
X107488345Y-61926250D01*
X107828373Y-61858614D01*
X108148673Y-61725942D01*
X108436935Y-61533331D01*
X108682081Y-61288185D01*
X108874692Y-60999923D01*
X109007364Y-60679623D01*
X109075000Y-60339595D01*
X109075000Y-59992905D01*
X109007364Y-59652877D01*
X108874692Y-59332577D01*
X108682081Y-59044315D01*
X108436935Y-58799169D01*
X108148673Y-58606558D01*
X107828373Y-58473886D01*
X107488345Y-58406250D01*
X107141655Y-58406250D01*
X106801627Y-58473886D01*
X106481327Y-58606558D01*
X106193065Y-58799169D01*
X105947919Y-59044315D01*
X105755308Y-59332577D01*
X105622636Y-59652877D01*
X105555000Y-59992905D01*
X105555000Y-60339595D01*
X105622636Y-60679623D01*
X105755308Y-60999923D01*
X105887638Y-61197969D01*
X105604549Y-61254279D01*
X105329747Y-61368106D01*
X105082431Y-61533357D01*
X104872107Y-61743681D01*
X104706856Y-61990997D01*
X104593029Y-62265799D01*
X104535000Y-62557528D01*
X99194322Y-62557528D01*
X99194322Y-61462500D01*
X99182062Y-61338018D01*
X99145752Y-61218320D01*
X99086787Y-61108006D01*
X99007435Y-61011315D01*
X98910744Y-60931963D01*
X98800430Y-60872998D01*
X98680732Y-60836688D01*
X98556250Y-60824428D01*
X96556250Y-60824428D01*
X96431768Y-60836688D01*
X96312070Y-60872998D01*
X96201756Y-60931963D01*
X96105065Y-61011315D01*
X96025713Y-61108006D01*
X95966748Y-61218320D01*
X95930438Y-61338018D01*
X95918178Y-61462500D01*
X87994322Y-61462500D01*
X87982062Y-61338018D01*
X87945752Y-61218320D01*
X87886787Y-61108006D01*
X87807435Y-61011315D01*
X87710744Y-60931963D01*
X87600430Y-60872998D01*
X87480732Y-60836688D01*
X87356250Y-60824428D01*
X85356250Y-60824428D01*
X85231768Y-60836688D01*
X85112070Y-60872998D01*
X85001756Y-60931963D01*
X84905065Y-61011315D01*
X84825713Y-61108006D01*
X84766748Y-61218320D01*
X84730438Y-61338018D01*
X84718178Y-61462500D01*
X59673778Y-61462500D01*
X59640796Y-61232833D01*
X59541802Y-60952073D01*
X59464929Y-60808254D01*
X59213169Y-60727437D01*
X58345605Y-61595000D01*
X57986395Y-61595000D01*
X57118831Y-60727437D01*
X56867071Y-60808254D01*
X56738543Y-61076779D01*
X56664871Y-61365219D01*
X56648887Y-61662491D01*
X55880000Y-61662491D01*
X55880000Y-59116630D01*
X56090480Y-58906150D01*
X56654700Y-58906150D01*
X56654700Y-59203850D01*
X56712778Y-59495830D01*
X56826703Y-59770869D01*
X56992096Y-60018398D01*
X57202602Y-60228904D01*
X57365809Y-60337955D01*
X57298437Y-60547831D01*
X58166000Y-61415395D01*
X59033563Y-60547831D01*
X58966191Y-60337955D01*
X59129398Y-60228904D01*
X59339904Y-60018398D01*
X59505297Y-59770869D01*
X59619222Y-59495830D01*
X59656838Y-59306717D01*
X61715000Y-59306717D01*
X61715000Y-59628783D01*
X61777832Y-59944662D01*
X61901082Y-60242213D01*
X62080013Y-60510002D01*
X62307748Y-60737737D01*
X62575537Y-60916668D01*
X62873088Y-61039918D01*
X63188967Y-61102750D01*
X63511033Y-61102750D01*
X63826912Y-61039918D01*
X64124463Y-60916668D01*
X64392252Y-60737737D01*
X64526826Y-60603163D01*
X68894192Y-60603163D01*
X68989956Y-60867564D01*
X69279571Y-61008454D01*
X69591108Y-61090134D01*
X69912595Y-61109468D01*
X70231675Y-61065711D01*
X70536088Y-60960545D01*
X70710044Y-60867564D01*
X70805808Y-60603163D01*
X69850000Y-59647355D01*
X68894192Y-60603163D01*
X64526826Y-60603163D01*
X64619987Y-60510002D01*
X64798918Y-60242213D01*
X64922168Y-59944662D01*
X64985000Y-59628783D01*
X64985000Y-59530345D01*
X68208282Y-59530345D01*
X68252039Y-59849425D01*
X68357205Y-60153838D01*
X68450186Y-60327794D01*
X68714587Y-60423558D01*
X69670395Y-59467750D01*
X70029605Y-59467750D01*
X70985413Y-60423558D01*
X71249814Y-60327794D01*
X71390704Y-60038179D01*
X71472384Y-59726642D01*
X71491718Y-59405155D01*
X71447961Y-59086075D01*
X71342795Y-58781662D01*
X71249814Y-58607706D01*
X70985413Y-58511942D01*
X70029605Y-59467750D01*
X69670395Y-59467750D01*
X68714587Y-58511942D01*
X68450186Y-58607706D01*
X68309296Y-58897321D01*
X68227616Y-59208858D01*
X68208282Y-59530345D01*
X64985000Y-59530345D01*
X64985000Y-59306717D01*
X64922168Y-58990838D01*
X64798918Y-58693287D01*
X64619987Y-58425498D01*
X64526826Y-58332337D01*
X68894192Y-58332337D01*
X69850000Y-59288145D01*
X70805808Y-58332337D01*
X70710044Y-58067936D01*
X70420429Y-57927046D01*
X70108892Y-57845366D01*
X69787405Y-57826032D01*
X69468325Y-57869789D01*
X69163912Y-57974955D01*
X68989956Y-58067936D01*
X68894192Y-58332337D01*
X64526826Y-58332337D01*
X64392252Y-58197763D01*
X64124463Y-58018832D01*
X63826912Y-57895582D01*
X63511033Y-57832750D01*
X63188967Y-57832750D01*
X62873088Y-57895582D01*
X62575537Y-58018832D01*
X62307748Y-58197763D01*
X62080013Y-58425498D01*
X61901082Y-58693287D01*
X61777832Y-58990838D01*
X61715000Y-59306717D01*
X59656838Y-59306717D01*
X59677300Y-59203850D01*
X59677300Y-58906150D01*
X59619222Y-58614170D01*
X59505297Y-58339131D01*
X59339904Y-58091602D01*
X59129398Y-57881096D01*
X58881869Y-57715703D01*
X58606830Y-57601778D01*
X58314850Y-57543700D01*
X58017150Y-57543700D01*
X57725170Y-57601778D01*
X57450131Y-57715703D01*
X57202602Y-57881096D01*
X56992096Y-58091602D01*
X56826703Y-58339131D01*
X56712778Y-58614170D01*
X56654700Y-58906150D01*
X56090480Y-58906150D01*
X57592631Y-57404000D01*
X73690009Y-57404000D01*
X72966444Y-58127565D01*
X72887092Y-58224256D01*
X72828127Y-58334570D01*
X72791817Y-58454268D01*
X72779557Y-58578750D01*
X72791817Y-58703232D01*
X72828127Y-58822930D01*
X72887092Y-58933244D01*
X72966444Y-59029935D01*
X74097815Y-60161306D01*
X74194506Y-60240658D01*
X74304820Y-60299623D01*
X74424518Y-60335933D01*
X74549000Y-60348193D01*
X74673482Y-60335933D01*
X74793180Y-60299623D01*
X74903494Y-60240658D01*
X75000185Y-60161306D01*
X76131556Y-59029935D01*
X76210908Y-58933244D01*
X76269873Y-58822930D01*
X76306183Y-58703232D01*
X76318443Y-58578750D01*
X76306183Y-58454268D01*
X76269873Y-58334570D01*
X76210908Y-58224256D01*
X76131556Y-58127565D01*
X75407991Y-57404000D01*
X79313370Y-57404000D01*
X81730716Y-59821346D01*
X81754578Y-59850422D01*
X81828219Y-59910857D01*
X81870607Y-59945645D01*
X81941364Y-59983465D01*
X82002985Y-60016402D01*
X82146622Y-60059974D01*
X82258574Y-60071000D01*
X82258577Y-60071000D01*
X82296000Y-60074686D01*
X82333423Y-60071000D01*
X101816577Y-60071000D01*
X101854000Y-60074686D01*
X101891423Y-60071000D01*
X101891426Y-60071000D01*
X102003378Y-60059974D01*
X102147015Y-60016402D01*
X102279392Y-59945645D01*
X102395422Y-59850422D01*
X102419284Y-59821346D01*
X105852630Y-56388000D01*
X112414234Y-56388000D01*
X112297919Y-56504315D01*
X112105308Y-56792577D01*
X111972636Y-57112877D01*
X111905000Y-57452905D01*
X111905000Y-57799595D01*
X111972636Y-58139623D01*
X112105308Y-58459923D01*
X112297919Y-58748185D01*
X112543065Y-58993331D01*
X112831327Y-59185942D01*
X112903000Y-59215630D01*
X112903000Y-60766424D01*
X112800826Y-60664250D01*
X112370251Y-60376549D01*
X111891822Y-60178377D01*
X111383924Y-60077350D01*
X110866076Y-60077350D01*
X110358178Y-60178377D01*
X109879749Y-60376549D01*
X109449174Y-60664250D01*
X109083000Y-61030424D01*
X108795299Y-61460999D01*
X108597127Y-61939428D01*
X108496100Y-62447326D01*
X108496100Y-62965174D01*
X108597127Y-63473072D01*
X108795299Y-63951501D01*
X109083000Y-64382076D01*
X109449174Y-64748250D01*
X109879749Y-65035951D01*
X110358178Y-65234123D01*
X110866076Y-65335150D01*
X111383924Y-65335150D01*
X111891822Y-65234123D01*
X112370251Y-65035951D01*
X112800826Y-64748250D01*
X112903000Y-64646076D01*
X112903001Y-75086870D01*
X112831327Y-75116558D01*
X112543065Y-75309169D01*
X112297919Y-75554315D01*
X112105308Y-75842577D01*
X111972636Y-76162877D01*
X111905000Y-76502905D01*
X111905000Y-76849595D01*
X111972636Y-77189623D01*
X112105308Y-77509923D01*
X112297919Y-77798185D01*
X112543065Y-78043331D01*
X112831327Y-78235942D01*
X112903000Y-78265630D01*
X112903000Y-79816424D01*
X112800826Y-79714250D01*
X112370251Y-79426549D01*
X111891822Y-79228377D01*
X111383924Y-79127350D01*
X110866076Y-79127350D01*
X110358178Y-79228377D01*
X109879749Y-79426549D01*
X109449174Y-79714250D01*
X109083000Y-80080424D01*
X108795299Y-80510999D01*
X108597127Y-80989428D01*
X108496100Y-81497326D01*
X108496100Y-82015174D01*
X108597127Y-82523072D01*
X108795299Y-83001501D01*
X109083000Y-83432076D01*
X109449174Y-83798250D01*
X109879749Y-84085951D01*
X110358178Y-84284123D01*
X110866076Y-84385150D01*
X111383924Y-84385150D01*
X111891822Y-84284123D01*
X112370251Y-84085951D01*
X112800826Y-83798250D01*
X112903000Y-83696076D01*
X112903001Y-89289935D01*
X111632427Y-90560510D01*
X94730621Y-90560510D01*
X95127352Y-90163779D01*
X95156422Y-90139922D01*
X95251645Y-90023892D01*
X95319528Y-89896892D01*
X95322401Y-89891517D01*
X95342686Y-89824647D01*
X95365974Y-89747878D01*
X95377000Y-89635926D01*
X95377000Y-89635924D01*
X95380686Y-89598501D01*
X95377000Y-89561078D01*
X95377000Y-81607528D01*
X95645000Y-81607528D01*
X95645000Y-81904972D01*
X95703029Y-82196701D01*
X95816856Y-82471503D01*
X95982107Y-82718819D01*
X96192431Y-82929143D01*
X96439747Y-83094394D01*
X96714549Y-83208221D01*
X97006278Y-83266250D01*
X97303722Y-83266250D01*
X97595451Y-83208221D01*
X97870253Y-83094394D01*
X98117569Y-82929143D01*
X98327893Y-82718819D01*
X98493144Y-82471503D01*
X98606971Y-82196701D01*
X98665000Y-81904972D01*
X98665000Y-81607528D01*
X104535000Y-81607528D01*
X104535000Y-81904972D01*
X104593029Y-82196701D01*
X104706856Y-82471503D01*
X104872107Y-82718819D01*
X105082431Y-82929143D01*
X105329747Y-83094394D01*
X105604549Y-83208221D01*
X105896278Y-83266250D01*
X106193722Y-83266250D01*
X106485451Y-83208221D01*
X106760253Y-83094394D01*
X107007569Y-82929143D01*
X107217893Y-82718819D01*
X107383144Y-82471503D01*
X107496971Y-82196701D01*
X107555000Y-81904972D01*
X107555000Y-81607528D01*
X107496971Y-81315799D01*
X107383144Y-81040997D01*
X107339882Y-80976250D01*
X107488345Y-80976250D01*
X107828373Y-80908614D01*
X108148673Y-80775942D01*
X108436935Y-80583331D01*
X108682081Y-80338185D01*
X108874692Y-80049923D01*
X109007364Y-79729623D01*
X109075000Y-79389595D01*
X109075000Y-79042905D01*
X109007364Y-78702877D01*
X108874692Y-78382577D01*
X108682081Y-78094315D01*
X108436935Y-77849169D01*
X108148673Y-77656558D01*
X107828373Y-77523886D01*
X107488345Y-77456250D01*
X107141655Y-77456250D01*
X106801627Y-77523886D01*
X106481327Y-77656558D01*
X106193065Y-77849169D01*
X105947919Y-78094315D01*
X105755308Y-78382577D01*
X105622636Y-78702877D01*
X105555000Y-79042905D01*
X105555000Y-79389595D01*
X105622636Y-79729623D01*
X105755308Y-80049923D01*
X105887638Y-80247969D01*
X105604549Y-80304279D01*
X105329747Y-80418106D01*
X105082431Y-80583357D01*
X104872107Y-80793681D01*
X104706856Y-81040997D01*
X104593029Y-81315799D01*
X104535000Y-81607528D01*
X98665000Y-81607528D01*
X98606971Y-81315799D01*
X98493144Y-81040997D01*
X98327893Y-80793681D01*
X98117569Y-80583357D01*
X97870253Y-80418106D01*
X97595451Y-80304279D01*
X97303722Y-80246250D01*
X97006278Y-80246250D01*
X96714549Y-80304279D01*
X96439747Y-80418106D01*
X96192431Y-80583357D01*
X95982107Y-80793681D01*
X95816856Y-81040997D01*
X95703029Y-81315799D01*
X95645000Y-81607528D01*
X95377000Y-81607528D01*
X95377000Y-78265630D01*
X95448673Y-78235942D01*
X95736935Y-78043331D01*
X95982081Y-77798185D01*
X96174692Y-77509923D01*
X96307364Y-77189623D01*
X96375000Y-76849595D01*
X96375000Y-76502905D01*
X96307364Y-76162877D01*
X96174692Y-75842577D01*
X95982081Y-75554315D01*
X95736935Y-75309169D01*
X95448673Y-75116558D01*
X95218250Y-75021114D01*
X95218250Y-71516580D01*
X95230713Y-71511418D01*
X95498502Y-71332487D01*
X95726237Y-71104752D01*
X95905168Y-70836963D01*
X96028418Y-70539412D01*
X96091250Y-70223533D01*
X96091250Y-69901467D01*
X96028418Y-69585588D01*
X95905168Y-69288037D01*
X95726237Y-69020248D01*
X95498502Y-68792513D01*
X95230713Y-68613582D01*
X94933162Y-68490332D01*
X94617283Y-68427500D01*
X94295217Y-68427500D01*
X93979338Y-68490332D01*
X93681787Y-68613582D01*
X93413998Y-68792513D01*
X93186263Y-69020248D01*
X93007332Y-69288037D01*
X92884082Y-69585588D01*
X92821250Y-69901467D01*
X92821250Y-70223533D01*
X92884082Y-70539412D01*
X93007332Y-70836963D01*
X93186263Y-71104752D01*
X93413998Y-71332487D01*
X93681787Y-71511418D01*
X93694250Y-71516580D01*
X93694251Y-75174741D01*
X93493065Y-75309169D01*
X93247919Y-75554315D01*
X93055308Y-75842577D01*
X92922636Y-76162877D01*
X92855000Y-76502905D01*
X92855000Y-76849595D01*
X92922636Y-77189623D01*
X93055308Y-77509923D01*
X93247919Y-77798185D01*
X93493065Y-78043331D01*
X93781327Y-78235942D01*
X93853000Y-78265630D01*
X93853000Y-79816424D01*
X93750826Y-79714250D01*
X93320251Y-79426549D01*
X92841822Y-79228377D01*
X92333924Y-79127350D01*
X91816076Y-79127350D01*
X91308178Y-79228377D01*
X90829749Y-79426549D01*
X90399174Y-79714250D01*
X90033000Y-80080424D01*
X89745299Y-80510999D01*
X89547127Y-80989428D01*
X89446100Y-81497326D01*
X89446100Y-82015174D01*
X89547127Y-82523072D01*
X89745299Y-83001501D01*
X90033000Y-83432076D01*
X90399174Y-83798250D01*
X90829749Y-84085951D01*
X91308178Y-84284123D01*
X91816076Y-84385150D01*
X92333924Y-84385150D01*
X92841822Y-84284123D01*
X93320251Y-84085951D01*
X93750826Y-83798250D01*
X93853000Y-83696076D01*
X93853001Y-89282868D01*
X93029370Y-90106500D01*
X64196630Y-90106500D01*
X63817329Y-89727199D01*
X63999595Y-89802696D01*
X64257514Y-89854000D01*
X64520486Y-89854000D01*
X64778405Y-89802696D01*
X65021359Y-89702061D01*
X65240013Y-89555962D01*
X65425962Y-89370013D01*
X65572061Y-89151359D01*
X65672696Y-88908405D01*
X65724000Y-88650486D01*
X65724000Y-88387514D01*
X66864000Y-88387514D01*
X66864000Y-88650486D01*
X66915304Y-88908405D01*
X67015939Y-89151359D01*
X67162038Y-89370013D01*
X67347987Y-89555962D01*
X67566641Y-89702061D01*
X67809595Y-89802696D01*
X68067514Y-89854000D01*
X68330486Y-89854000D01*
X68588405Y-89802696D01*
X68831359Y-89702061D01*
X69050013Y-89555962D01*
X69235962Y-89370013D01*
X69382061Y-89151359D01*
X69482696Y-88908405D01*
X69534000Y-88650486D01*
X69534000Y-88387514D01*
X69482696Y-88129595D01*
X69382061Y-87886641D01*
X69235962Y-87667987D01*
X69206044Y-87638069D01*
X78502154Y-87638069D01*
X78502154Y-87920739D01*
X78557301Y-88197978D01*
X78665474Y-88459131D01*
X78822517Y-88694163D01*
X79022395Y-88894041D01*
X79257427Y-89051084D01*
X79518580Y-89159257D01*
X79795819Y-89214404D01*
X80078489Y-89214404D01*
X80355728Y-89159257D01*
X80616881Y-89051084D01*
X80851913Y-88894041D01*
X81051791Y-88694163D01*
X81208834Y-88459131D01*
X81317007Y-88197978D01*
X81372154Y-87920739D01*
X81372154Y-87638069D01*
X81317007Y-87360830D01*
X81208834Y-87099677D01*
X81051791Y-86864645D01*
X80851913Y-86664767D01*
X80616881Y-86507724D01*
X80355728Y-86399551D01*
X80078489Y-86344404D01*
X79795819Y-86344404D01*
X79518580Y-86399551D01*
X79257427Y-86507724D01*
X79022395Y-86664767D01*
X78822517Y-86864645D01*
X78665474Y-87099677D01*
X78557301Y-87360830D01*
X78502154Y-87638069D01*
X69206044Y-87638069D01*
X69050013Y-87482038D01*
X68831359Y-87335939D01*
X68588405Y-87235304D01*
X68330486Y-87184000D01*
X68067514Y-87184000D01*
X67809595Y-87235304D01*
X67566641Y-87335939D01*
X67347987Y-87482038D01*
X67162038Y-87667987D01*
X67015939Y-87886641D01*
X66915304Y-88129595D01*
X66864000Y-88387514D01*
X65724000Y-88387514D01*
X65672696Y-88129595D01*
X65572061Y-87886641D01*
X65425962Y-87667987D01*
X65240013Y-87482038D01*
X65021359Y-87335939D01*
X64778405Y-87235304D01*
X64520486Y-87184000D01*
X64257514Y-87184000D01*
X63999595Y-87235304D01*
X63756641Y-87335939D01*
X63537987Y-87482038D01*
X63352038Y-87667987D01*
X63205939Y-87886641D01*
X63105304Y-88129595D01*
X63054000Y-88387514D01*
X63054000Y-88650486D01*
X63105304Y-88908405D01*
X63180801Y-89090671D01*
X62160523Y-88070393D01*
X62160523Y-85184946D01*
X62164209Y-85147523D01*
X62160523Y-85110097D01*
X62149497Y-84998145D01*
X62105925Y-84854508D01*
X62072988Y-84792887D01*
X62035168Y-84722130D01*
X61963802Y-84635171D01*
X61939945Y-84606101D01*
X61910876Y-84582245D01*
X59719881Y-82391250D01*
X72779557Y-82391250D01*
X72791817Y-82515732D01*
X72828127Y-82635430D01*
X72887092Y-82745744D01*
X72966444Y-82842435D01*
X74097815Y-83973806D01*
X74194506Y-84053158D01*
X74304820Y-84112123D01*
X74424518Y-84148433D01*
X74549000Y-84160693D01*
X74673482Y-84148433D01*
X74793180Y-84112123D01*
X74903494Y-84053158D01*
X75000185Y-83973806D01*
X76098422Y-82875569D01*
X78502154Y-82875569D01*
X78502154Y-83158239D01*
X78557301Y-83435478D01*
X78665474Y-83696631D01*
X78822517Y-83931663D01*
X79022395Y-84131541D01*
X79257427Y-84288584D01*
X79518580Y-84396757D01*
X79795819Y-84451904D01*
X80078489Y-84451904D01*
X80355728Y-84396757D01*
X80616881Y-84288584D01*
X80851913Y-84131541D01*
X81051791Y-83931663D01*
X81208834Y-83696631D01*
X81317007Y-83435478D01*
X81372154Y-83158239D01*
X81372154Y-82875569D01*
X81317007Y-82598330D01*
X81208834Y-82337177D01*
X81051791Y-82102145D01*
X80851913Y-81902267D01*
X80616881Y-81745224D01*
X80355728Y-81637051D01*
X80207308Y-81607528D01*
X85485000Y-81607528D01*
X85485000Y-81904972D01*
X85543029Y-82196701D01*
X85656856Y-82471503D01*
X85822107Y-82718819D01*
X86032431Y-82929143D01*
X86279747Y-83094394D01*
X86554549Y-83208221D01*
X86846278Y-83266250D01*
X87143722Y-83266250D01*
X87435451Y-83208221D01*
X87710253Y-83094394D01*
X87957569Y-82929143D01*
X88167893Y-82718819D01*
X88333144Y-82471503D01*
X88446971Y-82196701D01*
X88505000Y-81904972D01*
X88505000Y-81607528D01*
X88446971Y-81315799D01*
X88333144Y-81040997D01*
X88289882Y-80976250D01*
X88438345Y-80976250D01*
X88778373Y-80908614D01*
X89098673Y-80775942D01*
X89386935Y-80583331D01*
X89632081Y-80338185D01*
X89824692Y-80049923D01*
X89957364Y-79729623D01*
X90025000Y-79389595D01*
X90025000Y-79042905D01*
X89957364Y-78702877D01*
X89824692Y-78382577D01*
X89632081Y-78094315D01*
X89386935Y-77849169D01*
X89098673Y-77656558D01*
X88778373Y-77523886D01*
X88438345Y-77456250D01*
X88091655Y-77456250D01*
X87751627Y-77523886D01*
X87431327Y-77656558D01*
X87143065Y-77849169D01*
X86897919Y-78094315D01*
X86705308Y-78382577D01*
X86572636Y-78702877D01*
X86505000Y-79042905D01*
X86505000Y-79389595D01*
X86572636Y-79729623D01*
X86705308Y-80049923D01*
X86837638Y-80247969D01*
X86554549Y-80304279D01*
X86279747Y-80418106D01*
X86032431Y-80583357D01*
X85822107Y-80793681D01*
X85656856Y-81040997D01*
X85543029Y-81315799D01*
X85485000Y-81607528D01*
X80207308Y-81607528D01*
X80078489Y-81581904D01*
X79795819Y-81581904D01*
X79518580Y-81637051D01*
X79257427Y-81745224D01*
X79022395Y-81902267D01*
X78822517Y-82102145D01*
X78665474Y-82337177D01*
X78557301Y-82598330D01*
X78502154Y-82875569D01*
X76098422Y-82875569D01*
X76131556Y-82842435D01*
X76210908Y-82745744D01*
X76269873Y-82635430D01*
X76306183Y-82515732D01*
X76318443Y-82391250D01*
X76306183Y-82266768D01*
X76269873Y-82147070D01*
X76210908Y-82036756D01*
X76131556Y-81940065D01*
X75000185Y-80808694D01*
X74903494Y-80729342D01*
X74793180Y-80670377D01*
X74673482Y-80634067D01*
X74549000Y-80621807D01*
X74424518Y-80634067D01*
X74304820Y-80670377D01*
X74194506Y-80729342D01*
X74097815Y-80808694D01*
X72966444Y-81940065D01*
X72887092Y-82036756D01*
X72828127Y-82147070D01*
X72791817Y-82266768D01*
X72779557Y-82391250D01*
X59719881Y-82391250D01*
X59630046Y-82301415D01*
X59677300Y-82063850D01*
X59677300Y-81766150D01*
X59619222Y-81474170D01*
X59505297Y-81199131D01*
X59339904Y-80951602D01*
X59155816Y-80767514D01*
X63054000Y-80767514D01*
X63054000Y-81030486D01*
X63105304Y-81288405D01*
X63205939Y-81531359D01*
X63352038Y-81750013D01*
X63537987Y-81935962D01*
X63756641Y-82082061D01*
X63999595Y-82182696D01*
X64257514Y-82234000D01*
X64520486Y-82234000D01*
X64778405Y-82182696D01*
X65021359Y-82082061D01*
X65240013Y-81935962D01*
X65425962Y-81750013D01*
X65572061Y-81531359D01*
X65672696Y-81288405D01*
X65724000Y-81030486D01*
X65724000Y-80767514D01*
X66864000Y-80767514D01*
X66864000Y-81030486D01*
X66915304Y-81288405D01*
X67015939Y-81531359D01*
X67162038Y-81750013D01*
X67347987Y-81935962D01*
X67566641Y-82082061D01*
X67809595Y-82182696D01*
X68067514Y-82234000D01*
X68330486Y-82234000D01*
X68588405Y-82182696D01*
X68831359Y-82082061D01*
X69050013Y-81935962D01*
X69235962Y-81750013D01*
X69382061Y-81531359D01*
X69482696Y-81288405D01*
X69534000Y-81030486D01*
X69534000Y-80767514D01*
X69482696Y-80509595D01*
X69382061Y-80266641D01*
X69235962Y-80047987D01*
X69050013Y-79862038D01*
X68831359Y-79715939D01*
X68588405Y-79615304D01*
X68330486Y-79564000D01*
X68067514Y-79564000D01*
X67809595Y-79615304D01*
X67566641Y-79715939D01*
X67347987Y-79862038D01*
X67162038Y-80047987D01*
X67015939Y-80266641D01*
X66915304Y-80509595D01*
X66864000Y-80767514D01*
X65724000Y-80767514D01*
X65672696Y-80509595D01*
X65572061Y-80266641D01*
X65425962Y-80047987D01*
X65240013Y-79862038D01*
X65021359Y-79715939D01*
X64778405Y-79615304D01*
X64520486Y-79564000D01*
X64257514Y-79564000D01*
X63999595Y-79615304D01*
X63756641Y-79715939D01*
X63537987Y-79862038D01*
X63352038Y-80047987D01*
X63205939Y-80266641D01*
X63105304Y-80509595D01*
X63054000Y-80767514D01*
X59155816Y-80767514D01*
X59129398Y-80741096D01*
X58985580Y-80645000D01*
X59129398Y-80548904D01*
X59339904Y-80338398D01*
X59505297Y-80090869D01*
X59619222Y-79815830D01*
X59677300Y-79523850D01*
X59677300Y-79226150D01*
X59619222Y-78934170D01*
X59505297Y-78659131D01*
X59339904Y-78411602D01*
X59129398Y-78201096D01*
X58985580Y-78105000D01*
X59129398Y-78008904D01*
X59339904Y-77798398D01*
X59453258Y-77628750D01*
X72779557Y-77628750D01*
X72791817Y-77753232D01*
X72828127Y-77872930D01*
X72887092Y-77983244D01*
X72966444Y-78079935D01*
X74097815Y-79211306D01*
X74194506Y-79290658D01*
X74304820Y-79349623D01*
X74424518Y-79385933D01*
X74549000Y-79398193D01*
X74673482Y-79385933D01*
X74793180Y-79349623D01*
X74903494Y-79290658D01*
X75000185Y-79211306D01*
X76098422Y-78113069D01*
X78502154Y-78113069D01*
X78502154Y-78395739D01*
X78557301Y-78672978D01*
X78665474Y-78934131D01*
X78822517Y-79169163D01*
X79022395Y-79369041D01*
X79257427Y-79526084D01*
X79518580Y-79634257D01*
X79795819Y-79689404D01*
X80078489Y-79689404D01*
X80355728Y-79634257D01*
X80616881Y-79526084D01*
X80851913Y-79369041D01*
X81051791Y-79169163D01*
X81208834Y-78934131D01*
X81317007Y-78672978D01*
X81372154Y-78395739D01*
X81372154Y-78113069D01*
X81317007Y-77835830D01*
X81208834Y-77574677D01*
X81051791Y-77339645D01*
X80851913Y-77139767D01*
X80616881Y-76982724D01*
X80355728Y-76874551D01*
X80078489Y-76819404D01*
X79795819Y-76819404D01*
X79518580Y-76874551D01*
X79257427Y-76982724D01*
X79022395Y-77139767D01*
X78822517Y-77339645D01*
X78665474Y-77574677D01*
X78557301Y-77835830D01*
X78502154Y-78113069D01*
X76098422Y-78113069D01*
X76131556Y-78079935D01*
X76210908Y-77983244D01*
X76269873Y-77872930D01*
X76306183Y-77753232D01*
X76318443Y-77628750D01*
X76306183Y-77504268D01*
X76269873Y-77384570D01*
X76210908Y-77274256D01*
X76131556Y-77177565D01*
X75000185Y-76046194D01*
X74903494Y-75966842D01*
X74793180Y-75907877D01*
X74673482Y-75871567D01*
X74549000Y-75859307D01*
X74424518Y-75871567D01*
X74304820Y-75907877D01*
X74194506Y-75966842D01*
X74097815Y-76046194D01*
X72966444Y-77177565D01*
X72887092Y-77274256D01*
X72828127Y-77384570D01*
X72791817Y-77504268D01*
X72779557Y-77628750D01*
X59453258Y-77628750D01*
X59505297Y-77550869D01*
X59619222Y-77275830D01*
X59677300Y-76983850D01*
X59677300Y-76686150D01*
X59619222Y-76394170D01*
X59505297Y-76119131D01*
X59339904Y-75871602D01*
X59129398Y-75661096D01*
X58985580Y-75565000D01*
X59129398Y-75468904D01*
X59149302Y-75449000D01*
X63390678Y-75449000D01*
X63402938Y-75573482D01*
X63439248Y-75693180D01*
X63498213Y-75803494D01*
X63577565Y-75900185D01*
X63674256Y-75979537D01*
X63784570Y-76038502D01*
X63904268Y-76074812D01*
X64028750Y-76087072D01*
X64643000Y-76084000D01*
X64801750Y-75925250D01*
X64801750Y-74676000D01*
X63552500Y-74676000D01*
X63393750Y-74834750D01*
X63390678Y-75449000D01*
X59149302Y-75449000D01*
X59339904Y-75258398D01*
X59505297Y-75010869D01*
X59619222Y-74735830D01*
X59677300Y-74443850D01*
X59677300Y-74146150D01*
X59619222Y-73854170D01*
X59534238Y-73649000D01*
X63390678Y-73649000D01*
X63393750Y-74263250D01*
X63552500Y-74422000D01*
X64801750Y-74422000D01*
X64801750Y-73172750D01*
X65055750Y-73172750D01*
X65055750Y-74422000D01*
X65075750Y-74422000D01*
X65075750Y-74676000D01*
X65055750Y-74676000D01*
X65055750Y-75925250D01*
X65214500Y-76084000D01*
X65828750Y-76087072D01*
X65953232Y-76074812D01*
X66072930Y-76038502D01*
X66183244Y-75979537D01*
X66279935Y-75900185D01*
X66359287Y-75803494D01*
X66418252Y-75693180D01*
X66423806Y-75674873D01*
X66490245Y-75741312D01*
X66741655Y-75909299D01*
X67021007Y-76025011D01*
X67317566Y-76084000D01*
X67619934Y-76084000D01*
X67916493Y-76025011D01*
X68195845Y-75909299D01*
X68447255Y-75741312D01*
X68661062Y-75527505D01*
X68829049Y-75276095D01*
X68944761Y-74996743D01*
X69003750Y-74700184D01*
X69003750Y-74397816D01*
X68944761Y-74101257D01*
X68829049Y-73821905D01*
X68661062Y-73570495D01*
X68447255Y-73356688D01*
X68195845Y-73188701D01*
X67916493Y-73072989D01*
X67619934Y-73014000D01*
X67317566Y-73014000D01*
X67021007Y-73072989D01*
X66741655Y-73188701D01*
X66490245Y-73356688D01*
X66423806Y-73423127D01*
X66418252Y-73404820D01*
X66359287Y-73294506D01*
X66279935Y-73197815D01*
X66183244Y-73118463D01*
X66072930Y-73059498D01*
X65953232Y-73023188D01*
X65828750Y-73010928D01*
X65214500Y-73014000D01*
X65055750Y-73172750D01*
X64801750Y-73172750D01*
X64643000Y-73014000D01*
X64028750Y-73010928D01*
X63904268Y-73023188D01*
X63784570Y-73059498D01*
X63674256Y-73118463D01*
X63577565Y-73197815D01*
X63498213Y-73294506D01*
X63439248Y-73404820D01*
X63402938Y-73524518D01*
X63390678Y-73649000D01*
X59534238Y-73649000D01*
X59505297Y-73579131D01*
X59339904Y-73331602D01*
X59129398Y-73121096D01*
X58985580Y-73025000D01*
X59129398Y-72928904D01*
X59192052Y-72866250D01*
X72779557Y-72866250D01*
X72791817Y-72990732D01*
X72828127Y-73110430D01*
X72887092Y-73220744D01*
X72966444Y-73317435D01*
X74097815Y-74448806D01*
X74194506Y-74528158D01*
X74304820Y-74587123D01*
X74424518Y-74623433D01*
X74549000Y-74635693D01*
X74673482Y-74623433D01*
X74793180Y-74587123D01*
X74903494Y-74528158D01*
X75000185Y-74448806D01*
X76098422Y-73350569D01*
X78502154Y-73350569D01*
X78502154Y-73633239D01*
X78557301Y-73910478D01*
X78665474Y-74171631D01*
X78822517Y-74406663D01*
X79022395Y-74606541D01*
X79257427Y-74763584D01*
X79518580Y-74871757D01*
X79795819Y-74926904D01*
X80078489Y-74926904D01*
X80355728Y-74871757D01*
X80616881Y-74763584D01*
X80851913Y-74606541D01*
X81051791Y-74406663D01*
X81208834Y-74171631D01*
X81317007Y-73910478D01*
X81372154Y-73633239D01*
X81372154Y-73350569D01*
X81317007Y-73073330D01*
X81208834Y-72812177D01*
X81051791Y-72577145D01*
X80851913Y-72377267D01*
X80616881Y-72220224D01*
X80355728Y-72112051D01*
X80078489Y-72056904D01*
X79795819Y-72056904D01*
X79518580Y-72112051D01*
X79257427Y-72220224D01*
X79022395Y-72377267D01*
X78822517Y-72577145D01*
X78665474Y-72812177D01*
X78557301Y-73073330D01*
X78502154Y-73350569D01*
X76098422Y-73350569D01*
X76131556Y-73317435D01*
X76210908Y-73220744D01*
X76269873Y-73110430D01*
X76306183Y-72990732D01*
X76318443Y-72866250D01*
X76306183Y-72741768D01*
X76269873Y-72622070D01*
X76210908Y-72511756D01*
X76131556Y-72415065D01*
X75000185Y-71283694D01*
X74903494Y-71204342D01*
X74793180Y-71145377D01*
X74673482Y-71109067D01*
X74549000Y-71096807D01*
X74424518Y-71109067D01*
X74304820Y-71145377D01*
X74194506Y-71204342D01*
X74097815Y-71283694D01*
X72966444Y-72415065D01*
X72887092Y-72511756D01*
X72828127Y-72622070D01*
X72791817Y-72741768D01*
X72779557Y-72866250D01*
X59192052Y-72866250D01*
X59339904Y-72718398D01*
X59505297Y-72470869D01*
X59619222Y-72195830D01*
X59677300Y-71903850D01*
X59677300Y-71606150D01*
X59619222Y-71314170D01*
X59505297Y-71039131D01*
X59339904Y-70791602D01*
X59129398Y-70581096D01*
X58985580Y-70485000D01*
X59129398Y-70388904D01*
X59339904Y-70178398D01*
X59505297Y-69930869D01*
X59619222Y-69655830D01*
X59623302Y-69635316D01*
X63393750Y-69635316D01*
X63393750Y-69937684D01*
X63452739Y-70234243D01*
X63568451Y-70513595D01*
X63736438Y-70765005D01*
X63950245Y-70978812D01*
X64201655Y-71146799D01*
X64481007Y-71262511D01*
X64777566Y-71321500D01*
X65079934Y-71321500D01*
X65376493Y-71262511D01*
X65655845Y-71146799D01*
X65907255Y-70978812D01*
X65973694Y-70912373D01*
X65979248Y-70930680D01*
X66038213Y-71040994D01*
X66117565Y-71137685D01*
X66214256Y-71217037D01*
X66324570Y-71276002D01*
X66444268Y-71312312D01*
X66568750Y-71324572D01*
X67183000Y-71321500D01*
X67341750Y-71162750D01*
X67341750Y-69913500D01*
X67595750Y-69913500D01*
X67595750Y-71162750D01*
X67754500Y-71321500D01*
X68368750Y-71324572D01*
X68493232Y-71312312D01*
X68612930Y-71276002D01*
X68723244Y-71217037D01*
X68819935Y-71137685D01*
X68899287Y-71040994D01*
X68958252Y-70930680D01*
X68994562Y-70810982D01*
X69006822Y-70686500D01*
X69003750Y-70072250D01*
X68845000Y-69913500D01*
X67595750Y-69913500D01*
X67341750Y-69913500D01*
X67321750Y-69913500D01*
X67321750Y-69659500D01*
X67341750Y-69659500D01*
X67341750Y-68410250D01*
X67595750Y-68410250D01*
X67595750Y-69659500D01*
X68845000Y-69659500D01*
X69003750Y-69500750D01*
X69006822Y-68886500D01*
X68994562Y-68762018D01*
X68958252Y-68642320D01*
X68899287Y-68532006D01*
X68819935Y-68435315D01*
X68723244Y-68355963D01*
X68612930Y-68296998D01*
X68493232Y-68260688D01*
X68368750Y-68248428D01*
X67754500Y-68251500D01*
X67595750Y-68410250D01*
X67341750Y-68410250D01*
X67183000Y-68251500D01*
X66568750Y-68248428D01*
X66444268Y-68260688D01*
X66324570Y-68296998D01*
X66214256Y-68355963D01*
X66117565Y-68435315D01*
X66038213Y-68532006D01*
X65979248Y-68642320D01*
X65973694Y-68660627D01*
X65907255Y-68594188D01*
X65655845Y-68426201D01*
X65376493Y-68310489D01*
X65079934Y-68251500D01*
X64777566Y-68251500D01*
X64481007Y-68310489D01*
X64201655Y-68426201D01*
X63950245Y-68594188D01*
X63736438Y-68807995D01*
X63568451Y-69059405D01*
X63452739Y-69338757D01*
X63393750Y-69635316D01*
X59623302Y-69635316D01*
X59677300Y-69363850D01*
X59677300Y-69066150D01*
X59619222Y-68774170D01*
X59505297Y-68499131D01*
X59339904Y-68251602D01*
X59192052Y-68103750D01*
X72779557Y-68103750D01*
X72791817Y-68228232D01*
X72828127Y-68347930D01*
X72887092Y-68458244D01*
X72966444Y-68554935D01*
X74097815Y-69686306D01*
X74194506Y-69765658D01*
X74304820Y-69824623D01*
X74424518Y-69860933D01*
X74549000Y-69873193D01*
X74673482Y-69860933D01*
X74793180Y-69824623D01*
X74903494Y-69765658D01*
X75000185Y-69686306D01*
X76098422Y-68588069D01*
X78502154Y-68588069D01*
X78502154Y-68870739D01*
X78557301Y-69147978D01*
X78665474Y-69409131D01*
X78822517Y-69644163D01*
X79022395Y-69844041D01*
X79257427Y-70001084D01*
X79518580Y-70109257D01*
X79795819Y-70164404D01*
X80078489Y-70164404D01*
X80355728Y-70109257D01*
X80616881Y-70001084D01*
X80765968Y-69901467D01*
X87821250Y-69901467D01*
X87821250Y-70223533D01*
X87884082Y-70539412D01*
X88007332Y-70836963D01*
X88186263Y-71104752D01*
X88413998Y-71332487D01*
X88681787Y-71511418D01*
X88979338Y-71634668D01*
X89295217Y-71697500D01*
X89617283Y-71697500D01*
X89933162Y-71634668D01*
X90230713Y-71511418D01*
X90498502Y-71332487D01*
X90726237Y-71104752D01*
X90905168Y-70836963D01*
X91028418Y-70539412D01*
X91091250Y-70223533D01*
X91091250Y-69901467D01*
X91028418Y-69585588D01*
X90905168Y-69288037D01*
X90726237Y-69020248D01*
X90498502Y-68792513D01*
X90230713Y-68613582D01*
X89933162Y-68490332D01*
X89617283Y-68427500D01*
X89295217Y-68427500D01*
X88979338Y-68490332D01*
X88681787Y-68613582D01*
X88413998Y-68792513D01*
X88186263Y-69020248D01*
X88007332Y-69288037D01*
X87884082Y-69585588D01*
X87821250Y-69901467D01*
X80765968Y-69901467D01*
X80851913Y-69844041D01*
X81051791Y-69644163D01*
X81208834Y-69409131D01*
X81317007Y-69147978D01*
X81372154Y-68870739D01*
X81372154Y-68588069D01*
X81317007Y-68310830D01*
X81208834Y-68049677D01*
X81051791Y-67814645D01*
X80851913Y-67614767D01*
X80616881Y-67457724D01*
X80355728Y-67349551D01*
X80078489Y-67294404D01*
X79795819Y-67294404D01*
X79518580Y-67349551D01*
X79257427Y-67457724D01*
X79022395Y-67614767D01*
X78822517Y-67814645D01*
X78665474Y-68049677D01*
X78557301Y-68310830D01*
X78502154Y-68588069D01*
X76098422Y-68588069D01*
X76131556Y-68554935D01*
X76210908Y-68458244D01*
X76269873Y-68347930D01*
X76306183Y-68228232D01*
X76318443Y-68103750D01*
X76306183Y-67979268D01*
X76269873Y-67859570D01*
X76210908Y-67749256D01*
X76131556Y-67652565D01*
X75000185Y-66521194D01*
X74903494Y-66441842D01*
X74793180Y-66382877D01*
X74673482Y-66346567D01*
X74549000Y-66334307D01*
X74424518Y-66346567D01*
X74304820Y-66382877D01*
X74194506Y-66441842D01*
X74097815Y-66521194D01*
X72966444Y-67652565D01*
X72887092Y-67749256D01*
X72828127Y-67859570D01*
X72791817Y-67979268D01*
X72779557Y-68103750D01*
X59192052Y-68103750D01*
X59129398Y-68041096D01*
X58985580Y-67945000D01*
X59129398Y-67848904D01*
X59339904Y-67638398D01*
X59505297Y-67390869D01*
X59619222Y-67115830D01*
X59677300Y-66823850D01*
X59677300Y-66526150D01*
X59619222Y-66234170D01*
X59505297Y-65959131D01*
X59339904Y-65711602D01*
X59129398Y-65501096D01*
X58985580Y-65405000D01*
X59129398Y-65308904D01*
X59339904Y-65098398D01*
X59474473Y-64897000D01*
X62004507Y-64897000D01*
X62080013Y-65010002D01*
X62307748Y-65237737D01*
X62575537Y-65416668D01*
X62873088Y-65539918D01*
X63188967Y-65602750D01*
X63511033Y-65602750D01*
X63826912Y-65539918D01*
X64124463Y-65416668D01*
X64392252Y-65237737D01*
X64619987Y-65010002D01*
X64798918Y-64742213D01*
X64922168Y-64444662D01*
X64985000Y-64128783D01*
X64985000Y-63806717D01*
X68215000Y-63806717D01*
X68215000Y-64128783D01*
X68277832Y-64444662D01*
X68401082Y-64742213D01*
X68580013Y-65010002D01*
X68807748Y-65237737D01*
X69075537Y-65416668D01*
X69373088Y-65539918D01*
X69688967Y-65602750D01*
X70011033Y-65602750D01*
X70326912Y-65539918D01*
X70624463Y-65416668D01*
X70892252Y-65237737D01*
X71119987Y-65010002D01*
X71298918Y-64742213D01*
X71422168Y-64444662D01*
X71485000Y-64128783D01*
X71485000Y-63806717D01*
X71422168Y-63490838D01*
X71360207Y-63341250D01*
X72779557Y-63341250D01*
X72791817Y-63465732D01*
X72828127Y-63585430D01*
X72887092Y-63695744D01*
X72966444Y-63792435D01*
X74097815Y-64923806D01*
X74194506Y-65003158D01*
X74304820Y-65062123D01*
X74424518Y-65098433D01*
X74549000Y-65110693D01*
X74673482Y-65098433D01*
X74793180Y-65062123D01*
X74903494Y-65003158D01*
X75000185Y-64923806D01*
X76098422Y-63825569D01*
X78502154Y-63825569D01*
X78502154Y-64108239D01*
X78557301Y-64385478D01*
X78665474Y-64646631D01*
X78822517Y-64881663D01*
X79022395Y-65081541D01*
X79257427Y-65238584D01*
X79518580Y-65346757D01*
X79795819Y-65401904D01*
X80078489Y-65401904D01*
X80355728Y-65346757D01*
X80616881Y-65238584D01*
X80851913Y-65081541D01*
X81051791Y-64881663D01*
X81208834Y-64646631D01*
X81317007Y-64385478D01*
X81372154Y-64108239D01*
X81372154Y-63825569D01*
X81317007Y-63548330D01*
X81208834Y-63287177D01*
X81051791Y-63052145D01*
X80851913Y-62852267D01*
X80616881Y-62695224D01*
X80355728Y-62587051D01*
X80078489Y-62531904D01*
X79795819Y-62531904D01*
X79518580Y-62587051D01*
X79257427Y-62695224D01*
X79022395Y-62852267D01*
X78822517Y-63052145D01*
X78665474Y-63287177D01*
X78557301Y-63548330D01*
X78502154Y-63825569D01*
X76098422Y-63825569D01*
X76131556Y-63792435D01*
X76210908Y-63695744D01*
X76269873Y-63585430D01*
X76306183Y-63465732D01*
X76318443Y-63341250D01*
X76306183Y-63216768D01*
X76269873Y-63097070D01*
X76210908Y-62986756D01*
X76131556Y-62890065D01*
X75000185Y-61758694D01*
X74903494Y-61679342D01*
X74793180Y-61620377D01*
X74673482Y-61584067D01*
X74549000Y-61571807D01*
X74424518Y-61584067D01*
X74304820Y-61620377D01*
X74194506Y-61679342D01*
X74097815Y-61758694D01*
X72966444Y-62890065D01*
X72887092Y-62986756D01*
X72828127Y-63097070D01*
X72791817Y-63216768D01*
X72779557Y-63341250D01*
X71360207Y-63341250D01*
X71298918Y-63193287D01*
X71119987Y-62925498D01*
X70892252Y-62697763D01*
X70624463Y-62518832D01*
X70326912Y-62395582D01*
X70011033Y-62332750D01*
X69688967Y-62332750D01*
X69373088Y-62395582D01*
X69075537Y-62518832D01*
X68807748Y-62697763D01*
X68580013Y-62925498D01*
X68401082Y-63193287D01*
X68277832Y-63490838D01*
X68215000Y-63806717D01*
X64985000Y-63806717D01*
X64922168Y-63490838D01*
X64798918Y-63193287D01*
X64619987Y-62925498D01*
X64392252Y-62697763D01*
X64124463Y-62518832D01*
X63826912Y-62395582D01*
X63511033Y-62332750D01*
X63188967Y-62332750D01*
X62873088Y-62395582D01*
X62575537Y-62518832D01*
X62307748Y-62697763D01*
X62080013Y-62925498D01*
X61901082Y-63193287D01*
X61826642Y-63373000D01*
X59474473Y-63373000D01*
X59339904Y-63171602D01*
X59129398Y-62961096D01*
X58966191Y-62852045D01*
X59033563Y-62642169D01*
X58166000Y-61774605D01*
X57298437Y-62642169D01*
X57365809Y-62852045D01*
X57202602Y-62961096D01*
X56992096Y-63171602D01*
X56826703Y-63419131D01*
X56712778Y-63694170D01*
X56654700Y-63986150D01*
X56654700Y-64283850D01*
X56712778Y-64575830D01*
X56826703Y-64850869D01*
X56992096Y-65098398D01*
X57202602Y-65308904D01*
X57346420Y-65405000D01*
X57202602Y-65501096D01*
X56992096Y-65711602D01*
X56826703Y-65959131D01*
X56712778Y-66234170D01*
X56654700Y-66526150D01*
X56654700Y-66823850D01*
X56712778Y-67115830D01*
X56826703Y-67390869D01*
X56992096Y-67638398D01*
X57202602Y-67848904D01*
X57346420Y-67945000D01*
X57202602Y-68041096D01*
X56992096Y-68251602D01*
X56826703Y-68499131D01*
X56712778Y-68774170D01*
X56654700Y-69066150D01*
X56654700Y-69363850D01*
X56712778Y-69655830D01*
X56826703Y-69930869D01*
X56992096Y-70178398D01*
X57202602Y-70388904D01*
X57346420Y-70485000D01*
X57202602Y-70581096D01*
X56992096Y-70791602D01*
X56826703Y-71039131D01*
X56712778Y-71314170D01*
X56654700Y-71606150D01*
X56654700Y-71903850D01*
X56712778Y-72195830D01*
X56826703Y-72470869D01*
X56992096Y-72718398D01*
X57202602Y-72928904D01*
X57346420Y-73025000D01*
X57202602Y-73121096D01*
X56992096Y-73331602D01*
X56826703Y-73579131D01*
X56712778Y-73854170D01*
X56654700Y-74146150D01*
X56654700Y-74443850D01*
X56712778Y-74735830D01*
X56826703Y-75010869D01*
X56992096Y-75258398D01*
X57202602Y-75468904D01*
X57346420Y-75565000D01*
X57202602Y-75661096D01*
X56992096Y-75871602D01*
X56826703Y-76119131D01*
X56712778Y-76394170D01*
X56654700Y-76686150D01*
X56654700Y-76983850D01*
X56712778Y-77275830D01*
X56826703Y-77550869D01*
X56992096Y-77798398D01*
X57202602Y-78008904D01*
X57346420Y-78105000D01*
X57202602Y-78201096D01*
X56992096Y-78411602D01*
X56826703Y-78659131D01*
X56712778Y-78934170D01*
X56654700Y-79226150D01*
X56654700Y-79523850D01*
X56712778Y-79815830D01*
X56826703Y-80090869D01*
X56992096Y-80338398D01*
X57202602Y-80548904D01*
X57346420Y-80645000D01*
X57202602Y-80741096D01*
X56992096Y-80951602D01*
X56826703Y-81199131D01*
X56712778Y-81474170D01*
X56654700Y-81766150D01*
X56654700Y-82063850D01*
X56712778Y-82355830D01*
X56826703Y-82630869D01*
X56992096Y-82878398D01*
X57202602Y-83088904D01*
X57346420Y-83185000D01*
X57202602Y-83281096D01*
X56992096Y-83491602D01*
X56826703Y-83739131D01*
X56712778Y-84014170D01*
X56654700Y-84306150D01*
X56654700Y-84603850D01*
X56712778Y-84895830D01*
X56826703Y-85170869D01*
X56992096Y-85418398D01*
X57202602Y-85628904D01*
X57346420Y-85725000D01*
X57202602Y-85821096D01*
X56992096Y-86031602D01*
X56826703Y-86279131D01*
X56712778Y-86554170D01*
X56654700Y-86846150D01*
X56654700Y-87143850D01*
X56712778Y-87435830D01*
X56826703Y-87710869D01*
X56992096Y-87958398D01*
X57202602Y-88168904D01*
X57450131Y-88334297D01*
X57725170Y-88448222D01*
X58017150Y-88506300D01*
X58314850Y-88506300D01*
X58552415Y-88459046D01*
X62382241Y-92288872D01*
X62406098Y-92317942D01*
X62522128Y-92413165D01*
X62654505Y-92483922D01*
X62798142Y-92527494D01*
X62910094Y-92538520D01*
X62910096Y-92538520D01*
X62947519Y-92542206D01*
X62984942Y-92538520D01*
X130372557Y-92538520D01*
X130409980Y-92542206D01*
X130447403Y-92538520D01*
X130447406Y-92538520D01*
X130559358Y-92527494D01*
X130702995Y-92483922D01*
X130835372Y-92413165D01*
X130951402Y-92317942D01*
X130975264Y-92288866D01*
X133227347Y-90036783D01*
X133256422Y-90012922D01*
X133316857Y-89939281D01*
X133351645Y-89896893D01*
X133422401Y-89764516D01*
X133422402Y-89764515D01*
X133465974Y-89620878D01*
X133477000Y-89508926D01*
X133477000Y-89508923D01*
X133480686Y-89471500D01*
X133477000Y-89434077D01*
X133477000Y-81607528D01*
X133745000Y-81607528D01*
X133745000Y-81904972D01*
X133803029Y-82196701D01*
X133916856Y-82471503D01*
X134082107Y-82718819D01*
X134292431Y-82929143D01*
X134539747Y-83094394D01*
X134814549Y-83208221D01*
X135106278Y-83266250D01*
X135403722Y-83266250D01*
X135695451Y-83208221D01*
X135970253Y-83094394D01*
X136217569Y-82929143D01*
X136427893Y-82718819D01*
X136593144Y-82471503D01*
X136706971Y-82196701D01*
X136765000Y-81904972D01*
X136765000Y-81607528D01*
X136706971Y-81315799D01*
X136593144Y-81040997D01*
X136427893Y-80793681D01*
X136217569Y-80583357D01*
X135970253Y-80418106D01*
X135695451Y-80304279D01*
X135403722Y-80246250D01*
X135106278Y-80246250D01*
X134814549Y-80304279D01*
X134539747Y-80418106D01*
X134292431Y-80583357D01*
X134082107Y-80793681D01*
X133916856Y-81040997D01*
X133803029Y-81315799D01*
X133745000Y-81607528D01*
X133477000Y-81607528D01*
X133477000Y-78265630D01*
X133548673Y-78235942D01*
X133836935Y-78043331D01*
X134082081Y-77798185D01*
X134274692Y-77509923D01*
X134407364Y-77189623D01*
X134475000Y-76849595D01*
X134475000Y-76502905D01*
X134407364Y-76162877D01*
X134274692Y-75842577D01*
X134082081Y-75554315D01*
X133836935Y-75309169D01*
X133548673Y-75116558D01*
X133318250Y-75021114D01*
X133318250Y-71516580D01*
X133330713Y-71511418D01*
X133598502Y-71332487D01*
X133826237Y-71104752D01*
X134005168Y-70836963D01*
X134128418Y-70539412D01*
X134191250Y-70223533D01*
X134191250Y-69901467D01*
X134128418Y-69585588D01*
X134005168Y-69288037D01*
X133826237Y-69020248D01*
X133598502Y-68792513D01*
X133330713Y-68613582D01*
X133033162Y-68490332D01*
X132717283Y-68427500D01*
X132395217Y-68427500D01*
X132079338Y-68490332D01*
X131781787Y-68613582D01*
X131513998Y-68792513D01*
X131286263Y-69020248D01*
X131107332Y-69288037D01*
X130984082Y-69585588D01*
X130921250Y-69901467D01*
X130921250Y-70223533D01*
X130984082Y-70539412D01*
X131107332Y-70836963D01*
X131286263Y-71104752D01*
X131513998Y-71332487D01*
X131781787Y-71511418D01*
X131794250Y-71516580D01*
X131794251Y-75174741D01*
X131593065Y-75309169D01*
X131347919Y-75554315D01*
X131155308Y-75842577D01*
X131022636Y-76162877D01*
X130955000Y-76502905D01*
X130955000Y-76849595D01*
X131022636Y-77189623D01*
X131155308Y-77509923D01*
X131347919Y-77798185D01*
X131593065Y-78043331D01*
X131881327Y-78235942D01*
X131953000Y-78265630D01*
X131953000Y-78301175D01*
X131953001Y-78301185D01*
X131953001Y-79816425D01*
X131850826Y-79714250D01*
X131420251Y-79426549D01*
X130941822Y-79228377D01*
X130433924Y-79127350D01*
X129916076Y-79127350D01*
X129408178Y-79228377D01*
X128929749Y-79426549D01*
X128499174Y-79714250D01*
X128133000Y-80080424D01*
X127845299Y-80510999D01*
X127647127Y-80989428D01*
X127546100Y-81497326D01*
X127546100Y-82015174D01*
X127647127Y-82523072D01*
X127845299Y-83001501D01*
X128133000Y-83432076D01*
X128499174Y-83798250D01*
X128929749Y-84085951D01*
X129408178Y-84284123D01*
X129916076Y-84385150D01*
X130433924Y-84385150D01*
X130941822Y-84284123D01*
X131420251Y-84085951D01*
X131850826Y-83798250D01*
X131953001Y-83696075D01*
X131953000Y-89155870D01*
X130094350Y-91014520D01*
X113333677Y-91014520D01*
X114177352Y-90170846D01*
X114206422Y-90146989D01*
X114301645Y-90030959D01*
X114372402Y-89898582D01*
X114415974Y-89754945D01*
X114427000Y-89642993D01*
X114427000Y-89642991D01*
X114430686Y-89605568D01*
X114427000Y-89568145D01*
X114427000Y-81607528D01*
X114695000Y-81607528D01*
X114695000Y-81904972D01*
X114753029Y-82196701D01*
X114866856Y-82471503D01*
X115032107Y-82718819D01*
X115242431Y-82929143D01*
X115489747Y-83094394D01*
X115764549Y-83208221D01*
X116056278Y-83266250D01*
X116353722Y-83266250D01*
X116645451Y-83208221D01*
X116920253Y-83094394D01*
X117167569Y-82929143D01*
X117377893Y-82718819D01*
X117543144Y-82471503D01*
X117656971Y-82196701D01*
X117715000Y-81904972D01*
X117715000Y-81607528D01*
X123585000Y-81607528D01*
X123585000Y-81904972D01*
X123643029Y-82196701D01*
X123756856Y-82471503D01*
X123922107Y-82718819D01*
X124132431Y-82929143D01*
X124379747Y-83094394D01*
X124654549Y-83208221D01*
X124946278Y-83266250D01*
X125243722Y-83266250D01*
X125535451Y-83208221D01*
X125810253Y-83094394D01*
X126057569Y-82929143D01*
X126267893Y-82718819D01*
X126433144Y-82471503D01*
X126546971Y-82196701D01*
X126605000Y-81904972D01*
X126605000Y-81607528D01*
X126546971Y-81315799D01*
X126433144Y-81040997D01*
X126389882Y-80976250D01*
X126538345Y-80976250D01*
X126878373Y-80908614D01*
X127198673Y-80775942D01*
X127486935Y-80583331D01*
X127732081Y-80338185D01*
X127924692Y-80049923D01*
X128057364Y-79729623D01*
X128125000Y-79389595D01*
X128125000Y-79042905D01*
X128057364Y-78702877D01*
X127924692Y-78382577D01*
X127732081Y-78094315D01*
X127486935Y-77849169D01*
X127198673Y-77656558D01*
X126878373Y-77523886D01*
X126538345Y-77456250D01*
X126191655Y-77456250D01*
X125851627Y-77523886D01*
X125531327Y-77656558D01*
X125243065Y-77849169D01*
X124997919Y-78094315D01*
X124805308Y-78382577D01*
X124672636Y-78702877D01*
X124605000Y-79042905D01*
X124605000Y-79389595D01*
X124672636Y-79729623D01*
X124805308Y-80049923D01*
X124937638Y-80247969D01*
X124654549Y-80304279D01*
X124379747Y-80418106D01*
X124132431Y-80583357D01*
X123922107Y-80793681D01*
X123756856Y-81040997D01*
X123643029Y-81315799D01*
X123585000Y-81607528D01*
X117715000Y-81607528D01*
X117656971Y-81315799D01*
X117543144Y-81040997D01*
X117377893Y-80793681D01*
X117167569Y-80583357D01*
X116920253Y-80418106D01*
X116645451Y-80304279D01*
X116353722Y-80246250D01*
X116056278Y-80246250D01*
X115764549Y-80304279D01*
X115489747Y-80418106D01*
X115242431Y-80583357D01*
X115032107Y-80793681D01*
X114866856Y-81040997D01*
X114753029Y-81315799D01*
X114695000Y-81607528D01*
X114427000Y-81607528D01*
X114427000Y-78265630D01*
X114498673Y-78235942D01*
X114786935Y-78043331D01*
X115032081Y-77798185D01*
X115224692Y-77509923D01*
X115357364Y-77189623D01*
X115425000Y-76849595D01*
X115425000Y-76502905D01*
X115357364Y-76162877D01*
X115224692Y-75842577D01*
X115032081Y-75554315D01*
X114786935Y-75309169D01*
X114498673Y-75116558D01*
X114427000Y-75086870D01*
X114427000Y-69901467D01*
X125921250Y-69901467D01*
X125921250Y-70223533D01*
X125984082Y-70539412D01*
X126107332Y-70836963D01*
X126286263Y-71104752D01*
X126513998Y-71332487D01*
X126781787Y-71511418D01*
X127079338Y-71634668D01*
X127395217Y-71697500D01*
X127717283Y-71697500D01*
X128033162Y-71634668D01*
X128330713Y-71511418D01*
X128598502Y-71332487D01*
X128826237Y-71104752D01*
X129005168Y-70836963D01*
X129128418Y-70539412D01*
X129191250Y-70223533D01*
X129191250Y-69901467D01*
X129128418Y-69585588D01*
X129005168Y-69288037D01*
X128826237Y-69020248D01*
X128598502Y-68792513D01*
X128330713Y-68613582D01*
X128033162Y-68490332D01*
X127717283Y-68427500D01*
X127395217Y-68427500D01*
X127079338Y-68490332D01*
X126781787Y-68613582D01*
X126513998Y-68792513D01*
X126286263Y-69020248D01*
X126107332Y-69288037D01*
X125984082Y-69585588D01*
X125921250Y-69901467D01*
X114427000Y-69901467D01*
X114427000Y-62557528D01*
X114695000Y-62557528D01*
X114695000Y-62854972D01*
X114753029Y-63146701D01*
X114866856Y-63421503D01*
X115032107Y-63668819D01*
X115242431Y-63879143D01*
X115489747Y-64044394D01*
X115764549Y-64158221D01*
X116056278Y-64216250D01*
X116353722Y-64216250D01*
X116645451Y-64158221D01*
X116920253Y-64044394D01*
X117167569Y-63879143D01*
X117377893Y-63668819D01*
X117543144Y-63421503D01*
X117656971Y-63146701D01*
X117715000Y-62854972D01*
X117715000Y-62557528D01*
X117656971Y-62265799D01*
X117543144Y-61990997D01*
X117377893Y-61743681D01*
X117167569Y-61533357D01*
X117061524Y-61462500D01*
X122818178Y-61462500D01*
X122818178Y-64662500D01*
X122830438Y-64786982D01*
X122866748Y-64906680D01*
X122925713Y-65016994D01*
X123005065Y-65113685D01*
X123101756Y-65193037D01*
X123212070Y-65252002D01*
X123331768Y-65288312D01*
X123456250Y-65300572D01*
X125456250Y-65300572D01*
X125580732Y-65288312D01*
X125700430Y-65252002D01*
X125810744Y-65193037D01*
X125907435Y-65113685D01*
X125986787Y-65016994D01*
X126045752Y-64906680D01*
X126082062Y-64786982D01*
X126094322Y-64662500D01*
X126094322Y-61462500D01*
X134018178Y-61462500D01*
X134018178Y-64662500D01*
X134030438Y-64786982D01*
X134066748Y-64906680D01*
X134125713Y-65016994D01*
X134205065Y-65113685D01*
X134301756Y-65193037D01*
X134412070Y-65252002D01*
X134531768Y-65288312D01*
X134656250Y-65300572D01*
X136656250Y-65300572D01*
X136780732Y-65288312D01*
X136900430Y-65252002D01*
X137010744Y-65193037D01*
X137107435Y-65113685D01*
X137186787Y-65016994D01*
X137245752Y-64906680D01*
X137282062Y-64786982D01*
X137294322Y-64662500D01*
X137294322Y-61462500D01*
X137282062Y-61338018D01*
X137245752Y-61218320D01*
X137186787Y-61108006D01*
X137107435Y-61011315D01*
X137010744Y-60931963D01*
X136900430Y-60872998D01*
X136780732Y-60836688D01*
X136656250Y-60824428D01*
X134656250Y-60824428D01*
X134531768Y-60836688D01*
X134412070Y-60872998D01*
X134301756Y-60931963D01*
X134205065Y-61011315D01*
X134125713Y-61108006D01*
X134066748Y-61218320D01*
X134030438Y-61338018D01*
X134018178Y-61462500D01*
X126094322Y-61462500D01*
X126082062Y-61338018D01*
X126045752Y-61218320D01*
X125986787Y-61108006D01*
X125907435Y-61011315D01*
X125810744Y-60931963D01*
X125700430Y-60872998D01*
X125580732Y-60836688D01*
X125456250Y-60824428D01*
X123456250Y-60824428D01*
X123331768Y-60836688D01*
X123212070Y-60872998D01*
X123101756Y-60931963D01*
X123005065Y-61011315D01*
X122925713Y-61108006D01*
X122866748Y-61218320D01*
X122830438Y-61338018D01*
X122818178Y-61462500D01*
X117061524Y-61462500D01*
X116920253Y-61368106D01*
X116645451Y-61254279D01*
X116353722Y-61196250D01*
X116056278Y-61196250D01*
X115764549Y-61254279D01*
X115489747Y-61368106D01*
X115242431Y-61533357D01*
X115032107Y-61743681D01*
X114866856Y-61990997D01*
X114753029Y-62265799D01*
X114695000Y-62557528D01*
X114427000Y-62557528D01*
X114427000Y-59215630D01*
X114498673Y-59185942D01*
X114786935Y-58993331D01*
X115032081Y-58748185D01*
X115224692Y-58459923D01*
X115357364Y-58139623D01*
X115425000Y-57799595D01*
X115425000Y-57452905D01*
X115357364Y-57112877D01*
X115224692Y-56792577D01*
X115032081Y-56504315D01*
X114915766Y-56388000D01*
X115127370Y-56388000D01*
X118179721Y-59440352D01*
X118203578Y-59469422D01*
X118319608Y-59564645D01*
X118451985Y-59635402D01*
X118595622Y-59678974D01*
X118707574Y-59690000D01*
X118707576Y-59690000D01*
X118744999Y-59693686D01*
X118782422Y-59690000D01*
X131502827Y-59690000D01*
X131540250Y-59693686D01*
X131577673Y-59690000D01*
X131577676Y-59690000D01*
X131689628Y-59678974D01*
X131833265Y-59635402D01*
X131965642Y-59564645D01*
X132081672Y-59469422D01*
X132105534Y-59440346D01*
X133068601Y-58477279D01*
X133097672Y-58453422D01*
X133136385Y-58406250D01*
X133192895Y-58337393D01*
X133253367Y-58224256D01*
X133263652Y-58205015D01*
X133307224Y-58061378D01*
X133318250Y-57949426D01*
X133318250Y-57949423D01*
X133321936Y-57912000D01*
X133318250Y-57874577D01*
X133318250Y-57200572D01*
X133556250Y-57200572D01*
X133680732Y-57188312D01*
X133800430Y-57152002D01*
X133910744Y-57093037D01*
X134007435Y-57013685D01*
X134086787Y-56916994D01*
X134145752Y-56806680D01*
X134182062Y-56686982D01*
X134194322Y-56562500D01*
X134194322Y-54562500D01*
X134182062Y-54438018D01*
X134145752Y-54318320D01*
X134086787Y-54208006D01*
X134007435Y-54111315D01*
X133910744Y-54031963D01*
X133800430Y-53972998D01*
X133680732Y-53936688D01*
X133556250Y-53924428D01*
X131556250Y-53924428D01*
X131431768Y-53936688D01*
X131312070Y-53972998D01*
X131201756Y-54031963D01*
X131105065Y-54111315D01*
X131025713Y-54208006D01*
X130970274Y-54311723D01*
X130916294Y-54162686D01*
X130626679Y-54021796D01*
X130315142Y-53940116D01*
X129993655Y-53920782D01*
X129674575Y-53964539D01*
X129370162Y-54069705D01*
X129196206Y-54162686D01*
X129100442Y-54427087D01*
X130056250Y-55382895D01*
X130070393Y-55368753D01*
X130249998Y-55548358D01*
X130235855Y-55562500D01*
X130249998Y-55576643D01*
X130070393Y-55756248D01*
X130056250Y-55742105D01*
X129100442Y-56697913D01*
X129196206Y-56962314D01*
X129485821Y-57103204D01*
X129797358Y-57184884D01*
X130118845Y-57204218D01*
X130437925Y-57160461D01*
X130742338Y-57055295D01*
X130916294Y-56962314D01*
X130970274Y-56813277D01*
X131025713Y-56916994D01*
X131105065Y-57013685D01*
X131201756Y-57093037D01*
X131312070Y-57152002D01*
X131431768Y-57188312D01*
X131556250Y-57200572D01*
X131794251Y-57200572D01*
X131794251Y-57596368D01*
X131224620Y-58166000D01*
X119060631Y-58166000D01*
X116266630Y-55372000D01*
X117921370Y-55372000D01*
X118624221Y-56074851D01*
X118648078Y-56103922D01*
X118764108Y-56199145D01*
X118896485Y-56269902D01*
X119040122Y-56313474D01*
X119152074Y-56324500D01*
X119152076Y-56324500D01*
X119189499Y-56328186D01*
X119226922Y-56324500D01*
X126102170Y-56324500D01*
X126107332Y-56336963D01*
X126286263Y-56604752D01*
X126513998Y-56832487D01*
X126781787Y-57011418D01*
X127079338Y-57134668D01*
X127395217Y-57197500D01*
X127717283Y-57197500D01*
X128033162Y-57134668D01*
X128330713Y-57011418D01*
X128598502Y-56832487D01*
X128826237Y-56604752D01*
X128891175Y-56507565D01*
X128920837Y-56518308D01*
X129876645Y-55562500D01*
X128920837Y-54606692D01*
X128891175Y-54617435D01*
X128826237Y-54520248D01*
X128598502Y-54292513D01*
X128330713Y-54113582D01*
X128033162Y-53990332D01*
X127717283Y-53927500D01*
X127395217Y-53927500D01*
X127079338Y-53990332D01*
X126781787Y-54113582D01*
X126513998Y-54292513D01*
X126286263Y-54520248D01*
X126107332Y-54788037D01*
X126102170Y-54800500D01*
X119505131Y-54800500D01*
X118802284Y-54097654D01*
X118778422Y-54068578D01*
X118662392Y-53973355D01*
X118530015Y-53902598D01*
X118386378Y-53859026D01*
X118274426Y-53848000D01*
X118274423Y-53848000D01*
X118237000Y-53844314D01*
X118199577Y-53848000D01*
X104431423Y-53848000D01*
X104394000Y-53844314D01*
X104356577Y-53848000D01*
X104356574Y-53848000D01*
X104244622Y-53859026D01*
X104100985Y-53902598D01*
X104060144Y-53924428D01*
X103968607Y-53973355D01*
X103947921Y-53990332D01*
X103852578Y-54068578D01*
X103828716Y-54097654D01*
X100395370Y-57531000D01*
X93565380Y-57531000D01*
X93895808Y-57200572D01*
X95456250Y-57200572D01*
X95580732Y-57188312D01*
X95700430Y-57152002D01*
X95810744Y-57093037D01*
X95907435Y-57013685D01*
X95986787Y-56916994D01*
X96045752Y-56806680D01*
X96082062Y-56686982D01*
X96094322Y-56562500D01*
X96094322Y-54562500D01*
X96082062Y-54438018D01*
X96045752Y-54318320D01*
X95986787Y-54208006D01*
X95907435Y-54111315D01*
X95810744Y-54031963D01*
X95700430Y-53972998D01*
X95580732Y-53936688D01*
X95456250Y-53924428D01*
X93456250Y-53924428D01*
X93331768Y-53936688D01*
X93212070Y-53972998D01*
X93101756Y-54031963D01*
X93005065Y-54111315D01*
X92925713Y-54208006D01*
X92870274Y-54311723D01*
X92816294Y-54162686D01*
X92526679Y-54021796D01*
X92215142Y-53940116D01*
X91893655Y-53920782D01*
X91574575Y-53964539D01*
X91270162Y-54069705D01*
X91096206Y-54162686D01*
X91000442Y-54427087D01*
X91956250Y-55382895D01*
X91970393Y-55368753D01*
X92149998Y-55548358D01*
X92135855Y-55562500D01*
X92149998Y-55576643D01*
X91970393Y-55756248D01*
X91956250Y-55742105D01*
X91942108Y-55756248D01*
X91762503Y-55576643D01*
X91776645Y-55562500D01*
X90820837Y-54606692D01*
X90791175Y-54617435D01*
X90726237Y-54520248D01*
X90498502Y-54292513D01*
X90230713Y-54113582D01*
X89933162Y-53990332D01*
X89617283Y-53927500D01*
X89295217Y-53927500D01*
X88979338Y-53990332D01*
X88681787Y-54113582D01*
X88413998Y-54292513D01*
X88188541Y-54517970D01*
X56750251Y-54517970D01*
X56712828Y-54514284D01*
X56675405Y-54517970D01*
X56675403Y-54517970D01*
X56563451Y-54528996D01*
X56419814Y-54572568D01*
X56287437Y-54643325D01*
X56171407Y-54738548D01*
X56147550Y-54767618D01*
X53189629Y-57725541D01*
X53160559Y-57749398D01*
X53136702Y-57778468D01*
X53136701Y-57778469D01*
X53065335Y-57865428D01*
X52994579Y-57997805D01*
X52951007Y-58141442D01*
X52936294Y-58290820D01*
X52939981Y-58328253D01*
X52939980Y-66124389D01*
X50611370Y-68453000D01*
X44234473Y-68453000D01*
X44099904Y-68251602D01*
X43889398Y-68041096D01*
X43726191Y-67932045D01*
X43793563Y-67722169D01*
X42926000Y-66854605D01*
X42911858Y-66868748D01*
X42732252Y-66689142D01*
X42746395Y-66675000D01*
X43105605Y-66675000D01*
X43973169Y-67542563D01*
X44224929Y-67461746D01*
X44353457Y-67193221D01*
X44427129Y-66904781D01*
X44443113Y-66607509D01*
X44400796Y-66312833D01*
X44301802Y-66032073D01*
X44224929Y-65888254D01*
X43973169Y-65807437D01*
X43105605Y-66675000D01*
X42746395Y-66675000D01*
X42732252Y-66660858D01*
X42911858Y-66481252D01*
X42926000Y-66495395D01*
X43793563Y-65627831D01*
X43722032Y-65405000D01*
X43793563Y-65182169D01*
X42926000Y-64314605D01*
X42911858Y-64328748D01*
X42732252Y-64149142D01*
X42746395Y-64135000D01*
X43105605Y-64135000D01*
X43973169Y-65002563D01*
X44224929Y-64921746D01*
X44353457Y-64653221D01*
X44427129Y-64364781D01*
X44443113Y-64067509D01*
X44400796Y-63772833D01*
X44301802Y-63492073D01*
X44224929Y-63348254D01*
X43973169Y-63267437D01*
X43105605Y-64135000D01*
X42746395Y-64135000D01*
X42732252Y-64120858D01*
X42911858Y-63941252D01*
X42926000Y-63955395D01*
X43793563Y-63087831D01*
X43726191Y-62877955D01*
X43889398Y-62768904D01*
X44099904Y-62558398D01*
X44265297Y-62310869D01*
X44379222Y-62035830D01*
X44437300Y-61743850D01*
X44437300Y-61446150D01*
X44379222Y-61154170D01*
X44265297Y-60879131D01*
X44099904Y-60631602D01*
X44002458Y-60534156D01*
X44046480Y-60520802D01*
X44156794Y-60461837D01*
X44253485Y-60382485D01*
X44332837Y-60285794D01*
X44391802Y-60175480D01*
X44428112Y-60055782D01*
X44440372Y-59931300D01*
X44440372Y-58178700D01*
X44428112Y-58054218D01*
X44391802Y-57934520D01*
X44332837Y-57824206D01*
X44253485Y-57727515D01*
X44156794Y-57648163D01*
X44046480Y-57589198D01*
X43926782Y-57552888D01*
X43802300Y-57540628D01*
X42195750Y-57540628D01*
X42195750Y-54952228D01*
X42199647Y-54956125D01*
X42573897Y-55206191D01*
X42989740Y-55378439D01*
X43431197Y-55466250D01*
X43881303Y-55466250D01*
X44322760Y-55378439D01*
X44738603Y-55206191D01*
X45112853Y-54956125D01*
X45431125Y-54637853D01*
X45681191Y-54263603D01*
X45853439Y-53847760D01*
X45941250Y-53406303D01*
X45941250Y-52956197D01*
X45853439Y-52514740D01*
X45681191Y-52098897D01*
X45431125Y-51724647D01*
X45427228Y-51720750D01*
X136341522Y-51720750D01*
X136337625Y-51724647D01*
%TA.AperFunction,Conductor*%
D24*
G36*
X136337625Y-51724647D02*
G01*
X136087559Y-52098897D01*
X135915311Y-52514740D01*
X135827500Y-52956197D01*
X135827500Y-53406303D01*
X135915311Y-53847760D01*
X136087559Y-54263603D01*
X136337625Y-54637853D01*
X136655897Y-54956125D01*
X137030147Y-55206191D01*
X137445990Y-55378439D01*
X137887447Y-55466250D01*
X138337553Y-55466250D01*
X138779010Y-55378439D01*
X139194853Y-55206191D01*
X139569103Y-54956125D01*
X139573000Y-54952228D01*
X139573000Y-89510272D01*
X139569103Y-89506375D01*
X139194853Y-89256309D01*
X138779010Y-89084061D01*
X138337553Y-88996250D01*
X137887447Y-88996250D01*
X137445990Y-89084061D01*
X137030147Y-89256309D01*
X136655897Y-89506375D01*
X136337625Y-89824647D01*
X136087559Y-90198897D01*
X135915311Y-90614740D01*
X135827500Y-91056197D01*
X135827500Y-91506303D01*
X135915311Y-91947760D01*
X136087559Y-92363603D01*
X136337625Y-92737853D01*
X136341522Y-92741750D01*
X45427228Y-92741750D01*
X45431125Y-92737853D01*
X45681191Y-92363603D01*
X45853439Y-91947760D01*
X45941250Y-91506303D01*
X45941250Y-91056197D01*
X45853439Y-90614740D01*
X45681191Y-90198897D01*
X45431125Y-89824647D01*
X45112853Y-89506375D01*
X44738603Y-89256309D01*
X44322760Y-89084061D01*
X43881303Y-88996250D01*
X43431197Y-88996250D01*
X42989740Y-89084061D01*
X42573897Y-89256309D01*
X42199647Y-89506375D01*
X42195750Y-89510272D01*
X42195750Y-88324688D01*
X42210131Y-88334297D01*
X42485170Y-88448222D01*
X42777150Y-88506300D01*
X43074850Y-88506300D01*
X43366830Y-88448222D01*
X43641869Y-88334297D01*
X43889398Y-88168904D01*
X44099904Y-87958398D01*
X44265297Y-87710869D01*
X44379222Y-87435830D01*
X44437300Y-87143850D01*
X44437300Y-86846150D01*
X44379222Y-86554170D01*
X44265297Y-86279131D01*
X44099904Y-86031602D01*
X43889398Y-85821096D01*
X43745580Y-85725000D01*
X43889398Y-85628904D01*
X44099904Y-85418398D01*
X44265297Y-85170869D01*
X44379222Y-84895830D01*
X44437300Y-84603850D01*
X44437300Y-84306150D01*
X44379222Y-84014170D01*
X44265297Y-83739131D01*
X44099904Y-83491602D01*
X43889398Y-83281096D01*
X43745580Y-83185000D01*
X43889398Y-83088904D01*
X44099904Y-82878398D01*
X44265297Y-82630869D01*
X44379222Y-82355830D01*
X44437300Y-82063850D01*
X44437300Y-81766150D01*
X44379222Y-81474170D01*
X44265297Y-81199131D01*
X44099904Y-80951602D01*
X43889398Y-80741096D01*
X43745580Y-80645000D01*
X43889398Y-80548904D01*
X44099904Y-80338398D01*
X44265297Y-80090869D01*
X44379222Y-79815830D01*
X44437300Y-79523850D01*
X44437300Y-79226150D01*
X44379222Y-78934170D01*
X44265297Y-78659131D01*
X44099904Y-78411602D01*
X43889398Y-78201096D01*
X43745580Y-78105000D01*
X43889398Y-78008904D01*
X44099904Y-77798398D01*
X44234473Y-77597000D01*
X50889577Y-77597000D01*
X50927000Y-77600686D01*
X50964423Y-77597000D01*
X50964426Y-77597000D01*
X51076378Y-77585974D01*
X51220015Y-77542402D01*
X51352392Y-77471645D01*
X51468422Y-77376422D01*
X51492284Y-77347346D01*
X55630352Y-73209279D01*
X55659422Y-73185422D01*
X55754645Y-73069392D01*
X55825402Y-72937015D01*
X55868974Y-72793378D01*
X55880000Y-72681426D01*
X55880000Y-72681424D01*
X55883686Y-72644001D01*
X55880000Y-72606578D01*
X55880000Y-61662491D01*
X56648887Y-61662491D01*
X56691204Y-61957167D01*
X56790198Y-62237927D01*
X56867071Y-62381746D01*
X57118831Y-62462563D01*
X57986395Y-61595000D01*
X58345605Y-61595000D01*
X59213169Y-62462563D01*
X59464929Y-62381746D01*
X59593457Y-62113221D01*
X59667129Y-61824781D01*
X59683113Y-61527509D01*
X59673778Y-61462500D01*
X84718178Y-61462500D01*
X84718178Y-64662500D01*
X84730438Y-64786982D01*
X84766748Y-64906680D01*
X84825713Y-65016994D01*
X84905065Y-65113685D01*
X85001756Y-65193037D01*
X85112070Y-65252002D01*
X85231768Y-65288312D01*
X85356250Y-65300572D01*
X87356250Y-65300572D01*
X87480732Y-65288312D01*
X87600430Y-65252002D01*
X87710744Y-65193037D01*
X87807435Y-65113685D01*
X87886787Y-65016994D01*
X87945752Y-64906680D01*
X87982062Y-64786982D01*
X87994322Y-64662500D01*
X87994322Y-61462500D01*
X95918178Y-61462500D01*
X95918178Y-64662500D01*
X95930438Y-64786982D01*
X95966748Y-64906680D01*
X96025713Y-65016994D01*
X96105065Y-65113685D01*
X96201756Y-65193037D01*
X96312070Y-65252002D01*
X96431768Y-65288312D01*
X96556250Y-65300572D01*
X98556250Y-65300572D01*
X98680732Y-65288312D01*
X98800430Y-65252002D01*
X98910744Y-65193037D01*
X99007435Y-65113685D01*
X99086787Y-65016994D01*
X99145752Y-64906680D01*
X99182062Y-64786982D01*
X99194322Y-64662500D01*
X99194322Y-62557528D01*
X104535000Y-62557528D01*
X104535000Y-62854972D01*
X104593029Y-63146701D01*
X104706856Y-63421503D01*
X104872107Y-63668819D01*
X105082431Y-63879143D01*
X105329747Y-64044394D01*
X105604549Y-64158221D01*
X105896278Y-64216250D01*
X106193722Y-64216250D01*
X106485451Y-64158221D01*
X106760253Y-64044394D01*
X107007569Y-63879143D01*
X107217893Y-63668819D01*
X107383144Y-63421503D01*
X107496971Y-63146701D01*
X107555000Y-62854972D01*
X107555000Y-62557528D01*
X107496971Y-62265799D01*
X107383144Y-61990997D01*
X107339882Y-61926250D01*
X107488345Y-61926250D01*
X107828373Y-61858614D01*
X108148673Y-61725942D01*
X108436935Y-61533331D01*
X108682081Y-61288185D01*
X108874692Y-60999923D01*
X109007364Y-60679623D01*
X109075000Y-60339595D01*
X109075000Y-59992905D01*
X109007364Y-59652877D01*
X108874692Y-59332577D01*
X108682081Y-59044315D01*
X108436935Y-58799169D01*
X108148673Y-58606558D01*
X107828373Y-58473886D01*
X107488345Y-58406250D01*
X107141655Y-58406250D01*
X106801627Y-58473886D01*
X106481327Y-58606558D01*
X106193065Y-58799169D01*
X105947919Y-59044315D01*
X105755308Y-59332577D01*
X105622636Y-59652877D01*
X105555000Y-59992905D01*
X105555000Y-60339595D01*
X105622636Y-60679623D01*
X105755308Y-60999923D01*
X105887638Y-61197969D01*
X105604549Y-61254279D01*
X105329747Y-61368106D01*
X105082431Y-61533357D01*
X104872107Y-61743681D01*
X104706856Y-61990997D01*
X104593029Y-62265799D01*
X104535000Y-62557528D01*
X99194322Y-62557528D01*
X99194322Y-61462500D01*
X99182062Y-61338018D01*
X99145752Y-61218320D01*
X99086787Y-61108006D01*
X99007435Y-61011315D01*
X98910744Y-60931963D01*
X98800430Y-60872998D01*
X98680732Y-60836688D01*
X98556250Y-60824428D01*
X96556250Y-60824428D01*
X96431768Y-60836688D01*
X96312070Y-60872998D01*
X96201756Y-60931963D01*
X96105065Y-61011315D01*
X96025713Y-61108006D01*
X95966748Y-61218320D01*
X95930438Y-61338018D01*
X95918178Y-61462500D01*
X87994322Y-61462500D01*
X87982062Y-61338018D01*
X87945752Y-61218320D01*
X87886787Y-61108006D01*
X87807435Y-61011315D01*
X87710744Y-60931963D01*
X87600430Y-60872998D01*
X87480732Y-60836688D01*
X87356250Y-60824428D01*
X85356250Y-60824428D01*
X85231768Y-60836688D01*
X85112070Y-60872998D01*
X85001756Y-60931963D01*
X84905065Y-61011315D01*
X84825713Y-61108006D01*
X84766748Y-61218320D01*
X84730438Y-61338018D01*
X84718178Y-61462500D01*
X59673778Y-61462500D01*
X59640796Y-61232833D01*
X59541802Y-60952073D01*
X59464929Y-60808254D01*
X59213169Y-60727437D01*
X58345605Y-61595000D01*
X57986395Y-61595000D01*
X57118831Y-60727437D01*
X56867071Y-60808254D01*
X56738543Y-61076779D01*
X56664871Y-61365219D01*
X56648887Y-61662491D01*
X55880000Y-61662491D01*
X55880000Y-59116630D01*
X56090480Y-58906150D01*
X56654700Y-58906150D01*
X56654700Y-59203850D01*
X56712778Y-59495830D01*
X56826703Y-59770869D01*
X56992096Y-60018398D01*
X57202602Y-60228904D01*
X57365809Y-60337955D01*
X57298437Y-60547831D01*
X58166000Y-61415395D01*
X59033563Y-60547831D01*
X58966191Y-60337955D01*
X59129398Y-60228904D01*
X59339904Y-60018398D01*
X59505297Y-59770869D01*
X59619222Y-59495830D01*
X59656838Y-59306717D01*
X61715000Y-59306717D01*
X61715000Y-59628783D01*
X61777832Y-59944662D01*
X61901082Y-60242213D01*
X62080013Y-60510002D01*
X62307748Y-60737737D01*
X62575537Y-60916668D01*
X62873088Y-61039918D01*
X63188967Y-61102750D01*
X63511033Y-61102750D01*
X63826912Y-61039918D01*
X64124463Y-60916668D01*
X64392252Y-60737737D01*
X64526826Y-60603163D01*
X68894192Y-60603163D01*
X68989956Y-60867564D01*
X69279571Y-61008454D01*
X69591108Y-61090134D01*
X69912595Y-61109468D01*
X70231675Y-61065711D01*
X70536088Y-60960545D01*
X70710044Y-60867564D01*
X70805808Y-60603163D01*
X69850000Y-59647355D01*
X68894192Y-60603163D01*
X64526826Y-60603163D01*
X64619987Y-60510002D01*
X64798918Y-60242213D01*
X64922168Y-59944662D01*
X64985000Y-59628783D01*
X64985000Y-59530345D01*
X68208282Y-59530345D01*
X68252039Y-59849425D01*
X68357205Y-60153838D01*
X68450186Y-60327794D01*
X68714587Y-60423558D01*
X69670395Y-59467750D01*
X70029605Y-59467750D01*
X70985413Y-60423558D01*
X71249814Y-60327794D01*
X71390704Y-60038179D01*
X71472384Y-59726642D01*
X71491718Y-59405155D01*
X71447961Y-59086075D01*
X71342795Y-58781662D01*
X71249814Y-58607706D01*
X70985413Y-58511942D01*
X70029605Y-59467750D01*
X69670395Y-59467750D01*
X68714587Y-58511942D01*
X68450186Y-58607706D01*
X68309296Y-58897321D01*
X68227616Y-59208858D01*
X68208282Y-59530345D01*
X64985000Y-59530345D01*
X64985000Y-59306717D01*
X64922168Y-58990838D01*
X64798918Y-58693287D01*
X64619987Y-58425498D01*
X64526826Y-58332337D01*
X68894192Y-58332337D01*
X69850000Y-59288145D01*
X70805808Y-58332337D01*
X70710044Y-58067936D01*
X70420429Y-57927046D01*
X70108892Y-57845366D01*
X69787405Y-57826032D01*
X69468325Y-57869789D01*
X69163912Y-57974955D01*
X68989956Y-58067936D01*
X68894192Y-58332337D01*
X64526826Y-58332337D01*
X64392252Y-58197763D01*
X64124463Y-58018832D01*
X63826912Y-57895582D01*
X63511033Y-57832750D01*
X63188967Y-57832750D01*
X62873088Y-57895582D01*
X62575537Y-58018832D01*
X62307748Y-58197763D01*
X62080013Y-58425498D01*
X61901082Y-58693287D01*
X61777832Y-58990838D01*
X61715000Y-59306717D01*
X59656838Y-59306717D01*
X59677300Y-59203850D01*
X59677300Y-58906150D01*
X59619222Y-58614170D01*
X59505297Y-58339131D01*
X59339904Y-58091602D01*
X59129398Y-57881096D01*
X58881869Y-57715703D01*
X58606830Y-57601778D01*
X58314850Y-57543700D01*
X58017150Y-57543700D01*
X57725170Y-57601778D01*
X57450131Y-57715703D01*
X57202602Y-57881096D01*
X56992096Y-58091602D01*
X56826703Y-58339131D01*
X56712778Y-58614170D01*
X56654700Y-58906150D01*
X56090480Y-58906150D01*
X57592631Y-57404000D01*
X73690009Y-57404000D01*
X72966444Y-58127565D01*
X72887092Y-58224256D01*
X72828127Y-58334570D01*
X72791817Y-58454268D01*
X72779557Y-58578750D01*
X72791817Y-58703232D01*
X72828127Y-58822930D01*
X72887092Y-58933244D01*
X72966444Y-59029935D01*
X74097815Y-60161306D01*
X74194506Y-60240658D01*
X74304820Y-60299623D01*
X74424518Y-60335933D01*
X74549000Y-60348193D01*
X74673482Y-60335933D01*
X74793180Y-60299623D01*
X74903494Y-60240658D01*
X75000185Y-60161306D01*
X76131556Y-59029935D01*
X76210908Y-58933244D01*
X76269873Y-58822930D01*
X76306183Y-58703232D01*
X76318443Y-58578750D01*
X76306183Y-58454268D01*
X76269873Y-58334570D01*
X76210908Y-58224256D01*
X76131556Y-58127565D01*
X75407991Y-57404000D01*
X79313370Y-57404000D01*
X81730716Y-59821346D01*
X81754578Y-59850422D01*
X81828219Y-59910857D01*
X81870607Y-59945645D01*
X81941364Y-59983465D01*
X82002985Y-60016402D01*
X82146622Y-60059974D01*
X82258574Y-60071000D01*
X82258577Y-60071000D01*
X82296000Y-60074686D01*
X82333423Y-60071000D01*
X101816577Y-60071000D01*
X101854000Y-60074686D01*
X101891423Y-60071000D01*
X101891426Y-60071000D01*
X102003378Y-60059974D01*
X102147015Y-60016402D01*
X102279392Y-59945645D01*
X102395422Y-59850422D01*
X102419284Y-59821346D01*
X105852630Y-56388000D01*
X112414234Y-56388000D01*
X112297919Y-56504315D01*
X112105308Y-56792577D01*
X111972636Y-57112877D01*
X111905000Y-57452905D01*
X111905000Y-57799595D01*
X111972636Y-58139623D01*
X112105308Y-58459923D01*
X112297919Y-58748185D01*
X112543065Y-58993331D01*
X112831327Y-59185942D01*
X112903000Y-59215630D01*
X112903000Y-60766424D01*
X112800826Y-60664250D01*
X112370251Y-60376549D01*
X111891822Y-60178377D01*
X111383924Y-60077350D01*
X110866076Y-60077350D01*
X110358178Y-60178377D01*
X109879749Y-60376549D01*
X109449174Y-60664250D01*
X109083000Y-61030424D01*
X108795299Y-61460999D01*
X108597127Y-61939428D01*
X108496100Y-62447326D01*
X108496100Y-62965174D01*
X108597127Y-63473072D01*
X108795299Y-63951501D01*
X109083000Y-64382076D01*
X109449174Y-64748250D01*
X109879749Y-65035951D01*
X110358178Y-65234123D01*
X110866076Y-65335150D01*
X111383924Y-65335150D01*
X111891822Y-65234123D01*
X112370251Y-65035951D01*
X112800826Y-64748250D01*
X112903000Y-64646076D01*
X112903001Y-75086870D01*
X112831327Y-75116558D01*
X112543065Y-75309169D01*
X112297919Y-75554315D01*
X112105308Y-75842577D01*
X111972636Y-76162877D01*
X111905000Y-76502905D01*
X111905000Y-76849595D01*
X111972636Y-77189623D01*
X112105308Y-77509923D01*
X112297919Y-77798185D01*
X112543065Y-78043331D01*
X112831327Y-78235942D01*
X112903000Y-78265630D01*
X112903000Y-79816424D01*
X112800826Y-79714250D01*
X112370251Y-79426549D01*
X111891822Y-79228377D01*
X111383924Y-79127350D01*
X110866076Y-79127350D01*
X110358178Y-79228377D01*
X109879749Y-79426549D01*
X109449174Y-79714250D01*
X109083000Y-80080424D01*
X108795299Y-80510999D01*
X108597127Y-80989428D01*
X108496100Y-81497326D01*
X108496100Y-82015174D01*
X108597127Y-82523072D01*
X108795299Y-83001501D01*
X109083000Y-83432076D01*
X109449174Y-83798250D01*
X109879749Y-84085951D01*
X110358178Y-84284123D01*
X110866076Y-84385150D01*
X111383924Y-84385150D01*
X111891822Y-84284123D01*
X112370251Y-84085951D01*
X112800826Y-83798250D01*
X112903000Y-83696076D01*
X112903001Y-89289935D01*
X111632427Y-90560510D01*
X94730621Y-90560510D01*
X95127352Y-90163779D01*
X95156422Y-90139922D01*
X95251645Y-90023892D01*
X95319528Y-89896892D01*
X95322401Y-89891517D01*
X95342686Y-89824647D01*
X95365974Y-89747878D01*
X95377000Y-89635926D01*
X95377000Y-89635924D01*
X95380686Y-89598501D01*
X95377000Y-89561078D01*
X95377000Y-81607528D01*
X95645000Y-81607528D01*
X95645000Y-81904972D01*
X95703029Y-82196701D01*
X95816856Y-82471503D01*
X95982107Y-82718819D01*
X96192431Y-82929143D01*
X96439747Y-83094394D01*
X96714549Y-83208221D01*
X97006278Y-83266250D01*
X97303722Y-83266250D01*
X97595451Y-83208221D01*
X97870253Y-83094394D01*
X98117569Y-82929143D01*
X98327893Y-82718819D01*
X98493144Y-82471503D01*
X98606971Y-82196701D01*
X98665000Y-81904972D01*
X98665000Y-81607528D01*
X104535000Y-81607528D01*
X104535000Y-81904972D01*
X104593029Y-82196701D01*
X104706856Y-82471503D01*
X104872107Y-82718819D01*
X105082431Y-82929143D01*
X105329747Y-83094394D01*
X105604549Y-83208221D01*
X105896278Y-83266250D01*
X106193722Y-83266250D01*
X106485451Y-83208221D01*
X106760253Y-83094394D01*
X107007569Y-82929143D01*
X107217893Y-82718819D01*
X107383144Y-82471503D01*
X107496971Y-82196701D01*
X107555000Y-81904972D01*
X107555000Y-81607528D01*
X107496971Y-81315799D01*
X107383144Y-81040997D01*
X107339882Y-80976250D01*
X107488345Y-80976250D01*
X107828373Y-80908614D01*
X108148673Y-80775942D01*
X108436935Y-80583331D01*
X108682081Y-80338185D01*
X108874692Y-80049923D01*
X109007364Y-79729623D01*
X109075000Y-79389595D01*
X109075000Y-79042905D01*
X109007364Y-78702877D01*
X108874692Y-78382577D01*
X108682081Y-78094315D01*
X108436935Y-77849169D01*
X108148673Y-77656558D01*
X107828373Y-77523886D01*
X107488345Y-77456250D01*
X107141655Y-77456250D01*
X106801627Y-77523886D01*
X106481327Y-77656558D01*
X106193065Y-77849169D01*
X105947919Y-78094315D01*
X105755308Y-78382577D01*
X105622636Y-78702877D01*
X105555000Y-79042905D01*
X105555000Y-79389595D01*
X105622636Y-79729623D01*
X105755308Y-80049923D01*
X105887638Y-80247969D01*
X105604549Y-80304279D01*
X105329747Y-80418106D01*
X105082431Y-80583357D01*
X104872107Y-80793681D01*
X104706856Y-81040997D01*
X104593029Y-81315799D01*
X104535000Y-81607528D01*
X98665000Y-81607528D01*
X98606971Y-81315799D01*
X98493144Y-81040997D01*
X98327893Y-80793681D01*
X98117569Y-80583357D01*
X97870253Y-80418106D01*
X97595451Y-80304279D01*
X97303722Y-80246250D01*
X97006278Y-80246250D01*
X96714549Y-80304279D01*
X96439747Y-80418106D01*
X96192431Y-80583357D01*
X95982107Y-80793681D01*
X95816856Y-81040997D01*
X95703029Y-81315799D01*
X95645000Y-81607528D01*
X95377000Y-81607528D01*
X95377000Y-78265630D01*
X95448673Y-78235942D01*
X95736935Y-78043331D01*
X95982081Y-77798185D01*
X96174692Y-77509923D01*
X96307364Y-77189623D01*
X96375000Y-76849595D01*
X96375000Y-76502905D01*
X96307364Y-76162877D01*
X96174692Y-75842577D01*
X95982081Y-75554315D01*
X95736935Y-75309169D01*
X95448673Y-75116558D01*
X95218250Y-75021114D01*
X95218250Y-71516580D01*
X95230713Y-71511418D01*
X95498502Y-71332487D01*
X95726237Y-71104752D01*
X95905168Y-70836963D01*
X96028418Y-70539412D01*
X96091250Y-70223533D01*
X96091250Y-69901467D01*
X96028418Y-69585588D01*
X95905168Y-69288037D01*
X95726237Y-69020248D01*
X95498502Y-68792513D01*
X95230713Y-68613582D01*
X94933162Y-68490332D01*
X94617283Y-68427500D01*
X94295217Y-68427500D01*
X93979338Y-68490332D01*
X93681787Y-68613582D01*
X93413998Y-68792513D01*
X93186263Y-69020248D01*
X93007332Y-69288037D01*
X92884082Y-69585588D01*
X92821250Y-69901467D01*
X92821250Y-70223533D01*
X92884082Y-70539412D01*
X93007332Y-70836963D01*
X93186263Y-71104752D01*
X93413998Y-71332487D01*
X93681787Y-71511418D01*
X93694250Y-71516580D01*
X93694251Y-75174741D01*
X93493065Y-75309169D01*
X93247919Y-75554315D01*
X93055308Y-75842577D01*
X92922636Y-76162877D01*
X92855000Y-76502905D01*
X92855000Y-76849595D01*
X92922636Y-77189623D01*
X93055308Y-77509923D01*
X93247919Y-77798185D01*
X93493065Y-78043331D01*
X93781327Y-78235942D01*
X93853000Y-78265630D01*
X93853000Y-79816424D01*
X93750826Y-79714250D01*
X93320251Y-79426549D01*
X92841822Y-79228377D01*
X92333924Y-79127350D01*
X91816076Y-79127350D01*
X91308178Y-79228377D01*
X90829749Y-79426549D01*
X90399174Y-79714250D01*
X90033000Y-80080424D01*
X89745299Y-80510999D01*
X89547127Y-80989428D01*
X89446100Y-81497326D01*
X89446100Y-82015174D01*
X89547127Y-82523072D01*
X89745299Y-83001501D01*
X90033000Y-83432076D01*
X90399174Y-83798250D01*
X90829749Y-84085951D01*
X91308178Y-84284123D01*
X91816076Y-84385150D01*
X92333924Y-84385150D01*
X92841822Y-84284123D01*
X93320251Y-84085951D01*
X93750826Y-83798250D01*
X93853000Y-83696076D01*
X93853001Y-89282868D01*
X93029370Y-90106500D01*
X64196630Y-90106500D01*
X63817329Y-89727199D01*
X63999595Y-89802696D01*
X64257514Y-89854000D01*
X64520486Y-89854000D01*
X64778405Y-89802696D01*
X65021359Y-89702061D01*
X65240013Y-89555962D01*
X65425962Y-89370013D01*
X65572061Y-89151359D01*
X65672696Y-88908405D01*
X65724000Y-88650486D01*
X65724000Y-88387514D01*
X66864000Y-88387514D01*
X66864000Y-88650486D01*
X66915304Y-88908405D01*
X67015939Y-89151359D01*
X67162038Y-89370013D01*
X67347987Y-89555962D01*
X67566641Y-89702061D01*
X67809595Y-89802696D01*
X68067514Y-89854000D01*
X68330486Y-89854000D01*
X68588405Y-89802696D01*
X68831359Y-89702061D01*
X69050013Y-89555962D01*
X69235962Y-89370013D01*
X69382061Y-89151359D01*
X69482696Y-88908405D01*
X69534000Y-88650486D01*
X69534000Y-88387514D01*
X69482696Y-88129595D01*
X69382061Y-87886641D01*
X69235962Y-87667987D01*
X69206044Y-87638069D01*
X78502154Y-87638069D01*
X78502154Y-87920739D01*
X78557301Y-88197978D01*
X78665474Y-88459131D01*
X78822517Y-88694163D01*
X79022395Y-88894041D01*
X79257427Y-89051084D01*
X79518580Y-89159257D01*
X79795819Y-89214404D01*
X80078489Y-89214404D01*
X80355728Y-89159257D01*
X80616881Y-89051084D01*
X80851913Y-88894041D01*
X81051791Y-88694163D01*
X81208834Y-88459131D01*
X81317007Y-88197978D01*
X81372154Y-87920739D01*
X81372154Y-87638069D01*
X81317007Y-87360830D01*
X81208834Y-87099677D01*
X81051791Y-86864645D01*
X80851913Y-86664767D01*
X80616881Y-86507724D01*
X80355728Y-86399551D01*
X80078489Y-86344404D01*
X79795819Y-86344404D01*
X79518580Y-86399551D01*
X79257427Y-86507724D01*
X79022395Y-86664767D01*
X78822517Y-86864645D01*
X78665474Y-87099677D01*
X78557301Y-87360830D01*
X78502154Y-87638069D01*
X69206044Y-87638069D01*
X69050013Y-87482038D01*
X68831359Y-87335939D01*
X68588405Y-87235304D01*
X68330486Y-87184000D01*
X68067514Y-87184000D01*
X67809595Y-87235304D01*
X67566641Y-87335939D01*
X67347987Y-87482038D01*
X67162038Y-87667987D01*
X67015939Y-87886641D01*
X66915304Y-88129595D01*
X66864000Y-88387514D01*
X65724000Y-88387514D01*
X65672696Y-88129595D01*
X65572061Y-87886641D01*
X65425962Y-87667987D01*
X65240013Y-87482038D01*
X65021359Y-87335939D01*
X64778405Y-87235304D01*
X64520486Y-87184000D01*
X64257514Y-87184000D01*
X63999595Y-87235304D01*
X63756641Y-87335939D01*
X63537987Y-87482038D01*
X63352038Y-87667987D01*
X63205939Y-87886641D01*
X63105304Y-88129595D01*
X63054000Y-88387514D01*
X63054000Y-88650486D01*
X63105304Y-88908405D01*
X63180801Y-89090671D01*
X62160523Y-88070393D01*
X62160523Y-85184946D01*
X62164209Y-85147523D01*
X62160523Y-85110097D01*
X62149497Y-84998145D01*
X62105925Y-84854508D01*
X62072988Y-84792887D01*
X62035168Y-84722130D01*
X61963802Y-84635171D01*
X61939945Y-84606101D01*
X61910876Y-84582245D01*
X59719881Y-82391250D01*
X72779557Y-82391250D01*
X72791817Y-82515732D01*
X72828127Y-82635430D01*
X72887092Y-82745744D01*
X72966444Y-82842435D01*
X74097815Y-83973806D01*
X74194506Y-84053158D01*
X74304820Y-84112123D01*
X74424518Y-84148433D01*
X74549000Y-84160693D01*
X74673482Y-84148433D01*
X74793180Y-84112123D01*
X74903494Y-84053158D01*
X75000185Y-83973806D01*
X76098422Y-82875569D01*
X78502154Y-82875569D01*
X78502154Y-83158239D01*
X78557301Y-83435478D01*
X78665474Y-83696631D01*
X78822517Y-83931663D01*
X79022395Y-84131541D01*
X79257427Y-84288584D01*
X79518580Y-84396757D01*
X79795819Y-84451904D01*
X80078489Y-84451904D01*
X80355728Y-84396757D01*
X80616881Y-84288584D01*
X80851913Y-84131541D01*
X81051791Y-83931663D01*
X81208834Y-83696631D01*
X81317007Y-83435478D01*
X81372154Y-83158239D01*
X81372154Y-82875569D01*
X81317007Y-82598330D01*
X81208834Y-82337177D01*
X81051791Y-82102145D01*
X80851913Y-81902267D01*
X80616881Y-81745224D01*
X80355728Y-81637051D01*
X80207308Y-81607528D01*
X85485000Y-81607528D01*
X85485000Y-81904972D01*
X85543029Y-82196701D01*
X85656856Y-82471503D01*
X85822107Y-82718819D01*
X86032431Y-82929143D01*
X86279747Y-83094394D01*
X86554549Y-83208221D01*
X86846278Y-83266250D01*
X87143722Y-83266250D01*
X87435451Y-83208221D01*
X87710253Y-83094394D01*
X87957569Y-82929143D01*
X88167893Y-82718819D01*
X88333144Y-82471503D01*
X88446971Y-82196701D01*
X88505000Y-81904972D01*
X88505000Y-81607528D01*
X88446971Y-81315799D01*
X88333144Y-81040997D01*
X88289882Y-80976250D01*
X88438345Y-80976250D01*
X88778373Y-80908614D01*
X89098673Y-80775942D01*
X89386935Y-80583331D01*
X89632081Y-80338185D01*
X89824692Y-80049923D01*
X89957364Y-79729623D01*
X90025000Y-79389595D01*
X90025000Y-79042905D01*
X89957364Y-78702877D01*
X89824692Y-78382577D01*
X89632081Y-78094315D01*
X89386935Y-77849169D01*
X89098673Y-77656558D01*
X88778373Y-77523886D01*
X88438345Y-77456250D01*
X88091655Y-77456250D01*
X87751627Y-77523886D01*
X87431327Y-77656558D01*
X87143065Y-77849169D01*
X86897919Y-78094315D01*
X86705308Y-78382577D01*
X86572636Y-78702877D01*
X86505000Y-79042905D01*
X86505000Y-79389595D01*
X86572636Y-79729623D01*
X86705308Y-80049923D01*
X86837638Y-80247969D01*
X86554549Y-80304279D01*
X86279747Y-80418106D01*
X86032431Y-80583357D01*
X85822107Y-80793681D01*
X85656856Y-81040997D01*
X85543029Y-81315799D01*
X85485000Y-81607528D01*
X80207308Y-81607528D01*
X80078489Y-81581904D01*
X79795819Y-81581904D01*
X79518580Y-81637051D01*
X79257427Y-81745224D01*
X79022395Y-81902267D01*
X78822517Y-82102145D01*
X78665474Y-82337177D01*
X78557301Y-82598330D01*
X78502154Y-82875569D01*
X76098422Y-82875569D01*
X76131556Y-82842435D01*
X76210908Y-82745744D01*
X76269873Y-82635430D01*
X76306183Y-82515732D01*
X76318443Y-82391250D01*
X76306183Y-82266768D01*
X76269873Y-82147070D01*
X76210908Y-82036756D01*
X76131556Y-81940065D01*
X75000185Y-80808694D01*
X74903494Y-80729342D01*
X74793180Y-80670377D01*
X74673482Y-80634067D01*
X74549000Y-80621807D01*
X74424518Y-80634067D01*
X74304820Y-80670377D01*
X74194506Y-80729342D01*
X74097815Y-80808694D01*
X72966444Y-81940065D01*
X72887092Y-82036756D01*
X72828127Y-82147070D01*
X72791817Y-82266768D01*
X72779557Y-82391250D01*
X59719881Y-82391250D01*
X59630046Y-82301415D01*
X59677300Y-82063850D01*
X59677300Y-81766150D01*
X59619222Y-81474170D01*
X59505297Y-81199131D01*
X59339904Y-80951602D01*
X59155816Y-80767514D01*
X63054000Y-80767514D01*
X63054000Y-81030486D01*
X63105304Y-81288405D01*
X63205939Y-81531359D01*
X63352038Y-81750013D01*
X63537987Y-81935962D01*
X63756641Y-82082061D01*
X63999595Y-82182696D01*
X64257514Y-82234000D01*
X64520486Y-82234000D01*
X64778405Y-82182696D01*
X65021359Y-82082061D01*
X65240013Y-81935962D01*
X65425962Y-81750013D01*
X65572061Y-81531359D01*
X65672696Y-81288405D01*
X65724000Y-81030486D01*
X65724000Y-80767514D01*
X66864000Y-80767514D01*
X66864000Y-81030486D01*
X66915304Y-81288405D01*
X67015939Y-81531359D01*
X67162038Y-81750013D01*
X67347987Y-81935962D01*
X67566641Y-82082061D01*
X67809595Y-82182696D01*
X68067514Y-82234000D01*
X68330486Y-82234000D01*
X68588405Y-82182696D01*
X68831359Y-82082061D01*
X69050013Y-81935962D01*
X69235962Y-81750013D01*
X69382061Y-81531359D01*
X69482696Y-81288405D01*
X69534000Y-81030486D01*
X69534000Y-80767514D01*
X69482696Y-80509595D01*
X69382061Y-80266641D01*
X69235962Y-80047987D01*
X69050013Y-79862038D01*
X68831359Y-79715939D01*
X68588405Y-79615304D01*
X68330486Y-79564000D01*
X68067514Y-79564000D01*
X67809595Y-79615304D01*
X67566641Y-79715939D01*
X67347987Y-79862038D01*
X67162038Y-80047987D01*
X67015939Y-80266641D01*
X66915304Y-80509595D01*
X66864000Y-80767514D01*
X65724000Y-80767514D01*
X65672696Y-80509595D01*
X65572061Y-80266641D01*
X65425962Y-80047987D01*
X65240013Y-79862038D01*
X65021359Y-79715939D01*
X64778405Y-79615304D01*
X64520486Y-79564000D01*
X64257514Y-79564000D01*
X63999595Y-79615304D01*
X63756641Y-79715939D01*
X63537987Y-79862038D01*
X63352038Y-80047987D01*
X63205939Y-80266641D01*
X63105304Y-80509595D01*
X63054000Y-80767514D01*
X59155816Y-80767514D01*
X59129398Y-80741096D01*
X58985580Y-80645000D01*
X59129398Y-80548904D01*
X59339904Y-80338398D01*
X59505297Y-80090869D01*
X59619222Y-79815830D01*
X59677300Y-79523850D01*
X59677300Y-79226150D01*
X59619222Y-78934170D01*
X59505297Y-78659131D01*
X59339904Y-78411602D01*
X59129398Y-78201096D01*
X58985580Y-78105000D01*
X59129398Y-78008904D01*
X59339904Y-77798398D01*
X59453258Y-77628750D01*
X72779557Y-77628750D01*
X72791817Y-77753232D01*
X72828127Y-77872930D01*
X72887092Y-77983244D01*
X72966444Y-78079935D01*
X74097815Y-79211306D01*
X74194506Y-79290658D01*
X74304820Y-79349623D01*
X74424518Y-79385933D01*
X74549000Y-79398193D01*
X74673482Y-79385933D01*
X74793180Y-79349623D01*
X74903494Y-79290658D01*
X75000185Y-79211306D01*
X76098422Y-78113069D01*
X78502154Y-78113069D01*
X78502154Y-78395739D01*
X78557301Y-78672978D01*
X78665474Y-78934131D01*
X78822517Y-79169163D01*
X79022395Y-79369041D01*
X79257427Y-79526084D01*
X79518580Y-79634257D01*
X79795819Y-79689404D01*
X80078489Y-79689404D01*
X80355728Y-79634257D01*
X80616881Y-79526084D01*
X80851913Y-79369041D01*
X81051791Y-79169163D01*
X81208834Y-78934131D01*
X81317007Y-78672978D01*
X81372154Y-78395739D01*
X81372154Y-78113069D01*
X81317007Y-77835830D01*
X81208834Y-77574677D01*
X81051791Y-77339645D01*
X80851913Y-77139767D01*
X80616881Y-76982724D01*
X80355728Y-76874551D01*
X80078489Y-76819404D01*
X79795819Y-76819404D01*
X79518580Y-76874551D01*
X79257427Y-76982724D01*
X79022395Y-77139767D01*
X78822517Y-77339645D01*
X78665474Y-77574677D01*
X78557301Y-77835830D01*
X78502154Y-78113069D01*
X76098422Y-78113069D01*
X76131556Y-78079935D01*
X76210908Y-77983244D01*
X76269873Y-77872930D01*
X76306183Y-77753232D01*
X76318443Y-77628750D01*
X76306183Y-77504268D01*
X76269873Y-77384570D01*
X76210908Y-77274256D01*
X76131556Y-77177565D01*
X75000185Y-76046194D01*
X74903494Y-75966842D01*
X74793180Y-75907877D01*
X74673482Y-75871567D01*
X74549000Y-75859307D01*
X74424518Y-75871567D01*
X74304820Y-75907877D01*
X74194506Y-75966842D01*
X74097815Y-76046194D01*
X72966444Y-77177565D01*
X72887092Y-77274256D01*
X72828127Y-77384570D01*
X72791817Y-77504268D01*
X72779557Y-77628750D01*
X59453258Y-77628750D01*
X59505297Y-77550869D01*
X59619222Y-77275830D01*
X59677300Y-76983850D01*
X59677300Y-76686150D01*
X59619222Y-76394170D01*
X59505297Y-76119131D01*
X59339904Y-75871602D01*
X59129398Y-75661096D01*
X58985580Y-75565000D01*
X59129398Y-75468904D01*
X59149302Y-75449000D01*
X63390678Y-75449000D01*
X63402938Y-75573482D01*
X63439248Y-75693180D01*
X63498213Y-75803494D01*
X63577565Y-75900185D01*
X63674256Y-75979537D01*
X63784570Y-76038502D01*
X63904268Y-76074812D01*
X64028750Y-76087072D01*
X64643000Y-76084000D01*
X64801750Y-75925250D01*
X64801750Y-74676000D01*
X63552500Y-74676000D01*
X63393750Y-74834750D01*
X63390678Y-75449000D01*
X59149302Y-75449000D01*
X59339904Y-75258398D01*
X59505297Y-75010869D01*
X59619222Y-74735830D01*
X59677300Y-74443850D01*
X59677300Y-74146150D01*
X59619222Y-73854170D01*
X59534238Y-73649000D01*
X63390678Y-73649000D01*
X63393750Y-74263250D01*
X63552500Y-74422000D01*
X64801750Y-74422000D01*
X64801750Y-73172750D01*
X65055750Y-73172750D01*
X65055750Y-74422000D01*
X65075750Y-74422000D01*
X65075750Y-74676000D01*
X65055750Y-74676000D01*
X65055750Y-75925250D01*
X65214500Y-76084000D01*
X65828750Y-76087072D01*
X65953232Y-76074812D01*
X66072930Y-76038502D01*
X66183244Y-75979537D01*
X66279935Y-75900185D01*
X66359287Y-75803494D01*
X66418252Y-75693180D01*
X66423806Y-75674873D01*
X66490245Y-75741312D01*
X66741655Y-75909299D01*
X67021007Y-76025011D01*
X67317566Y-76084000D01*
X67619934Y-76084000D01*
X67916493Y-76025011D01*
X68195845Y-75909299D01*
X68447255Y-75741312D01*
X68661062Y-75527505D01*
X68829049Y-75276095D01*
X68944761Y-74996743D01*
X69003750Y-74700184D01*
X69003750Y-74397816D01*
X68944761Y-74101257D01*
X68829049Y-73821905D01*
X68661062Y-73570495D01*
X68447255Y-73356688D01*
X68195845Y-73188701D01*
X67916493Y-73072989D01*
X67619934Y-73014000D01*
X67317566Y-73014000D01*
X67021007Y-73072989D01*
X66741655Y-73188701D01*
X66490245Y-73356688D01*
X66423806Y-73423127D01*
X66418252Y-73404820D01*
X66359287Y-73294506D01*
X66279935Y-73197815D01*
X66183244Y-73118463D01*
X66072930Y-73059498D01*
X65953232Y-73023188D01*
X65828750Y-73010928D01*
X65214500Y-73014000D01*
X65055750Y-73172750D01*
X64801750Y-73172750D01*
X64643000Y-73014000D01*
X64028750Y-73010928D01*
X63904268Y-73023188D01*
X63784570Y-73059498D01*
X63674256Y-73118463D01*
X63577565Y-73197815D01*
X63498213Y-73294506D01*
X63439248Y-73404820D01*
X63402938Y-73524518D01*
X63390678Y-73649000D01*
X59534238Y-73649000D01*
X59505297Y-73579131D01*
X59339904Y-73331602D01*
X59129398Y-73121096D01*
X58985580Y-73025000D01*
X59129398Y-72928904D01*
X59192052Y-72866250D01*
X72779557Y-72866250D01*
X72791817Y-72990732D01*
X72828127Y-73110430D01*
X72887092Y-73220744D01*
X72966444Y-73317435D01*
X74097815Y-74448806D01*
X74194506Y-74528158D01*
X74304820Y-74587123D01*
X74424518Y-74623433D01*
X74549000Y-74635693D01*
X74673482Y-74623433D01*
X74793180Y-74587123D01*
X74903494Y-74528158D01*
X75000185Y-74448806D01*
X76098422Y-73350569D01*
X78502154Y-73350569D01*
X78502154Y-73633239D01*
X78557301Y-73910478D01*
X78665474Y-74171631D01*
X78822517Y-74406663D01*
X79022395Y-74606541D01*
X79257427Y-74763584D01*
X79518580Y-74871757D01*
X79795819Y-74926904D01*
X80078489Y-74926904D01*
X80355728Y-74871757D01*
X80616881Y-74763584D01*
X80851913Y-74606541D01*
X81051791Y-74406663D01*
X81208834Y-74171631D01*
X81317007Y-73910478D01*
X81372154Y-73633239D01*
X81372154Y-73350569D01*
X81317007Y-73073330D01*
X81208834Y-72812177D01*
X81051791Y-72577145D01*
X80851913Y-72377267D01*
X80616881Y-72220224D01*
X80355728Y-72112051D01*
X80078489Y-72056904D01*
X79795819Y-72056904D01*
X79518580Y-72112051D01*
X79257427Y-72220224D01*
X79022395Y-72377267D01*
X78822517Y-72577145D01*
X78665474Y-72812177D01*
X78557301Y-73073330D01*
X78502154Y-73350569D01*
X76098422Y-73350569D01*
X76131556Y-73317435D01*
X76210908Y-73220744D01*
X76269873Y-73110430D01*
X76306183Y-72990732D01*
X76318443Y-72866250D01*
X76306183Y-72741768D01*
X76269873Y-72622070D01*
X76210908Y-72511756D01*
X76131556Y-72415065D01*
X75000185Y-71283694D01*
X74903494Y-71204342D01*
X74793180Y-71145377D01*
X74673482Y-71109067D01*
X74549000Y-71096807D01*
X74424518Y-71109067D01*
X74304820Y-71145377D01*
X74194506Y-71204342D01*
X74097815Y-71283694D01*
X72966444Y-72415065D01*
X72887092Y-72511756D01*
X72828127Y-72622070D01*
X72791817Y-72741768D01*
X72779557Y-72866250D01*
X59192052Y-72866250D01*
X59339904Y-72718398D01*
X59505297Y-72470869D01*
X59619222Y-72195830D01*
X59677300Y-71903850D01*
X59677300Y-71606150D01*
X59619222Y-71314170D01*
X59505297Y-71039131D01*
X59339904Y-70791602D01*
X59129398Y-70581096D01*
X58985580Y-70485000D01*
X59129398Y-70388904D01*
X59339904Y-70178398D01*
X59505297Y-69930869D01*
X59619222Y-69655830D01*
X59623302Y-69635316D01*
X63393750Y-69635316D01*
X63393750Y-69937684D01*
X63452739Y-70234243D01*
X63568451Y-70513595D01*
X63736438Y-70765005D01*
X63950245Y-70978812D01*
X64201655Y-71146799D01*
X64481007Y-71262511D01*
X64777566Y-71321500D01*
X65079934Y-71321500D01*
X65376493Y-71262511D01*
X65655845Y-71146799D01*
X65907255Y-70978812D01*
X65973694Y-70912373D01*
X65979248Y-70930680D01*
X66038213Y-71040994D01*
X66117565Y-71137685D01*
X66214256Y-71217037D01*
X66324570Y-71276002D01*
X66444268Y-71312312D01*
X66568750Y-71324572D01*
X67183000Y-71321500D01*
X67341750Y-71162750D01*
X67341750Y-69913500D01*
X67595750Y-69913500D01*
X67595750Y-71162750D01*
X67754500Y-71321500D01*
X68368750Y-71324572D01*
X68493232Y-71312312D01*
X68612930Y-71276002D01*
X68723244Y-71217037D01*
X68819935Y-71137685D01*
X68899287Y-71040994D01*
X68958252Y-70930680D01*
X68994562Y-70810982D01*
X69006822Y-70686500D01*
X69003750Y-70072250D01*
X68845000Y-69913500D01*
X67595750Y-69913500D01*
X67341750Y-69913500D01*
X67321750Y-69913500D01*
X67321750Y-69659500D01*
X67341750Y-69659500D01*
X67341750Y-68410250D01*
X67595750Y-68410250D01*
X67595750Y-69659500D01*
X68845000Y-69659500D01*
X69003750Y-69500750D01*
X69006822Y-68886500D01*
X68994562Y-68762018D01*
X68958252Y-68642320D01*
X68899287Y-68532006D01*
X68819935Y-68435315D01*
X68723244Y-68355963D01*
X68612930Y-68296998D01*
X68493232Y-68260688D01*
X68368750Y-68248428D01*
X67754500Y-68251500D01*
X67595750Y-68410250D01*
X67341750Y-68410250D01*
X67183000Y-68251500D01*
X66568750Y-68248428D01*
X66444268Y-68260688D01*
X66324570Y-68296998D01*
X66214256Y-68355963D01*
X66117565Y-68435315D01*
X66038213Y-68532006D01*
X65979248Y-68642320D01*
X65973694Y-68660627D01*
X65907255Y-68594188D01*
X65655845Y-68426201D01*
X65376493Y-68310489D01*
X65079934Y-68251500D01*
X64777566Y-68251500D01*
X64481007Y-68310489D01*
X64201655Y-68426201D01*
X63950245Y-68594188D01*
X63736438Y-68807995D01*
X63568451Y-69059405D01*
X63452739Y-69338757D01*
X63393750Y-69635316D01*
X59623302Y-69635316D01*
X59677300Y-69363850D01*
X59677300Y-69066150D01*
X59619222Y-68774170D01*
X59505297Y-68499131D01*
X59339904Y-68251602D01*
X59192052Y-68103750D01*
X72779557Y-68103750D01*
X72791817Y-68228232D01*
X72828127Y-68347930D01*
X72887092Y-68458244D01*
X72966444Y-68554935D01*
X74097815Y-69686306D01*
X74194506Y-69765658D01*
X74304820Y-69824623D01*
X74424518Y-69860933D01*
X74549000Y-69873193D01*
X74673482Y-69860933D01*
X74793180Y-69824623D01*
X74903494Y-69765658D01*
X75000185Y-69686306D01*
X76098422Y-68588069D01*
X78502154Y-68588069D01*
X78502154Y-68870739D01*
X78557301Y-69147978D01*
X78665474Y-69409131D01*
X78822517Y-69644163D01*
X79022395Y-69844041D01*
X79257427Y-70001084D01*
X79518580Y-70109257D01*
X79795819Y-70164404D01*
X80078489Y-70164404D01*
X80355728Y-70109257D01*
X80616881Y-70001084D01*
X80765968Y-69901467D01*
X87821250Y-69901467D01*
X87821250Y-70223533D01*
X87884082Y-70539412D01*
X88007332Y-70836963D01*
X88186263Y-71104752D01*
X88413998Y-71332487D01*
X88681787Y-71511418D01*
X88979338Y-71634668D01*
X89295217Y-71697500D01*
X89617283Y-71697500D01*
X89933162Y-71634668D01*
X90230713Y-71511418D01*
X90498502Y-71332487D01*
X90726237Y-71104752D01*
X90905168Y-70836963D01*
X91028418Y-70539412D01*
X91091250Y-70223533D01*
X91091250Y-69901467D01*
X91028418Y-69585588D01*
X90905168Y-69288037D01*
X90726237Y-69020248D01*
X90498502Y-68792513D01*
X90230713Y-68613582D01*
X89933162Y-68490332D01*
X89617283Y-68427500D01*
X89295217Y-68427500D01*
X88979338Y-68490332D01*
X88681787Y-68613582D01*
X88413998Y-68792513D01*
X88186263Y-69020248D01*
X88007332Y-69288037D01*
X87884082Y-69585588D01*
X87821250Y-69901467D01*
X80765968Y-69901467D01*
X80851913Y-69844041D01*
X81051791Y-69644163D01*
X81208834Y-69409131D01*
X81317007Y-69147978D01*
X81372154Y-68870739D01*
X81372154Y-68588069D01*
X81317007Y-68310830D01*
X81208834Y-68049677D01*
X81051791Y-67814645D01*
X80851913Y-67614767D01*
X80616881Y-67457724D01*
X80355728Y-67349551D01*
X80078489Y-67294404D01*
X79795819Y-67294404D01*
X79518580Y-67349551D01*
X79257427Y-67457724D01*
X79022395Y-67614767D01*
X78822517Y-67814645D01*
X78665474Y-68049677D01*
X78557301Y-68310830D01*
X78502154Y-68588069D01*
X76098422Y-68588069D01*
X76131556Y-68554935D01*
X76210908Y-68458244D01*
X76269873Y-68347930D01*
X76306183Y-68228232D01*
X76318443Y-68103750D01*
X76306183Y-67979268D01*
X76269873Y-67859570D01*
X76210908Y-67749256D01*
X76131556Y-67652565D01*
X75000185Y-66521194D01*
X74903494Y-66441842D01*
X74793180Y-66382877D01*
X74673482Y-66346567D01*
X74549000Y-66334307D01*
X74424518Y-66346567D01*
X74304820Y-66382877D01*
X74194506Y-66441842D01*
X74097815Y-66521194D01*
X72966444Y-67652565D01*
X72887092Y-67749256D01*
X72828127Y-67859570D01*
X72791817Y-67979268D01*
X72779557Y-68103750D01*
X59192052Y-68103750D01*
X59129398Y-68041096D01*
X58985580Y-67945000D01*
X59129398Y-67848904D01*
X59339904Y-67638398D01*
X59505297Y-67390869D01*
X59619222Y-67115830D01*
X59677300Y-66823850D01*
X59677300Y-66526150D01*
X59619222Y-66234170D01*
X59505297Y-65959131D01*
X59339904Y-65711602D01*
X59129398Y-65501096D01*
X58985580Y-65405000D01*
X59129398Y-65308904D01*
X59339904Y-65098398D01*
X59474473Y-64897000D01*
X62004507Y-64897000D01*
X62080013Y-65010002D01*
X62307748Y-65237737D01*
X62575537Y-65416668D01*
X62873088Y-65539918D01*
X63188967Y-65602750D01*
X63511033Y-65602750D01*
X63826912Y-65539918D01*
X64124463Y-65416668D01*
X64392252Y-65237737D01*
X64619987Y-65010002D01*
X64798918Y-64742213D01*
X64922168Y-64444662D01*
X64985000Y-64128783D01*
X64985000Y-63806717D01*
X68215000Y-63806717D01*
X68215000Y-64128783D01*
X68277832Y-64444662D01*
X68401082Y-64742213D01*
X68580013Y-65010002D01*
X68807748Y-65237737D01*
X69075537Y-65416668D01*
X69373088Y-65539918D01*
X69688967Y-65602750D01*
X70011033Y-65602750D01*
X70326912Y-65539918D01*
X70624463Y-65416668D01*
X70892252Y-65237737D01*
X71119987Y-65010002D01*
X71298918Y-64742213D01*
X71422168Y-64444662D01*
X71485000Y-64128783D01*
X71485000Y-63806717D01*
X71422168Y-63490838D01*
X71360207Y-63341250D01*
X72779557Y-63341250D01*
X72791817Y-63465732D01*
X72828127Y-63585430D01*
X72887092Y-63695744D01*
X72966444Y-63792435D01*
X74097815Y-64923806D01*
X74194506Y-65003158D01*
X74304820Y-65062123D01*
X74424518Y-65098433D01*
X74549000Y-65110693D01*
X74673482Y-65098433D01*
X74793180Y-65062123D01*
X74903494Y-65003158D01*
X75000185Y-64923806D01*
X76098422Y-63825569D01*
X78502154Y-63825569D01*
X78502154Y-64108239D01*
X78557301Y-64385478D01*
X78665474Y-64646631D01*
X78822517Y-64881663D01*
X79022395Y-65081541D01*
X79257427Y-65238584D01*
X79518580Y-65346757D01*
X79795819Y-65401904D01*
X80078489Y-65401904D01*
X80355728Y-65346757D01*
X80616881Y-65238584D01*
X80851913Y-65081541D01*
X81051791Y-64881663D01*
X81208834Y-64646631D01*
X81317007Y-64385478D01*
X81372154Y-64108239D01*
X81372154Y-63825569D01*
X81317007Y-63548330D01*
X81208834Y-63287177D01*
X81051791Y-63052145D01*
X80851913Y-62852267D01*
X80616881Y-62695224D01*
X80355728Y-62587051D01*
X80078489Y-62531904D01*
X79795819Y-62531904D01*
X79518580Y-62587051D01*
X79257427Y-62695224D01*
X79022395Y-62852267D01*
X78822517Y-63052145D01*
X78665474Y-63287177D01*
X78557301Y-63548330D01*
X78502154Y-63825569D01*
X76098422Y-63825569D01*
X76131556Y-63792435D01*
X76210908Y-63695744D01*
X76269873Y-63585430D01*
X76306183Y-63465732D01*
X76318443Y-63341250D01*
X76306183Y-63216768D01*
X76269873Y-63097070D01*
X76210908Y-62986756D01*
X76131556Y-62890065D01*
X75000185Y-61758694D01*
X74903494Y-61679342D01*
X74793180Y-61620377D01*
X74673482Y-61584067D01*
X74549000Y-61571807D01*
X74424518Y-61584067D01*
X74304820Y-61620377D01*
X74194506Y-61679342D01*
X74097815Y-61758694D01*
X72966444Y-62890065D01*
X72887092Y-62986756D01*
X72828127Y-63097070D01*
X72791817Y-63216768D01*
X72779557Y-63341250D01*
X71360207Y-63341250D01*
X71298918Y-63193287D01*
X71119987Y-62925498D01*
X70892252Y-62697763D01*
X70624463Y-62518832D01*
X70326912Y-62395582D01*
X70011033Y-62332750D01*
X69688967Y-62332750D01*
X69373088Y-62395582D01*
X69075537Y-62518832D01*
X68807748Y-62697763D01*
X68580013Y-62925498D01*
X68401082Y-63193287D01*
X68277832Y-63490838D01*
X68215000Y-63806717D01*
X64985000Y-63806717D01*
X64922168Y-63490838D01*
X64798918Y-63193287D01*
X64619987Y-62925498D01*
X64392252Y-62697763D01*
X64124463Y-62518832D01*
X63826912Y-62395582D01*
X63511033Y-62332750D01*
X63188967Y-62332750D01*
X62873088Y-62395582D01*
X62575537Y-62518832D01*
X62307748Y-62697763D01*
X62080013Y-62925498D01*
X61901082Y-63193287D01*
X61826642Y-63373000D01*
X59474473Y-63373000D01*
X59339904Y-63171602D01*
X59129398Y-62961096D01*
X58966191Y-62852045D01*
X59033563Y-62642169D01*
X58166000Y-61774605D01*
X57298437Y-62642169D01*
X57365809Y-62852045D01*
X57202602Y-62961096D01*
X56992096Y-63171602D01*
X56826703Y-63419131D01*
X56712778Y-63694170D01*
X56654700Y-63986150D01*
X56654700Y-64283850D01*
X56712778Y-64575830D01*
X56826703Y-64850869D01*
X56992096Y-65098398D01*
X57202602Y-65308904D01*
X57346420Y-65405000D01*
X57202602Y-65501096D01*
X56992096Y-65711602D01*
X56826703Y-65959131D01*
X56712778Y-66234170D01*
X56654700Y-66526150D01*
X56654700Y-66823850D01*
X56712778Y-67115830D01*
X56826703Y-67390869D01*
X56992096Y-67638398D01*
X57202602Y-67848904D01*
X57346420Y-67945000D01*
X57202602Y-68041096D01*
X56992096Y-68251602D01*
X56826703Y-68499131D01*
X56712778Y-68774170D01*
X56654700Y-69066150D01*
X56654700Y-69363850D01*
X56712778Y-69655830D01*
X56826703Y-69930869D01*
X56992096Y-70178398D01*
X57202602Y-70388904D01*
X57346420Y-70485000D01*
X57202602Y-70581096D01*
X56992096Y-70791602D01*
X56826703Y-71039131D01*
X56712778Y-71314170D01*
X56654700Y-71606150D01*
X56654700Y-71903850D01*
X56712778Y-72195830D01*
X56826703Y-72470869D01*
X56992096Y-72718398D01*
X57202602Y-72928904D01*
X57346420Y-73025000D01*
X57202602Y-73121096D01*
X56992096Y-73331602D01*
X56826703Y-73579131D01*
X56712778Y-73854170D01*
X56654700Y-74146150D01*
X56654700Y-74443850D01*
X56712778Y-74735830D01*
X56826703Y-75010869D01*
X56992096Y-75258398D01*
X57202602Y-75468904D01*
X57346420Y-75565000D01*
X57202602Y-75661096D01*
X56992096Y-75871602D01*
X56826703Y-76119131D01*
X56712778Y-76394170D01*
X56654700Y-76686150D01*
X56654700Y-76983850D01*
X56712778Y-77275830D01*
X56826703Y-77550869D01*
X56992096Y-77798398D01*
X57202602Y-78008904D01*
X57346420Y-78105000D01*
X57202602Y-78201096D01*
X56992096Y-78411602D01*
X56826703Y-78659131D01*
X56712778Y-78934170D01*
X56654700Y-79226150D01*
X56654700Y-79523850D01*
X56712778Y-79815830D01*
X56826703Y-80090869D01*
X56992096Y-80338398D01*
X57202602Y-80548904D01*
X57346420Y-80645000D01*
X57202602Y-80741096D01*
X56992096Y-80951602D01*
X56826703Y-81199131D01*
X56712778Y-81474170D01*
X56654700Y-81766150D01*
X56654700Y-82063850D01*
X56712778Y-82355830D01*
X56826703Y-82630869D01*
X56992096Y-82878398D01*
X57202602Y-83088904D01*
X57346420Y-83185000D01*
X57202602Y-83281096D01*
X56992096Y-83491602D01*
X56826703Y-83739131D01*
X56712778Y-84014170D01*
X56654700Y-84306150D01*
X56654700Y-84603850D01*
X56712778Y-84895830D01*
X56826703Y-85170869D01*
X56992096Y-85418398D01*
X57202602Y-85628904D01*
X57346420Y-85725000D01*
X57202602Y-85821096D01*
X56992096Y-86031602D01*
X56826703Y-86279131D01*
X56712778Y-86554170D01*
X56654700Y-86846150D01*
X56654700Y-87143850D01*
X56712778Y-87435830D01*
X56826703Y-87710869D01*
X56992096Y-87958398D01*
X57202602Y-88168904D01*
X57450131Y-88334297D01*
X57725170Y-88448222D01*
X58017150Y-88506300D01*
X58314850Y-88506300D01*
X58552415Y-88459046D01*
X62382241Y-92288872D01*
X62406098Y-92317942D01*
X62522128Y-92413165D01*
X62654505Y-92483922D01*
X62798142Y-92527494D01*
X62910094Y-92538520D01*
X62910096Y-92538520D01*
X62947519Y-92542206D01*
X62984942Y-92538520D01*
X130372557Y-92538520D01*
X130409980Y-92542206D01*
X130447403Y-92538520D01*
X130447406Y-92538520D01*
X130559358Y-92527494D01*
X130702995Y-92483922D01*
X130835372Y-92413165D01*
X130951402Y-92317942D01*
X130975264Y-92288866D01*
X133227347Y-90036783D01*
X133256422Y-90012922D01*
X133316857Y-89939281D01*
X133351645Y-89896893D01*
X133422401Y-89764516D01*
X133422402Y-89764515D01*
X133465974Y-89620878D01*
X133477000Y-89508926D01*
X133477000Y-89508923D01*
X133480686Y-89471500D01*
X133477000Y-89434077D01*
X133477000Y-81607528D01*
X133745000Y-81607528D01*
X133745000Y-81904972D01*
X133803029Y-82196701D01*
X133916856Y-82471503D01*
X134082107Y-82718819D01*
X134292431Y-82929143D01*
X134539747Y-83094394D01*
X134814549Y-83208221D01*
X135106278Y-83266250D01*
X135403722Y-83266250D01*
X135695451Y-83208221D01*
X135970253Y-83094394D01*
X136217569Y-82929143D01*
X136427893Y-82718819D01*
X136593144Y-82471503D01*
X136706971Y-82196701D01*
X136765000Y-81904972D01*
X136765000Y-81607528D01*
X136706971Y-81315799D01*
X136593144Y-81040997D01*
X136427893Y-80793681D01*
X136217569Y-80583357D01*
X135970253Y-80418106D01*
X135695451Y-80304279D01*
X135403722Y-80246250D01*
X135106278Y-80246250D01*
X134814549Y-80304279D01*
X134539747Y-80418106D01*
X134292431Y-80583357D01*
X134082107Y-80793681D01*
X133916856Y-81040997D01*
X133803029Y-81315799D01*
X133745000Y-81607528D01*
X133477000Y-81607528D01*
X133477000Y-78265630D01*
X133548673Y-78235942D01*
X133836935Y-78043331D01*
X134082081Y-77798185D01*
X134274692Y-77509923D01*
X134407364Y-77189623D01*
X134475000Y-76849595D01*
X134475000Y-76502905D01*
X134407364Y-76162877D01*
X134274692Y-75842577D01*
X134082081Y-75554315D01*
X133836935Y-75309169D01*
X133548673Y-75116558D01*
X133318250Y-75021114D01*
X133318250Y-71516580D01*
X133330713Y-71511418D01*
X133598502Y-71332487D01*
X133826237Y-71104752D01*
X134005168Y-70836963D01*
X134128418Y-70539412D01*
X134191250Y-70223533D01*
X134191250Y-69901467D01*
X134128418Y-69585588D01*
X134005168Y-69288037D01*
X133826237Y-69020248D01*
X133598502Y-68792513D01*
X133330713Y-68613582D01*
X133033162Y-68490332D01*
X132717283Y-68427500D01*
X132395217Y-68427500D01*
X132079338Y-68490332D01*
X131781787Y-68613582D01*
X131513998Y-68792513D01*
X131286263Y-69020248D01*
X131107332Y-69288037D01*
X130984082Y-69585588D01*
X130921250Y-69901467D01*
X130921250Y-70223533D01*
X130984082Y-70539412D01*
X131107332Y-70836963D01*
X131286263Y-71104752D01*
X131513998Y-71332487D01*
X131781787Y-71511418D01*
X131794250Y-71516580D01*
X131794251Y-75174741D01*
X131593065Y-75309169D01*
X131347919Y-75554315D01*
X131155308Y-75842577D01*
X131022636Y-76162877D01*
X130955000Y-76502905D01*
X130955000Y-76849595D01*
X131022636Y-77189623D01*
X131155308Y-77509923D01*
X131347919Y-77798185D01*
X131593065Y-78043331D01*
X131881327Y-78235942D01*
X131953000Y-78265630D01*
X131953000Y-78301175D01*
X131953001Y-78301185D01*
X131953001Y-79816425D01*
X131850826Y-79714250D01*
X131420251Y-79426549D01*
X130941822Y-79228377D01*
X130433924Y-79127350D01*
X129916076Y-79127350D01*
X129408178Y-79228377D01*
X128929749Y-79426549D01*
X128499174Y-79714250D01*
X128133000Y-80080424D01*
X127845299Y-80510999D01*
X127647127Y-80989428D01*
X127546100Y-81497326D01*
X127546100Y-82015174D01*
X127647127Y-82523072D01*
X127845299Y-83001501D01*
X128133000Y-83432076D01*
X128499174Y-83798250D01*
X128929749Y-84085951D01*
X129408178Y-84284123D01*
X129916076Y-84385150D01*
X130433924Y-84385150D01*
X130941822Y-84284123D01*
X131420251Y-84085951D01*
X131850826Y-83798250D01*
X131953001Y-83696075D01*
X131953000Y-89155870D01*
X130094350Y-91014520D01*
X113333677Y-91014520D01*
X114177352Y-90170846D01*
X114206422Y-90146989D01*
X114301645Y-90030959D01*
X114372402Y-89898582D01*
X114415974Y-89754945D01*
X114427000Y-89642993D01*
X114427000Y-89642991D01*
X114430686Y-89605568D01*
X114427000Y-89568145D01*
X114427000Y-81607528D01*
X114695000Y-81607528D01*
X114695000Y-81904972D01*
X114753029Y-82196701D01*
X114866856Y-82471503D01*
X115032107Y-82718819D01*
X115242431Y-82929143D01*
X115489747Y-83094394D01*
X115764549Y-83208221D01*
X116056278Y-83266250D01*
X116353722Y-83266250D01*
X116645451Y-83208221D01*
X116920253Y-83094394D01*
X117167569Y-82929143D01*
X117377893Y-82718819D01*
X117543144Y-82471503D01*
X117656971Y-82196701D01*
X117715000Y-81904972D01*
X117715000Y-81607528D01*
X123585000Y-81607528D01*
X123585000Y-81904972D01*
X123643029Y-82196701D01*
X123756856Y-82471503D01*
X123922107Y-82718819D01*
X124132431Y-82929143D01*
X124379747Y-83094394D01*
X124654549Y-83208221D01*
X124946278Y-83266250D01*
X125243722Y-83266250D01*
X125535451Y-83208221D01*
X125810253Y-83094394D01*
X126057569Y-82929143D01*
X126267893Y-82718819D01*
X126433144Y-82471503D01*
X126546971Y-82196701D01*
X126605000Y-81904972D01*
X126605000Y-81607528D01*
X126546971Y-81315799D01*
X126433144Y-81040997D01*
X126389882Y-80976250D01*
X126538345Y-80976250D01*
X126878373Y-80908614D01*
X127198673Y-80775942D01*
X127486935Y-80583331D01*
X127732081Y-80338185D01*
X127924692Y-80049923D01*
X128057364Y-79729623D01*
X128125000Y-79389595D01*
X128125000Y-79042905D01*
X128057364Y-78702877D01*
X127924692Y-78382577D01*
X127732081Y-78094315D01*
X127486935Y-77849169D01*
X127198673Y-77656558D01*
X126878373Y-77523886D01*
X126538345Y-77456250D01*
X126191655Y-77456250D01*
X125851627Y-77523886D01*
X125531327Y-77656558D01*
X125243065Y-77849169D01*
X124997919Y-78094315D01*
X124805308Y-78382577D01*
X124672636Y-78702877D01*
X124605000Y-79042905D01*
X124605000Y-79389595D01*
X124672636Y-79729623D01*
X124805308Y-80049923D01*
X124937638Y-80247969D01*
X124654549Y-80304279D01*
X124379747Y-80418106D01*
X124132431Y-80583357D01*
X123922107Y-80793681D01*
X123756856Y-81040997D01*
X123643029Y-81315799D01*
X123585000Y-81607528D01*
X117715000Y-81607528D01*
X117656971Y-81315799D01*
X117543144Y-81040997D01*
X117377893Y-80793681D01*
X117167569Y-80583357D01*
X116920253Y-80418106D01*
X116645451Y-80304279D01*
X116353722Y-80246250D01*
X116056278Y-80246250D01*
X115764549Y-80304279D01*
X115489747Y-80418106D01*
X115242431Y-80583357D01*
X115032107Y-80793681D01*
X114866856Y-81040997D01*
X114753029Y-81315799D01*
X114695000Y-81607528D01*
X114427000Y-81607528D01*
X114427000Y-78265630D01*
X114498673Y-78235942D01*
X114786935Y-78043331D01*
X115032081Y-77798185D01*
X115224692Y-77509923D01*
X115357364Y-77189623D01*
X115425000Y-76849595D01*
X115425000Y-76502905D01*
X115357364Y-76162877D01*
X115224692Y-75842577D01*
X115032081Y-75554315D01*
X114786935Y-75309169D01*
X114498673Y-75116558D01*
X114427000Y-75086870D01*
X114427000Y-69901467D01*
X125921250Y-69901467D01*
X125921250Y-70223533D01*
X125984082Y-70539412D01*
X126107332Y-70836963D01*
X126286263Y-71104752D01*
X126513998Y-71332487D01*
X126781787Y-71511418D01*
X127079338Y-71634668D01*
X127395217Y-71697500D01*
X127717283Y-71697500D01*
X128033162Y-71634668D01*
X128330713Y-71511418D01*
X128598502Y-71332487D01*
X128826237Y-71104752D01*
X129005168Y-70836963D01*
X129128418Y-70539412D01*
X129191250Y-70223533D01*
X129191250Y-69901467D01*
X129128418Y-69585588D01*
X129005168Y-69288037D01*
X128826237Y-69020248D01*
X128598502Y-68792513D01*
X128330713Y-68613582D01*
X128033162Y-68490332D01*
X127717283Y-68427500D01*
X127395217Y-68427500D01*
X127079338Y-68490332D01*
X126781787Y-68613582D01*
X126513998Y-68792513D01*
X126286263Y-69020248D01*
X126107332Y-69288037D01*
X125984082Y-69585588D01*
X125921250Y-69901467D01*
X114427000Y-69901467D01*
X114427000Y-62557528D01*
X114695000Y-62557528D01*
X114695000Y-62854972D01*
X114753029Y-63146701D01*
X114866856Y-63421503D01*
X115032107Y-63668819D01*
X115242431Y-63879143D01*
X115489747Y-64044394D01*
X115764549Y-64158221D01*
X116056278Y-64216250D01*
X116353722Y-64216250D01*
X116645451Y-64158221D01*
X116920253Y-64044394D01*
X117167569Y-63879143D01*
X117377893Y-63668819D01*
X117543144Y-63421503D01*
X117656971Y-63146701D01*
X117715000Y-62854972D01*
X117715000Y-62557528D01*
X117656971Y-62265799D01*
X117543144Y-61990997D01*
X117377893Y-61743681D01*
X117167569Y-61533357D01*
X117061524Y-61462500D01*
X122818178Y-61462500D01*
X122818178Y-64662500D01*
X122830438Y-64786982D01*
X122866748Y-64906680D01*
X122925713Y-65016994D01*
X123005065Y-65113685D01*
X123101756Y-65193037D01*
X123212070Y-65252002D01*
X123331768Y-65288312D01*
X123456250Y-65300572D01*
X125456250Y-65300572D01*
X125580732Y-65288312D01*
X125700430Y-65252002D01*
X125810744Y-65193037D01*
X125907435Y-65113685D01*
X125986787Y-65016994D01*
X126045752Y-64906680D01*
X126082062Y-64786982D01*
X126094322Y-64662500D01*
X126094322Y-61462500D01*
X134018178Y-61462500D01*
X134018178Y-64662500D01*
X134030438Y-64786982D01*
X134066748Y-64906680D01*
X134125713Y-65016994D01*
X134205065Y-65113685D01*
X134301756Y-65193037D01*
X134412070Y-65252002D01*
X134531768Y-65288312D01*
X134656250Y-65300572D01*
X136656250Y-65300572D01*
X136780732Y-65288312D01*
X136900430Y-65252002D01*
X137010744Y-65193037D01*
X137107435Y-65113685D01*
X137186787Y-65016994D01*
X137245752Y-64906680D01*
X137282062Y-64786982D01*
X137294322Y-64662500D01*
X137294322Y-61462500D01*
X137282062Y-61338018D01*
X137245752Y-61218320D01*
X137186787Y-61108006D01*
X137107435Y-61011315D01*
X137010744Y-60931963D01*
X136900430Y-60872998D01*
X136780732Y-60836688D01*
X136656250Y-60824428D01*
X134656250Y-60824428D01*
X134531768Y-60836688D01*
X134412070Y-60872998D01*
X134301756Y-60931963D01*
X134205065Y-61011315D01*
X134125713Y-61108006D01*
X134066748Y-61218320D01*
X134030438Y-61338018D01*
X134018178Y-61462500D01*
X126094322Y-61462500D01*
X126082062Y-61338018D01*
X126045752Y-61218320D01*
X125986787Y-61108006D01*
X125907435Y-61011315D01*
X125810744Y-60931963D01*
X125700430Y-60872998D01*
X125580732Y-60836688D01*
X125456250Y-60824428D01*
X123456250Y-60824428D01*
X123331768Y-60836688D01*
X123212070Y-60872998D01*
X123101756Y-60931963D01*
X123005065Y-61011315D01*
X122925713Y-61108006D01*
X122866748Y-61218320D01*
X122830438Y-61338018D01*
X122818178Y-61462500D01*
X117061524Y-61462500D01*
X116920253Y-61368106D01*
X116645451Y-61254279D01*
X116353722Y-61196250D01*
X116056278Y-61196250D01*
X115764549Y-61254279D01*
X115489747Y-61368106D01*
X115242431Y-61533357D01*
X115032107Y-61743681D01*
X114866856Y-61990997D01*
X114753029Y-62265799D01*
X114695000Y-62557528D01*
X114427000Y-62557528D01*
X114427000Y-59215630D01*
X114498673Y-59185942D01*
X114786935Y-58993331D01*
X115032081Y-58748185D01*
X115224692Y-58459923D01*
X115357364Y-58139623D01*
X115425000Y-57799595D01*
X115425000Y-57452905D01*
X115357364Y-57112877D01*
X115224692Y-56792577D01*
X115032081Y-56504315D01*
X114915766Y-56388000D01*
X115127370Y-56388000D01*
X118179721Y-59440352D01*
X118203578Y-59469422D01*
X118319608Y-59564645D01*
X118451985Y-59635402D01*
X118595622Y-59678974D01*
X118707574Y-59690000D01*
X118707576Y-59690000D01*
X118744999Y-59693686D01*
X118782422Y-59690000D01*
X131502827Y-59690000D01*
X131540250Y-59693686D01*
X131577673Y-59690000D01*
X131577676Y-59690000D01*
X131689628Y-59678974D01*
X131833265Y-59635402D01*
X131965642Y-59564645D01*
X132081672Y-59469422D01*
X132105534Y-59440346D01*
X133068601Y-58477279D01*
X133097672Y-58453422D01*
X133136385Y-58406250D01*
X133192895Y-58337393D01*
X133253367Y-58224256D01*
X133263652Y-58205015D01*
X133307224Y-58061378D01*
X133318250Y-57949426D01*
X133318250Y-57949423D01*
X133321936Y-57912000D01*
X133318250Y-57874577D01*
X133318250Y-57200572D01*
X133556250Y-57200572D01*
X133680732Y-57188312D01*
X133800430Y-57152002D01*
X133910744Y-57093037D01*
X134007435Y-57013685D01*
X134086787Y-56916994D01*
X134145752Y-56806680D01*
X134182062Y-56686982D01*
X134194322Y-56562500D01*
X134194322Y-54562500D01*
X134182062Y-54438018D01*
X134145752Y-54318320D01*
X134086787Y-54208006D01*
X134007435Y-54111315D01*
X133910744Y-54031963D01*
X133800430Y-53972998D01*
X133680732Y-53936688D01*
X133556250Y-53924428D01*
X131556250Y-53924428D01*
X131431768Y-53936688D01*
X131312070Y-53972998D01*
X131201756Y-54031963D01*
X131105065Y-54111315D01*
X131025713Y-54208006D01*
X130970274Y-54311723D01*
X130916294Y-54162686D01*
X130626679Y-54021796D01*
X130315142Y-53940116D01*
X129993655Y-53920782D01*
X129674575Y-53964539D01*
X129370162Y-54069705D01*
X129196206Y-54162686D01*
X129100442Y-54427087D01*
X130056250Y-55382895D01*
X130070393Y-55368753D01*
X130249998Y-55548358D01*
X130235855Y-55562500D01*
X130249998Y-55576643D01*
X130070393Y-55756248D01*
X130056250Y-55742105D01*
X129100442Y-56697913D01*
X129196206Y-56962314D01*
X129485821Y-57103204D01*
X129797358Y-57184884D01*
X130118845Y-57204218D01*
X130437925Y-57160461D01*
X130742338Y-57055295D01*
X130916294Y-56962314D01*
X130970274Y-56813277D01*
X131025713Y-56916994D01*
X131105065Y-57013685D01*
X131201756Y-57093037D01*
X131312070Y-57152002D01*
X131431768Y-57188312D01*
X131556250Y-57200572D01*
X131794251Y-57200572D01*
X131794251Y-57596368D01*
X131224620Y-58166000D01*
X119060631Y-58166000D01*
X116266630Y-55372000D01*
X117921370Y-55372000D01*
X118624221Y-56074851D01*
X118648078Y-56103922D01*
X118764108Y-56199145D01*
X118896485Y-56269902D01*
X119040122Y-56313474D01*
X119152074Y-56324500D01*
X119152076Y-56324500D01*
X119189499Y-56328186D01*
X119226922Y-56324500D01*
X126102170Y-56324500D01*
X126107332Y-56336963D01*
X126286263Y-56604752D01*
X126513998Y-56832487D01*
X126781787Y-57011418D01*
X127079338Y-57134668D01*
X127395217Y-57197500D01*
X127717283Y-57197500D01*
X128033162Y-57134668D01*
X128330713Y-57011418D01*
X128598502Y-56832487D01*
X128826237Y-56604752D01*
X128891175Y-56507565D01*
X128920837Y-56518308D01*
X129876645Y-55562500D01*
X128920837Y-54606692D01*
X128891175Y-54617435D01*
X128826237Y-54520248D01*
X128598502Y-54292513D01*
X128330713Y-54113582D01*
X128033162Y-53990332D01*
X127717283Y-53927500D01*
X127395217Y-53927500D01*
X127079338Y-53990332D01*
X126781787Y-54113582D01*
X126513998Y-54292513D01*
X126286263Y-54520248D01*
X126107332Y-54788037D01*
X126102170Y-54800500D01*
X119505131Y-54800500D01*
X118802284Y-54097654D01*
X118778422Y-54068578D01*
X118662392Y-53973355D01*
X118530015Y-53902598D01*
X118386378Y-53859026D01*
X118274426Y-53848000D01*
X118274423Y-53848000D01*
X118237000Y-53844314D01*
X118199577Y-53848000D01*
X104431423Y-53848000D01*
X104394000Y-53844314D01*
X104356577Y-53848000D01*
X104356574Y-53848000D01*
X104244622Y-53859026D01*
X104100985Y-53902598D01*
X104060144Y-53924428D01*
X103968607Y-53973355D01*
X103947921Y-53990332D01*
X103852578Y-54068578D01*
X103828716Y-54097654D01*
X100395370Y-57531000D01*
X93565380Y-57531000D01*
X93895808Y-57200572D01*
X95456250Y-57200572D01*
X95580732Y-57188312D01*
X95700430Y-57152002D01*
X95810744Y-57093037D01*
X95907435Y-57013685D01*
X95986787Y-56916994D01*
X96045752Y-56806680D01*
X96082062Y-56686982D01*
X96094322Y-56562500D01*
X96094322Y-54562500D01*
X96082062Y-54438018D01*
X96045752Y-54318320D01*
X95986787Y-54208006D01*
X95907435Y-54111315D01*
X95810744Y-54031963D01*
X95700430Y-53972998D01*
X95580732Y-53936688D01*
X95456250Y-53924428D01*
X93456250Y-53924428D01*
X93331768Y-53936688D01*
X93212070Y-53972998D01*
X93101756Y-54031963D01*
X93005065Y-54111315D01*
X92925713Y-54208006D01*
X92870274Y-54311723D01*
X92816294Y-54162686D01*
X92526679Y-54021796D01*
X92215142Y-53940116D01*
X91893655Y-53920782D01*
X91574575Y-53964539D01*
X91270162Y-54069705D01*
X91096206Y-54162686D01*
X91000442Y-54427087D01*
X91956250Y-55382895D01*
X91970393Y-55368753D01*
X92149998Y-55548358D01*
X92135855Y-55562500D01*
X92149998Y-55576643D01*
X91970393Y-55756248D01*
X91956250Y-55742105D01*
X91942108Y-55756248D01*
X91762503Y-55576643D01*
X91776645Y-55562500D01*
X90820837Y-54606692D01*
X90791175Y-54617435D01*
X90726237Y-54520248D01*
X90498502Y-54292513D01*
X90230713Y-54113582D01*
X89933162Y-53990332D01*
X89617283Y-53927500D01*
X89295217Y-53927500D01*
X88979338Y-53990332D01*
X88681787Y-54113582D01*
X88413998Y-54292513D01*
X88188541Y-54517970D01*
X56750251Y-54517970D01*
X56712828Y-54514284D01*
X56675405Y-54517970D01*
X56675403Y-54517970D01*
X56563451Y-54528996D01*
X56419814Y-54572568D01*
X56287437Y-54643325D01*
X56171407Y-54738548D01*
X56147550Y-54767618D01*
X53189629Y-57725541D01*
X53160559Y-57749398D01*
X53136702Y-57778468D01*
X53136701Y-57778469D01*
X53065335Y-57865428D01*
X52994579Y-57997805D01*
X52951007Y-58141442D01*
X52936294Y-58290820D01*
X52939981Y-58328253D01*
X52939980Y-66124389D01*
X50611370Y-68453000D01*
X44234473Y-68453000D01*
X44099904Y-68251602D01*
X43889398Y-68041096D01*
X43726191Y-67932045D01*
X43793563Y-67722169D01*
X42926000Y-66854605D01*
X42911858Y-66868748D01*
X42732252Y-66689142D01*
X42746395Y-66675000D01*
X43105605Y-66675000D01*
X43973169Y-67542563D01*
X44224929Y-67461746D01*
X44353457Y-67193221D01*
X44427129Y-66904781D01*
X44443113Y-66607509D01*
X44400796Y-66312833D01*
X44301802Y-66032073D01*
X44224929Y-65888254D01*
X43973169Y-65807437D01*
X43105605Y-66675000D01*
X42746395Y-66675000D01*
X42732252Y-66660858D01*
X42911858Y-66481252D01*
X42926000Y-66495395D01*
X43793563Y-65627831D01*
X43722032Y-65405000D01*
X43793563Y-65182169D01*
X42926000Y-64314605D01*
X42911858Y-64328748D01*
X42732252Y-64149142D01*
X42746395Y-64135000D01*
X43105605Y-64135000D01*
X43973169Y-65002563D01*
X44224929Y-64921746D01*
X44353457Y-64653221D01*
X44427129Y-64364781D01*
X44443113Y-64067509D01*
X44400796Y-63772833D01*
X44301802Y-63492073D01*
X44224929Y-63348254D01*
X43973169Y-63267437D01*
X43105605Y-64135000D01*
X42746395Y-64135000D01*
X42732252Y-64120858D01*
X42911858Y-63941252D01*
X42926000Y-63955395D01*
X43793563Y-63087831D01*
X43726191Y-62877955D01*
X43889398Y-62768904D01*
X44099904Y-62558398D01*
X44265297Y-62310869D01*
X44379222Y-62035830D01*
X44437300Y-61743850D01*
X44437300Y-61446150D01*
X44379222Y-61154170D01*
X44265297Y-60879131D01*
X44099904Y-60631602D01*
X44002458Y-60534156D01*
X44046480Y-60520802D01*
X44156794Y-60461837D01*
X44253485Y-60382485D01*
X44332837Y-60285794D01*
X44391802Y-60175480D01*
X44428112Y-60055782D01*
X44440372Y-59931300D01*
X44440372Y-58178700D01*
X44428112Y-58054218D01*
X44391802Y-57934520D01*
X44332837Y-57824206D01*
X44253485Y-57727515D01*
X44156794Y-57648163D01*
X44046480Y-57589198D01*
X43926782Y-57552888D01*
X43802300Y-57540628D01*
X42195750Y-57540628D01*
X42195750Y-54952228D01*
X42199647Y-54956125D01*
X42573897Y-55206191D01*
X42989740Y-55378439D01*
X43431197Y-55466250D01*
X43881303Y-55466250D01*
X44322760Y-55378439D01*
X44738603Y-55206191D01*
X45112853Y-54956125D01*
X45431125Y-54637853D01*
X45681191Y-54263603D01*
X45853439Y-53847760D01*
X45941250Y-53406303D01*
X45941250Y-52956197D01*
X45853439Y-52514740D01*
X45681191Y-52098897D01*
X45431125Y-51724647D01*
X45427228Y-51720750D01*
X136341522Y-51720750D01*
X136337625Y-51724647D01*
G37*
%TD.AperFunction*%
%TD*%
D25*
X136337625Y-97127147D02*
X136087559Y-97501397D01*
X135915311Y-97917240D01*
X135827500Y-98358697D01*
X135827500Y-98808803D01*
X135915311Y-99250260D01*
X136087559Y-99666103D01*
X136337625Y-100040353D01*
X136655897Y-100358625D01*
X137030147Y-100608691D01*
X137445990Y-100780939D01*
X137887447Y-100868750D01*
X138337553Y-100868750D01*
X138779010Y-100780939D01*
X139194853Y-100608691D01*
X139569103Y-100358625D01*
X139573000Y-100354728D01*
X139573000Y-134912772D01*
X139569103Y-134908875D01*
X139194853Y-134658809D01*
X138779010Y-134486561D01*
X138337553Y-134398750D01*
X137887447Y-134398750D01*
X137445990Y-134486561D01*
X137030147Y-134658809D01*
X136655897Y-134908875D01*
X136337625Y-135227147D01*
X136087559Y-135601397D01*
X135915311Y-136017240D01*
X135827500Y-136458697D01*
X135827500Y-136908803D01*
X135915311Y-137350260D01*
X136087559Y-137766103D01*
X136337625Y-138140353D01*
X136341522Y-138144250D01*
X45427228Y-138144250D01*
X45431125Y-138140353D01*
X45681191Y-137766103D01*
X45853439Y-137350260D01*
X45941250Y-136908803D01*
X45941250Y-136458697D01*
X45853439Y-136017240D01*
X45681191Y-135601397D01*
X45431125Y-135227147D01*
X45112853Y-134908875D01*
X44738603Y-134658809D01*
X44322760Y-134486561D01*
X43881303Y-134398750D01*
X43431197Y-134398750D01*
X42989740Y-134486561D01*
X42573897Y-134658809D01*
X42199647Y-134908875D01*
X42195750Y-134912772D01*
X42195750Y-100354728D01*
X42199647Y-100358625D01*
X42573897Y-100608691D01*
X42989740Y-100780939D01*
X43431197Y-100868750D01*
X43881303Y-100868750D01*
X44322760Y-100780939D01*
X44738603Y-100608691D01*
X45112853Y-100358625D01*
X45431125Y-100040353D01*
X45681191Y-99666103D01*
X45853439Y-99250260D01*
X45941250Y-98808803D01*
X45941250Y-98358697D01*
X45853439Y-97917240D01*
X45681191Y-97501397D01*
X45431125Y-97127147D01*
X45427228Y-97123250D01*
X136341522Y-97123250D01*
X136337625Y-97127147D01*
%TA.AperFunction,NonConductor*%
D26*
G36*
X136337625Y-97127147D02*
G01*
X136087559Y-97501397D01*
X135915311Y-97917240D01*
X135827500Y-98358697D01*
X135827500Y-98808803D01*
X135915311Y-99250260D01*
X136087559Y-99666103D01*
X136337625Y-100040353D01*
X136655897Y-100358625D01*
X137030147Y-100608691D01*
X137445990Y-100780939D01*
X137887447Y-100868750D01*
X138337553Y-100868750D01*
X138779010Y-100780939D01*
X139194853Y-100608691D01*
X139569103Y-100358625D01*
X139573000Y-100354728D01*
X139573000Y-134912772D01*
X139569103Y-134908875D01*
X139194853Y-134658809D01*
X138779010Y-134486561D01*
X138337553Y-134398750D01*
X137887447Y-134398750D01*
X137445990Y-134486561D01*
X137030147Y-134658809D01*
X136655897Y-134908875D01*
X136337625Y-135227147D01*
X136087559Y-135601397D01*
X135915311Y-136017240D01*
X135827500Y-136458697D01*
X135827500Y-136908803D01*
X135915311Y-137350260D01*
X136087559Y-137766103D01*
X136337625Y-138140353D01*
X136341522Y-138144250D01*
X45427228Y-138144250D01*
X45431125Y-138140353D01*
X45681191Y-137766103D01*
X45853439Y-137350260D01*
X45941250Y-136908803D01*
X45941250Y-136458697D01*
X45853439Y-136017240D01*
X45681191Y-135601397D01*
X45431125Y-135227147D01*
X45112853Y-134908875D01*
X44738603Y-134658809D01*
X44322760Y-134486561D01*
X43881303Y-134398750D01*
X43431197Y-134398750D01*
X42989740Y-134486561D01*
X42573897Y-134658809D01*
X42199647Y-134908875D01*
X42195750Y-134912772D01*
X42195750Y-100354728D01*
X42199647Y-100358625D01*
X42573897Y-100608691D01*
X42989740Y-100780939D01*
X43431197Y-100868750D01*
X43881303Y-100868750D01*
X44322760Y-100780939D01*
X44738603Y-100608691D01*
X45112853Y-100358625D01*
X45431125Y-100040353D01*
X45681191Y-99666103D01*
X45853439Y-99250260D01*
X45941250Y-98808803D01*
X45941250Y-98358697D01*
X45853439Y-97917240D01*
X45681191Y-97501397D01*
X45431125Y-97127147D01*
X45427228Y-97123250D01*
X136341522Y-97123250D01*
X136337625Y-97127147D01*
G37*
%TD.AperFunction*%
M02*
