M48
; DRILL file {KiCad (5.1.9)-1} date 06/03/21 20:52:16
; FORMAT={-:-/ absolute / metric / decimal}
; #@! TF.CreationDate,2021-06-03T20:52:16+02:00
; #@! TF.GenerationSoftware,Kicad,Pcbnew,(5.1.9)-1
; #@! TF.FileFunction,Plated,1,2,PTH
FMAT,2
METRIC
T1C0.700
T2C0.800
T3C0.900
T4C1.000
T5C1.092
T6C1.100
T7C1.470
T8C1.500
T9C2.300
%
G90
G05
T1
X64.389Y-80.899
X64.389Y-88.519
X68.199Y-80.899
X68.199Y-88.519
T2
X74.549Y-58.579
X74.549Y-63.341
X74.549Y-68.104
X74.549Y-72.866
X74.549Y-77.629
X74.549Y-82.391
X79.937Y-63.967
X79.937Y-68.729
X79.937Y-73.492
X79.937Y-78.254
X79.937Y-83.017
X79.937Y-87.779
T3
X64.929Y-69.787
X64.929Y-74.549
X67.469Y-69.787
X67.469Y-74.549
T4
X89.456Y-55.562
X89.456Y-70.062
X91.956Y-55.562
X94.456Y-55.562
X94.456Y-70.062
X127.556Y-55.562
X127.556Y-70.062
X130.056Y-55.562
X132.556Y-55.562
X132.556Y-70.062
T5
X42.926Y-59.055
X42.926Y-61.595
X42.926Y-64.135
X42.926Y-66.675
X42.926Y-69.215
X42.926Y-71.755
X42.926Y-74.295
X42.926Y-76.835
X42.926Y-79.375
X42.926Y-81.915
X42.926Y-84.455
X42.926Y-86.995
X58.166Y-59.055
X58.166Y-61.595
X58.166Y-64.135
X58.166Y-66.675
X58.166Y-69.215
X58.166Y-71.755
X58.166Y-74.295
X58.166Y-76.835
X58.166Y-79.375
X58.166Y-81.915
X58.166Y-84.455
X58.166Y-86.995
T6
X63.35Y-59.468
X63.35Y-63.968
X69.85Y-59.468
X69.85Y-63.968
T7
X88.265Y-79.216
X94.615Y-76.676
X107.315Y-60.166
X107.315Y-79.216
X113.665Y-57.626
X113.665Y-76.676
X126.365Y-79.216
X132.715Y-76.676
T9
X43.656Y-53.181
X43.656Y-91.281
X43.656Y-98.584
X43.656Y-136.684
X138.112Y-53.181
X138.112Y-91.281
X138.112Y-98.584
X138.112Y-136.684
T8
G00X86.356Y-62.412
M15
G01X86.356Y-63.712
M16
G05
G00X97.556Y-62.412
M15
G01X97.556Y-63.712
M16
G05
G00X124.456Y-62.412
M15
G01X124.456Y-63.712
M16
G05
G00X135.656Y-62.412
M15
G01X135.656Y-63.712
M16
G05
T0
M30
